<svg width="350" height="730" viewBox="0 0 350 730" fill="none" xmlns="http://www.w3.org/2000/svg">
<line x1="25.5" y1="30" x2="25.5" y2="-6.55671e-08" stroke="url(#paint0_linear_275_4852)" stroke-width="3"/>
<line x1="25.5" y1="700" x2="25.5" y2="730" stroke="url(#paint1_linear_275_4852)" stroke-width="3"/>
<line x1="25.5" y1="130" x2="25.5" y2="100" stroke="#0040C5" stroke-width="3"/>
<line x1="25.5" y1="230" x2="25.5" y2="200" stroke="#0040C5" stroke-width="3"/>
<line x1="25.5" y1="330" x2="25.5" y2="300" stroke="#0040C5" stroke-width="3"/>
<line x1="25.5" y1="430" x2="25.5" y2="400" stroke="#0040C5" stroke-width="3"/>
<line x1="25.5" y1="530" x2="25.5" y2="500" stroke="#0040C5" stroke-width="3"/>
<line x1="25.5" y1="630" x2="25.5" y2="600" stroke="#0040C5" stroke-width="3"/>
<circle cx="25" cy="65" r="23.5" fill="white" stroke="#0040C5" stroke-width="3"/>
<circle cx="25" cy="65" r="18" fill="white"/>
<path d="M19.4286 54.8887H15.7143C14.7292 54.8887 13.7845 55.193 13.0879 55.7348C12.3913 56.2766 12 57.0114 12 57.7776V75.1109C12 75.8771 12.3913 76.6119 13.0879 77.1536C13.7845 77.6954 14.7292 77.9998 15.7143 77.9998H34.2857C35.2708 77.9998 36.2155 77.6954 36.9121 77.1536C37.6087 76.6119 38 75.8771 38 75.1109V57.7776C38 57.0114 37.6087 56.2766 36.9121 55.7348C36.2155 55.193 35.2708 54.8887 34.2857 54.8887H30.5714" stroke="#0040C5" stroke-width="3" stroke-linecap="round" stroke-linejoin="round"/>
<path d="M19.4297 65H30.5725M19.4297 70.7778H30.5725M19.4297 54.8889C19.4297 54.1227 19.821 53.3879 20.5176 52.8461C21.2141 52.3044 22.1589 52 23.144 52H26.8583C27.8433 52 28.7881 52.3044 29.4847 52.8461C30.1812 53.3879 30.5725 54.1227 30.5725 54.8889C30.5725 55.6551 30.1812 56.3899 29.4847 56.9316C28.7881 57.4734 27.8433 57.7778 26.8583 57.7778H23.144C22.1589 57.7778 21.2141 57.4734 20.5176 56.9316C19.821 56.3899 19.4297 55.6551 19.4297 54.8889Z" stroke="#0040C5" stroke-width="3" stroke-linecap="round" stroke-linejoin="round"/>
<circle cx="25" cy="165" r="23.5" fill="white" stroke="#0040C5" stroke-width="3"/>
<path d="M29.3333 155.059L32.2222 158.118L38 152M14.8889 152H20.6667L23.5556 159.647L19.9444 161.941C21.4914 165.262 24.03 167.95 27.1667 169.588L29.3333 165.765L36.5556 168.824V174.941C36.5556 175.752 36.2512 176.53 35.7094 177.104C35.1676 177.678 34.4328 178 33.6667 178C28.0323 177.637 22.718 175.104 18.7265 170.878C14.7351 166.652 12.3424 161.025 12 155.059C12 154.248 12.3044 153.47 12.8461 152.896C13.3879 152.322 14.1227 152 14.8889 152Z" stroke="#0040C5" stroke-width="3" stroke-linecap="round" stroke-linejoin="round"/>
<circle cx="25" cy="265" r="23.5" fill="white" stroke="#0040C5" stroke-width="3"/>
<path d="M15.9277 260.72C15.9277 263.033 16.8836 265.251 18.5851 266.886C20.2866 268.521 22.5944 269.44 25.0007 269.44C27.407 269.44 29.7147 268.521 31.4162 266.886C33.1177 265.251 34.0736 263.033 34.0736 260.72C34.0736 258.407 33.1177 256.189 31.4162 254.554C29.7147 252.919 27.407 252 25.0007 252C22.5944 252 20.2866 252.919 18.5851 254.554C16.8836 256.189 15.9277 258.407 15.9277 260.72Z" stroke="#0040C5" stroke-width="3" stroke-linecap="round" stroke-linejoin="round"/>
<path d="M25.0015 269.44L30.1428 278L32.5593 273.302L38 273.639L32.8587 265.08M17.1413 265.08L12 273.64L17.4407 273.302L19.8572 277.999L24.9985 269.44" stroke="#0040C5" stroke-width="3" stroke-linecap="round" stroke-linejoin="round"/>
<circle cx="25" cy="365" r="23.5" fill="white" stroke="#0040C5" stroke-width="3"/>
<path d="M12 358.5V355.25C12 354.388 12.3424 353.561 12.9519 352.952C13.5614 352.342 14.388 352 15.25 352H18.5M12 371.5V374.75C12 375.612 12.3424 376.439 12.9519 377.048C13.5614 377.658 14.388 378 15.25 378H18.5M31.5 352H34.75C35.612 352 36.4386 352.342 37.0481 352.952C37.6576 353.561 38 354.388 38 355.25V358.5M31.5 378H34.75C35.612 378 36.4386 377.658 37.0481 377.048C37.6576 376.439 38 375.612 38 374.75V371.5M25 365.812L31.5 361.75M25 365.812L18.5 361.75L25 357.688L31.5 361.75M25 365.812V373.125L31.5 369.062V361.75" stroke="#0040C5" stroke-width="3" stroke-linecap="round" stroke-linejoin="round"/>
<path d="M18.5 361.75V369.062L25 373.125" stroke="#0040C5" stroke-width="3" stroke-linecap="round" stroke-linejoin="round"/>
<circle cx="25" cy="465" r="23.5" fill="white" stroke="#0040C5" stroke-width="3"/>
<path d="M19.2222 458.118V455.059C19.2222 454.248 19.5266 453.47 20.0684 452.896C20.6101 452.322 21.3449 452 22.1111 452H27.8889C28.6551 452 29.3899 452.322 29.9316 452.896C30.4734 453.47 30.7778 454.248 30.7778 455.059V458.118M25 465.765V465.78M12 461.176C12 460.365 12.3044 459.587 12.8461 459.014C13.3879 458.44 14.1227 458.118 14.8889 458.118H35.1111C35.8773 458.118 36.6121 458.44 37.1539 459.014C37.6956 459.587 38 460.365 38 461.176V474.941C38 475.752 37.6956 476.53 37.1539 477.104C36.6121 477.678 35.8773 478 35.1111 478H14.8889C14.1227 478 13.3879 477.678 12.8461 477.104C12.3044 476.53 12 475.752 12 474.941V461.176Z" stroke="#0040C5" stroke-width="3" stroke-linecap="round" stroke-linejoin="round"/>
<path d="M12 467.295C16.0323 469.446 20.4847 470.567 25 470.567C29.5153 470.567 33.9677 469.446 38 467.295" stroke="#0040C5" stroke-width="3" stroke-linecap="round" stroke-linejoin="round"/>
<circle cx="25" cy="565" r="23.5" fill="white" stroke="#0040C5" stroke-width="3"/>
<path d="M30.8492 561.75C34.7986 561.75 37.9992 565.024 37.9992 569.062C37.9992 571.333 36.9878 573.361 35.3992 574.701V578L32.846 576.086C32.1917 576.279 31.5216 576.376 30.8492 576.375C26.8998 576.375 23.6992 573.101 23.6992 569.062C23.6992 565.024 26.8998 561.75 30.8492 561.75Z" stroke="#0040C5" stroke-width="3" stroke-linecap="round" stroke-linejoin="round"/>
<path d="M23.9561 571.009C23.0591 571.328 22.0971 571.5 21.1 571.5C19.9448 571.503 18.7973 571.266 17.7044 570.798L14.6 573.125V568.573C12.9919 566.815 12 564.407 12 561.75C12 556.365 16.0742 552 21.1 552C26.0166 552 30.0219 556.176 30.2 561.401V561.779M22.4 558.5H22.413M18.5 558.5H18.513M28.9 568.25H28.913M32.8 568.25H32.813" stroke="#0040C5" stroke-width="3" stroke-linecap="round" stroke-linejoin="round"/>
<circle cx="25" cy="665" r="23.5" fill="white" stroke="#0040C5" stroke-width="3"/>
<path d="M18.5 665L25 678L38 652M12 665L18.5 678M25 665L31.5 652" stroke="#0040C5" stroke-width="3" stroke-linecap="round" stroke-linejoin="round"/>
<path d="M78.6865 64.8877V70H77.8882L77.3389 68.6523C76.7578 69.6533 75.8569 70.1538 74.6362 70.1538C73.2739 70.1538 72.2559 69.6362 71.582 68.6011C70.9131 67.5659 70.5786 66.3672 70.5786 65.0049C70.5786 63.5645 70.9521 62.3462 71.6992 61.3501C72.4512 60.3491 73.501 59.8486 74.8486 59.8486C75.8545 59.8486 76.6821 60.1416 77.3315 60.7275C77.981 61.3086 78.3911 62.0337 78.562 62.9028L76.9946 63.1812C76.7017 61.9604 76.001 61.3501 74.8926 61.3501C74.1846 61.3501 73.606 61.6382 73.1567 62.2144C72.7124 62.7905 72.4902 63.6768 72.4902 64.873C72.4902 67.3975 73.2812 68.6597 74.8633 68.6597C75.4785 68.6597 75.9863 68.4473 76.3867 68.0225C76.792 67.5977 76.9946 67.0361 76.9946 66.3379H74.9292V64.8877H78.6865ZM88.5815 70H86.6553L85.8569 67.6196H82.0117L81.228 70H79.6899L83.0078 60.0024H85.2271L88.5815 70ZM85.3735 66.1768L83.916 61.7163L82.4585 66.1768H85.3735ZM93.2837 70H91.3501V61.5479H88.6914V60.0024H95.9424V61.5479H93.2837V70ZM104.46 70H102.659V65.6567H98.8428V70H97.041V60.0024H98.8428V64.1113H102.659V60.0024H104.46V70ZM113.162 70H106.665V60.0024H113.096V61.4893H108.467V64.1992H112.188V65.6494H108.467V68.4473H113.162V70ZM122.515 70H120.61L119.058 65.8911H116.523V70H114.722V60.0024H119.058C120.264 60.0024 121.15 60.2759 121.716 60.8228C122.283 61.3647 122.566 62.0679 122.566 62.9321C122.566 64.2163 121.965 65.1001 120.764 65.5835L122.515 70ZM116.523 64.4482H118.765C119.414 64.4482 119.897 64.3115 120.215 64.0381C120.532 63.7646 120.691 63.3887 120.691 62.9102C120.691 62.4707 120.535 62.1167 120.222 61.8481C119.91 61.5747 119.473 61.438 118.911 61.438H116.523V64.4482ZM126.162 70H124.36V60.0024H126.162V70ZM135.911 70H134.16L130.366 63.6133C130.308 63.5156 130.212 63.3569 130.081 63.1372C130.022 63.0396 129.932 62.8857 129.81 62.6758V70H128.359V60.0024H130.352L133.853 65.8911C133.882 65.9399 134.094 66.2988 134.49 66.9678V60.0024H135.911V70ZM145.703 64.8877V70H144.905L144.355 68.6523C143.774 69.6533 142.874 70.1538 141.653 70.1538C140.291 70.1538 139.272 69.6362 138.599 68.6011C137.93 67.5659 137.595 66.3672 137.595 65.0049C137.595 63.5645 137.969 62.3462 138.716 61.3501C139.468 60.3491 140.518 59.8486 141.865 59.8486C142.871 59.8486 143.699 60.1416 144.348 60.7275C144.998 61.3086 145.408 62.0337 145.579 62.9028L144.011 63.1812C143.718 61.9604 143.018 61.3501 141.909 61.3501C141.201 61.3501 140.623 61.6382 140.173 62.2144C139.729 62.7905 139.507 63.6768 139.507 64.873C139.507 67.3975 140.298 68.6597 141.88 68.6597C142.495 68.6597 143.003 68.4473 143.403 68.0225C143.809 67.5977 144.011 67.0361 144.011 66.3379H141.946V64.8877H145.703ZM153.306 70H151.504V60.0024H155.598C156.765 60.0024 157.629 60.2979 158.191 60.8887C158.757 61.4746 159.041 62.168 159.041 62.9688C159.041 63.8818 158.735 64.6216 158.125 65.188C157.515 65.7544 156.741 66.0376 155.803 66.0376H153.306V70ZM153.306 64.4922H155.437C155.994 64.4922 156.418 64.3555 156.711 64.082C157.004 63.8086 157.151 63.4448 157.151 62.9907C157.151 62.5806 157.014 62.229 156.741 61.936C156.472 61.6431 155.984 61.4966 155.276 61.4966H153.306V64.4922ZM164.182 70.1538C162.854 70.1538 161.819 69.6558 161.077 68.6597C160.339 67.6636 159.971 66.4331 159.971 64.9683C159.971 63.5132 160.364 62.2974 161.15 61.3208C161.936 60.3394 162.974 59.8486 164.263 59.8486C165.562 59.8486 166.587 60.3394 167.339 61.3208C168.096 62.2974 168.474 63.5205 168.474 64.9902C168.474 66.5332 168.081 67.7808 167.295 68.7329C166.514 69.6802 165.476 70.1538 164.182 70.1538ZM164.197 68.7036C164.846 68.7036 165.396 68.4351 165.845 67.8979C166.294 67.3608 166.519 66.3867 166.519 64.9756C166.519 63.8281 166.333 62.9297 165.962 62.2803C165.591 61.626 165.015 61.2988 164.233 61.2988C162.69 61.2988 161.919 62.5415 161.919 65.0269C161.919 66.2329 162.114 67.1484 162.505 67.7734C162.9 68.3936 163.464 68.7036 164.197 68.7036ZM169.104 67.5903L170.854 67.2168C171.064 68.208 171.87 68.7036 173.271 68.7036C173.911 68.7036 174.402 68.5767 174.744 68.3228C175.09 68.0688 175.264 67.7539 175.264 67.3779C175.264 67.1045 175.186 66.853 175.029 66.6235C174.873 66.3892 174.539 66.2061 174.026 66.0742L172.114 65.5762C171.46 65.4053 170.977 65.2124 170.664 64.9976C170.352 64.7778 170.1 64.4702 169.91 64.0747C169.724 63.6792 169.631 63.2568 169.631 62.8076C169.631 61.9141 169.963 61.1987 170.627 60.6616C171.292 60.1196 172.141 59.8486 173.176 59.8486C174.036 59.8486 174.802 60.0366 175.476 60.4126C176.155 60.7886 176.587 61.3208 176.772 62.0093L175.059 62.4341C174.795 61.6772 174.18 61.2988 173.213 61.2988C172.651 61.2988 172.222 61.416 171.924 61.6504C171.631 61.8848 171.484 62.1826 171.484 62.5439C171.484 63.1152 171.948 63.5156 172.876 63.7451L174.575 64.1699C175.605 64.4287 176.296 64.812 176.648 65.3198C177 65.8228 177.175 66.3794 177.175 66.9897C177.175 67.9712 176.804 68.7451 176.062 69.3115C175.325 69.873 174.368 70.1538 173.191 70.1538C172.2 70.1538 171.331 69.9463 170.583 69.5312C169.841 69.1162 169.348 68.4692 169.104 67.5903ZM180.522 70H178.721V60.0024H182.815C183.982 60.0024 184.846 60.2979 185.408 60.8887C185.974 61.4746 186.257 62.168 186.257 62.9688C186.257 63.8818 185.952 64.6216 185.342 65.188C184.731 65.7544 183.958 66.0376 183.02 66.0376H180.522V70ZM180.522 64.4922H182.654C183.21 64.4922 183.635 64.3555 183.928 64.082C184.221 63.8086 184.368 63.4448 184.368 62.9907C184.368 62.5806 184.231 62.229 183.958 61.936C183.689 61.6431 183.201 61.4966 182.493 61.4966H180.522V64.4922ZM194.211 70H187.715V60.0024H194.146V61.4893H189.517V64.1992H193.237V65.6494H189.517V68.4473H194.211V70ZM201.36 66.5283L203.03 66.7114C202.922 67.7124 202.534 68.5376 201.865 69.187C201.201 69.8315 200.327 70.1538 199.243 70.1538C198.33 70.1538 197.588 69.9243 197.017 69.4653C196.45 69.0063 196.013 68.3838 195.706 67.5977C195.398 66.8115 195.244 65.9448 195.244 64.9976C195.244 63.4741 195.605 62.2363 196.328 61.2842C197.051 60.3271 198.044 59.8486 199.309 59.8486C200.3 59.8486 201.125 60.1538 201.785 60.7642C202.444 61.3745 202.859 62.2485 203.03 63.3862L201.36 63.562C201.052 62.0532 200.374 61.2988 199.324 61.2988C198.65 61.2988 198.125 61.6138 197.749 62.2437C197.378 62.8687 197.192 63.7769 197.192 64.9683C197.192 66.1792 197.393 67.0947 197.793 67.7148C198.193 68.3301 198.723 68.6377 199.382 68.6377C199.91 68.6377 200.359 68.4302 200.73 68.0151C201.101 67.6001 201.311 67.1045 201.36 66.5283ZM207.952 70H206.018V61.5479H203.359V60.0024H210.61V61.5479H207.952V70ZM210.662 67.5903L212.412 67.2168C212.622 68.208 213.428 68.7036 214.829 68.7036C215.469 68.7036 215.959 68.5767 216.301 68.3228C216.648 68.0688 216.821 67.7539 216.821 67.3779C216.821 67.1045 216.743 66.853 216.587 66.6235C216.431 66.3892 216.096 66.2061 215.583 66.0742L213.672 65.5762C213.018 65.4053 212.534 65.2124 212.222 64.9976C211.909 64.7778 211.658 64.4702 211.467 64.0747C211.282 63.6792 211.189 63.2568 211.189 62.8076C211.189 61.9141 211.521 61.1987 212.185 60.6616C212.849 60.1196 213.699 59.8486 214.734 59.8486C215.593 59.8486 216.36 60.0366 217.034 60.4126C217.712 60.7886 218.145 61.3208 218.33 62.0093L216.616 62.4341C216.353 61.6772 215.737 61.2988 214.771 61.2988C214.209 61.2988 213.779 61.416 213.481 61.6504C213.188 61.8848 213.042 62.1826 213.042 62.5439C213.042 63.1152 213.506 63.5156 214.434 63.7451L216.133 64.1699C217.163 64.4287 217.854 64.812 218.206 65.3198C218.557 65.8228 218.733 66.3794 218.733 66.9897C218.733 67.9712 218.362 68.7451 217.62 69.3115C216.882 69.873 215.925 70.1538 214.749 70.1538C213.757 70.1538 212.888 69.9463 212.141 69.5312C211.399 69.1162 210.906 68.4692 210.662 67.5903ZM230.181 70H224.028V60.0024H225.925V68.3667H230.181V70ZM233.315 70H231.514V60.0024H233.315V70ZM234.465 67.5903L236.216 67.2168C236.426 68.208 237.231 68.7036 238.633 68.7036C239.272 68.7036 239.763 68.5767 240.105 68.3228C240.452 68.0688 240.625 67.7539 240.625 67.3779C240.625 67.1045 240.547 66.853 240.391 66.6235C240.234 66.3892 239.9 66.2061 239.387 66.0742L237.476 65.5762C236.821 65.4053 236.338 65.2124 236.025 64.9976C235.713 64.7778 235.461 64.4702 235.271 64.0747C235.085 63.6792 234.993 63.2568 234.993 62.8076C234.993 61.9141 235.325 61.1987 235.989 60.6616C236.653 60.1196 237.502 59.8486 238.538 59.8486C239.397 59.8486 240.164 60.0366 240.837 60.4126C241.516 60.7886 241.948 61.3208 242.134 62.0093L240.42 62.4341C240.156 61.6772 239.541 61.2988 238.574 61.2988C238.013 61.2988 237.583 61.416 237.285 61.6504C236.992 61.8848 236.846 62.1826 236.846 62.5439C236.846 63.1152 237.31 63.5156 238.237 63.7451L239.937 64.1699C240.967 64.4287 241.658 64.812 242.009 65.3198C242.361 65.8228 242.537 66.3794 242.537 66.9897C242.537 67.9712 242.166 68.7451 241.423 69.3115C240.686 69.873 239.729 70.1538 238.552 70.1538C237.561 70.1538 236.692 69.9463 235.945 69.5312C235.203 69.1162 234.709 68.4692 234.465 67.5903ZM247.576 70H245.642V61.5479H242.983V60.0024H250.234V61.5479H247.576V70ZM250.286 67.5903L252.036 67.2168C252.246 68.208 253.052 68.7036 254.453 68.7036C255.093 68.7036 255.583 68.5767 255.925 68.3228C256.272 68.0688 256.445 67.7539 256.445 67.3779C256.445 67.1045 256.367 66.853 256.211 66.6235C256.055 66.3892 255.72 66.2061 255.208 66.0742L253.296 65.5762C252.642 65.4053 252.158 65.2124 251.846 64.9976C251.533 64.7778 251.282 64.4702 251.091 64.0747C250.906 63.6792 250.813 63.2568 250.813 62.8076C250.813 61.9141 251.145 61.1987 251.809 60.6616C252.473 60.1196 253.323 59.8486 254.358 59.8486C255.217 59.8486 255.984 60.0366 256.658 60.4126C257.336 60.7886 257.769 61.3208 257.954 62.0093L256.24 62.4341C255.977 61.6772 255.361 61.2988 254.395 61.2988C253.833 61.2988 253.403 61.416 253.105 61.6504C252.812 61.8848 252.666 62.1826 252.666 62.5439C252.666 63.1152 253.13 63.5156 254.058 63.7451L255.757 64.1699C256.787 64.4287 257.478 64.812 257.83 65.3198C258.181 65.8228 258.357 66.3794 258.357 66.9897C258.357 67.9712 257.986 68.7451 257.244 69.3115C256.506 69.873 255.549 70.1538 254.373 70.1538C253.381 70.1538 252.512 69.9463 251.765 69.5312C251.023 69.1162 250.53 68.4692 250.286 67.5903Z" fill="#0040C5"/>
<path d="M76.687 166.528L78.3569 166.711C78.2495 167.712 77.8613 168.538 77.1924 169.187C76.5283 169.832 75.6543 170.154 74.5703 170.154C73.6572 170.154 72.915 169.924 72.3438 169.465C71.7773 169.006 71.3403 168.384 71.0327 167.598C70.7251 166.812 70.5713 165.945 70.5713 164.998C70.5713 163.474 70.9326 162.236 71.6553 161.284C72.3779 160.327 73.3716 159.849 74.6362 159.849C75.6274 159.849 76.4526 160.154 77.1118 160.764C77.771 161.375 78.186 162.249 78.3569 163.386L76.687 163.562C76.3794 162.053 75.7007 161.299 74.6509 161.299C73.9771 161.299 73.4521 161.614 73.0762 162.244C72.7051 162.869 72.5195 163.777 72.5195 164.968C72.5195 166.179 72.7197 167.095 73.1201 167.715C73.5205 168.33 74.0503 168.638 74.7095 168.638C75.2368 168.638 75.686 168.43 76.0571 168.015C76.4282 167.6 76.6382 167.104 76.687 166.528ZM83.4692 170.154C82.1411 170.154 81.106 169.656 80.3638 168.66C79.6265 167.664 79.2578 166.433 79.2578 164.968C79.2578 163.513 79.6509 162.297 80.437 161.321C81.2231 160.339 82.2607 159.849 83.5498 159.849C84.8486 159.849 85.874 160.339 86.626 161.321C87.3828 162.297 87.7612 163.521 87.7612 164.99C87.7612 166.533 87.3682 167.781 86.582 168.733C85.8008 169.68 84.7632 170.154 83.4692 170.154ZM83.4839 168.704C84.1333 168.704 84.6826 168.435 85.1318 167.898C85.5811 167.361 85.8057 166.387 85.8057 164.976C85.8057 163.828 85.6201 162.93 85.249 162.28C84.8779 161.626 84.3018 161.299 83.5205 161.299C81.9775 161.299 81.2061 162.542 81.2061 165.027C81.2061 166.233 81.4014 167.148 81.792 167.773C82.1875 168.394 82.7515 168.704 83.4839 168.704ZM96.9897 170H95.2393L91.4453 163.613C91.3867 163.516 91.2915 163.357 91.1597 163.137C91.1011 163.04 91.0107 162.886 90.8887 162.676V170H89.4385V160.002H91.4307L94.9316 165.891C94.9609 165.94 95.1733 166.299 95.5688 166.968V160.002H96.9897V170ZM102.688 170H100.754V161.548H98.0957V160.002H105.347V161.548H102.688V170ZM114.29 170H112.363L111.565 167.62H107.72L106.936 170H105.398L108.716 160.002H110.935L114.29 170ZM111.082 166.177L109.624 161.716L108.167 166.177H111.082ZM121.086 166.528L122.756 166.711C122.649 167.712 122.261 168.538 121.592 169.187C120.928 169.832 120.054 170.154 118.97 170.154C118.057 170.154 117.314 169.924 116.743 169.465C116.177 169.006 115.74 168.384 115.432 167.598C115.125 166.812 114.971 165.945 114.971 164.998C114.971 163.474 115.332 162.236 116.055 161.284C116.777 160.327 117.771 159.849 119.036 159.849C120.027 159.849 120.852 160.154 121.511 160.764C122.17 161.375 122.585 162.249 122.756 163.386L121.086 163.562C120.779 162.053 120.1 161.299 119.05 161.299C118.376 161.299 117.852 161.614 117.476 162.244C117.104 162.869 116.919 163.777 116.919 164.968C116.919 166.179 117.119 167.095 117.52 167.715C117.92 168.33 118.45 168.638 119.109 168.638C119.636 168.638 120.085 168.43 120.457 168.015C120.828 167.6 121.038 167.104 121.086 166.528ZM127.678 170H125.745V161.548H123.086V160.002H130.337V161.548H127.678V170ZM133.237 170H131.436V160.002H133.237V170ZM142.986 170H141.235L137.441 163.613C137.383 163.516 137.288 163.357 137.156 163.137C137.097 163.04 137.007 162.886 136.885 162.676V170H135.435V160.002H137.427L140.928 165.891C140.957 165.94 141.169 166.299 141.565 166.968V160.002H142.986V170ZM152.778 164.888V170H151.98L151.431 168.652C150.85 169.653 149.949 170.154 148.728 170.154C147.366 170.154 146.348 169.636 145.674 168.601C145.005 167.566 144.67 166.367 144.67 165.005C144.67 163.564 145.044 162.346 145.791 161.35C146.543 160.349 147.593 159.849 148.94 159.849C149.946 159.849 150.774 160.142 151.423 160.728C152.073 161.309 152.483 162.034 152.654 162.903L151.086 163.181C150.793 161.96 150.093 161.35 148.984 161.35C148.276 161.35 147.698 161.638 147.249 162.214C146.804 162.791 146.582 163.677 146.582 164.873C146.582 167.397 147.373 168.66 148.955 168.66C149.57 168.66 150.078 168.447 150.479 168.022C150.884 167.598 151.086 167.036 151.086 166.338H149.021V164.888H152.778ZM160.381 170H158.579V160.002H162.673C163.84 160.002 164.705 160.298 165.266 160.889C165.833 161.475 166.116 162.168 166.116 162.969C166.116 163.882 165.811 164.622 165.2 165.188C164.59 165.754 163.816 166.038 162.878 166.038H160.381V170ZM160.381 164.492H162.512C163.069 164.492 163.494 164.355 163.787 164.082C164.08 163.809 164.226 163.445 164.226 162.991C164.226 162.581 164.089 162.229 163.816 161.936C163.547 161.643 163.059 161.497 162.351 161.497H160.381V164.492ZM175.366 170H173.462L171.909 165.891H169.375V170H167.573V160.002H171.909C173.115 160.002 174.001 160.276 174.568 160.823C175.134 161.365 175.417 162.068 175.417 162.932C175.417 164.216 174.817 165.1 173.616 165.583L175.366 170ZM169.375 164.448H171.616C172.266 164.448 172.749 164.312 173.066 164.038C173.384 163.765 173.542 163.389 173.542 162.91C173.542 162.471 173.386 162.117 173.074 161.848C172.761 161.575 172.324 161.438 171.763 161.438H169.375V164.448ZM180.896 170.154C179.568 170.154 178.533 169.656 177.791 168.66C177.053 167.664 176.685 166.433 176.685 164.968C176.685 163.513 177.078 162.297 177.864 161.321C178.65 160.339 179.688 159.849 180.977 159.849C182.275 159.849 183.301 160.339 184.053 161.321C184.81 162.297 185.188 163.521 185.188 164.99C185.188 166.533 184.795 167.781 184.009 168.733C183.228 169.68 182.19 170.154 180.896 170.154ZM180.911 168.704C181.56 168.704 182.109 168.435 182.559 167.898C183.008 167.361 183.232 166.387 183.232 164.976C183.232 163.828 183.047 162.93 182.676 162.28C182.305 161.626 181.729 161.299 180.947 161.299C179.404 161.299 178.633 162.542 178.633 165.027C178.633 166.233 178.828 167.148 179.219 167.773C179.614 168.394 180.178 168.704 180.911 168.704ZM185.818 167.59L187.568 167.217C187.778 168.208 188.584 168.704 189.985 168.704C190.625 168.704 191.116 168.577 191.458 168.323C191.804 168.069 191.978 167.754 191.978 167.378C191.978 167.104 191.899 166.853 191.743 166.624C191.587 166.389 191.252 166.206 190.74 166.074L188.828 165.576C188.174 165.405 187.69 165.212 187.378 164.998C187.065 164.778 186.814 164.47 186.624 164.075C186.438 163.679 186.345 163.257 186.345 162.808C186.345 161.914 186.677 161.199 187.341 160.662C188.005 160.12 188.855 159.849 189.89 159.849C190.75 159.849 191.516 160.037 192.19 160.413C192.869 160.789 193.301 161.321 193.486 162.009L191.772 162.434C191.509 161.677 190.894 161.299 189.927 161.299C189.365 161.299 188.936 161.416 188.638 161.65C188.345 161.885 188.198 162.183 188.198 162.544C188.198 163.115 188.662 163.516 189.59 163.745L191.289 164.17C192.319 164.429 193.01 164.812 193.362 165.32C193.713 165.823 193.889 166.379 193.889 166.99C193.889 167.971 193.518 168.745 192.776 169.312C192.039 169.873 191.082 170.154 189.905 170.154C188.914 170.154 188.044 169.946 187.297 169.531C186.555 169.116 186.062 168.469 185.818 167.59ZM197.236 170H195.435V160.002H199.529C200.696 160.002 201.56 160.298 202.122 160.889C202.688 161.475 202.971 162.168 202.971 162.969C202.971 163.882 202.666 164.622 202.056 165.188C201.445 165.754 200.671 166.038 199.734 166.038H197.236V170ZM197.236 164.492H199.368C199.924 164.492 200.349 164.355 200.642 164.082C200.935 163.809 201.082 163.445 201.082 162.991C201.082 162.581 200.945 162.229 200.671 161.936C200.403 161.643 199.915 161.497 199.207 161.497H197.236V164.492ZM210.925 170H204.429V160.002H210.859V161.489H206.23V164.199H209.951V165.649H206.23V168.447H210.925V170ZM218.074 166.528L219.744 166.711C219.636 167.712 219.248 168.538 218.579 169.187C217.915 169.832 217.041 170.154 215.957 170.154C215.044 170.154 214.302 169.924 213.73 169.465C213.164 169.006 212.727 168.384 212.419 167.598C212.112 166.812 211.958 165.945 211.958 164.998C211.958 163.474 212.319 162.236 213.042 161.284C213.765 160.327 214.758 159.849 216.023 159.849C217.014 159.849 217.839 160.154 218.499 160.764C219.158 161.375 219.573 162.249 219.744 163.386L218.074 163.562C217.766 162.053 217.087 161.299 216.038 161.299C215.364 161.299 214.839 161.614 214.463 162.244C214.092 162.869 213.906 163.777 213.906 164.968C213.906 166.179 214.106 167.095 214.507 167.715C214.907 168.33 215.437 168.638 216.096 168.638C216.624 168.638 217.073 168.43 217.444 168.015C217.815 167.6 218.025 167.104 218.074 166.528ZM224.666 170H222.732V161.548H220.073V160.002H227.324V161.548H224.666V170ZM227.375 167.59L229.126 167.217C229.336 168.208 230.142 168.704 231.543 168.704C232.183 168.704 232.673 168.577 233.015 168.323C233.362 168.069 233.535 167.754 233.535 167.378C233.535 167.104 233.457 166.853 233.301 166.624C233.145 166.389 232.81 166.206 232.297 166.074L230.386 165.576C229.731 165.405 229.248 165.212 228.936 164.998C228.623 164.778 228.372 164.47 228.181 164.075C227.996 163.679 227.903 163.257 227.903 162.808C227.903 161.914 228.235 161.199 228.899 160.662C229.563 160.12 230.413 159.849 231.448 159.849C232.307 159.849 233.074 160.037 233.748 160.413C234.426 160.789 234.858 161.321 235.044 162.009L233.33 162.434C233.066 161.677 232.451 161.299 231.484 161.299C230.923 161.299 230.493 161.416 230.195 161.65C229.902 161.885 229.756 162.183 229.756 162.544C229.756 163.115 230.22 163.516 231.147 163.745L232.847 164.17C233.877 164.429 234.568 164.812 234.919 165.32C235.271 165.823 235.447 166.379 235.447 166.99C235.447 167.971 235.076 168.745 234.333 169.312C233.596 169.873 232.639 170.154 231.462 170.154C230.471 170.154 229.602 169.946 228.855 169.531C228.113 169.116 227.62 168.469 227.375 167.59Z" fill="#0040C5"/>
<path d="M78.6646 270.535V272.043C78.0884 272.087 77.7466 272.109 77.6392 272.109C76.1597 272.109 75.4175 271.462 75.4126 270.168C75.0464 270.188 74.8242 270.198 74.7461 270.198C73.4082 270.198 72.3779 269.707 71.6553 268.726C70.9326 267.739 70.5713 266.497 70.5713 264.998C70.5713 263.528 70.9424 262.302 71.6846 261.321C72.4316 260.339 73.479 259.849 74.8267 259.849C75.8081 259.849 76.5894 260.078 77.1704 260.537C77.7515 260.996 78.2129 261.599 78.5547 262.346C78.9014 263.093 79.0747 263.97 79.0747 264.976C79.0747 267.119 78.3643 268.652 76.9434 269.575C76.7188 269.722 76.6064 269.849 76.6064 269.956C76.6064 270.127 76.6797 270.273 76.8262 270.396C76.9775 270.518 77.1826 270.579 77.4414 270.579C77.6172 270.579 77.8784 270.569 78.2251 270.549C78.3228 270.544 78.4692 270.54 78.6646 270.535ZM74.7754 268.689C76.3379 268.689 77.1191 267.458 77.1191 264.998C77.1191 263.689 76.9092 262.747 76.4893 262.17C76.0742 261.589 75.5249 261.299 74.8413 261.299C73.2935 261.299 72.5195 262.563 72.5195 265.093C72.5195 267.49 73.2715 268.689 74.7754 268.689ZM87.6147 260.002V266.426C87.6147 267.295 87.5171 267.964 87.3218 268.433C87.1265 268.901 86.748 269.307 86.1865 269.648C85.6299 269.985 84.9487 270.154 84.1431 270.154C83.3276 270.154 82.6562 270.007 82.1289 269.714C81.6064 269.421 81.2305 269.021 81.001 268.513C80.7715 268 80.6567 267.349 80.6567 266.558V260.002H82.4951V266.426C82.4951 267.305 82.6782 267.883 83.0444 268.162C83.4155 268.435 83.8452 268.572 84.3335 268.572C84.895 268.572 85.3442 268.425 85.6812 268.132C86.0181 267.834 86.1865 267.266 86.1865 266.426V260.002H87.6147ZM97.5171 270H95.5908L94.7925 267.62H90.9473L90.1636 270H88.6255L91.9434 260.002H94.1626L97.5171 270ZM94.3091 266.177L92.8516 261.716L91.394 266.177H94.3091ZM104.878 270H98.7256V260.002H100.623V268.367H104.878V270ZM108.013 270H106.211V260.002H108.013V270ZM112.063 270H110.21V260.002H116.531V261.548H112.063V264.28H115.579V265.781H112.063V270ZM121.848 270H119.937V265.781L116.531 260.002H118.713L121.086 264.126L123.357 260.002H125.085L121.848 265.781V270ZM127.788 270H125.986V260.002H127.788V270ZM137.537 270H135.786L131.992 263.613C131.934 263.516 131.838 263.357 131.707 263.137C131.648 263.04 131.558 262.886 131.436 262.676V270H129.985V260.002H131.978L135.479 265.891C135.508 265.94 135.72 266.299 136.116 266.968V260.002H137.537V270ZM147.329 264.888V270H146.531L145.981 268.652C145.4 269.653 144.5 270.154 143.279 270.154C141.917 270.154 140.898 269.636 140.225 268.601C139.556 267.566 139.221 266.367 139.221 265.005C139.221 263.564 139.595 262.346 140.342 261.35C141.094 260.349 142.144 259.849 143.491 259.849C144.497 259.849 145.325 260.142 145.974 260.728C146.624 261.309 147.034 262.034 147.205 262.903L145.637 263.181C145.344 261.96 144.644 261.35 143.535 261.35C142.827 261.35 142.249 261.638 141.799 262.214C141.355 262.791 141.133 263.677 141.133 264.873C141.133 267.397 141.924 268.66 143.506 268.66C144.121 268.66 144.629 268.447 145.029 268.022C145.435 267.598 145.637 267.036 145.637 266.338H143.572V264.888H147.329ZM157.151 270H155.239V265.781L151.833 260.002H154.016L156.389 264.126L158.66 260.002H160.388L157.151 265.781V270ZM164.973 270.154C163.645 270.154 162.61 269.656 161.868 268.66C161.13 267.664 160.762 266.433 160.762 264.968C160.762 263.513 161.155 262.297 161.941 261.321C162.727 260.339 163.765 259.849 165.054 259.849C166.353 259.849 167.378 260.339 168.13 261.321C168.887 262.297 169.265 263.521 169.265 264.99C169.265 266.533 168.872 267.781 168.086 268.733C167.305 269.68 166.267 270.154 164.973 270.154ZM164.988 268.704C165.637 268.704 166.187 268.435 166.636 267.898C167.085 267.361 167.31 266.387 167.31 264.976C167.31 263.828 167.124 262.93 166.753 262.28C166.382 261.626 165.806 261.299 165.024 261.299C163.481 261.299 162.71 262.542 162.71 265.027C162.71 266.233 162.905 267.148 163.296 267.773C163.691 268.394 164.255 268.704 164.988 268.704ZM177.805 260.002V266.426C177.805 267.295 177.708 267.964 177.512 268.433C177.317 268.901 176.938 269.307 176.377 269.648C175.82 269.985 175.139 270.154 174.333 270.154C173.518 270.154 172.847 270.007 172.319 269.714C171.797 269.421 171.421 269.021 171.191 268.513C170.962 268 170.847 267.349 170.847 266.558V260.002H172.686V266.426C172.686 267.305 172.869 267.883 173.235 268.162C173.606 268.435 174.036 268.572 174.524 268.572C175.085 268.572 175.535 268.425 175.872 268.132C176.208 267.834 176.377 267.266 176.377 266.426V260.002H177.805ZM187.656 270H185.752L184.199 265.891H181.665V270H179.863V260.002H184.199C185.405 260.002 186.292 260.276 186.858 260.823C187.424 261.365 187.708 262.068 187.708 262.932C187.708 264.216 187.107 265.1 185.906 265.583L187.656 270ZM181.665 264.448H183.906C184.556 264.448 185.039 264.312 185.356 264.038C185.674 263.765 185.833 263.389 185.833 262.91C185.833 262.471 185.676 262.117 185.364 261.848C185.051 261.575 184.614 261.438 184.053 261.438H181.665V264.448ZM193.252 270V260.002H197.148C197.808 260.002 198.354 260.071 198.789 260.208C199.224 260.344 199.6 260.63 199.917 261.064C200.234 261.499 200.393 262.009 200.393 262.595C200.393 263.147 200.232 263.628 199.91 264.038C199.587 264.443 199.143 264.702 198.577 264.814C199.28 264.937 199.812 265.222 200.173 265.671C200.535 266.121 200.715 266.653 200.715 267.268C200.715 268.04 200.461 268.689 199.954 269.216C199.451 269.739 198.674 270 197.625 270H193.252ZM194.958 264.199H197.156C197.605 264.199 197.959 264.065 198.218 263.796C198.481 263.528 198.613 263.186 198.613 262.771C198.613 262.312 198.464 261.975 198.167 261.76C197.869 261.541 197.52 261.431 197.119 261.431H194.958V264.199ZM194.958 268.499H197.288C197.781 268.499 198.169 268.369 198.452 268.11C198.74 267.852 198.884 267.502 198.884 267.063C198.884 266.643 198.738 266.299 198.445 266.03C198.157 265.762 197.773 265.627 197.295 265.627H194.958V268.499ZM209.226 260.002V266.426C209.226 267.295 209.128 267.964 208.933 268.433C208.738 268.901 208.359 269.307 207.798 269.648C207.241 269.985 206.56 270.154 205.754 270.154C204.939 270.154 204.268 270.007 203.74 269.714C203.218 269.421 202.842 269.021 202.612 268.513C202.383 268 202.268 267.349 202.268 266.558V260.002H204.106V266.426C204.106 267.305 204.29 267.883 204.656 268.162C205.027 268.435 205.457 268.572 205.945 268.572C206.506 268.572 206.956 268.425 207.292 268.132C207.629 267.834 207.798 267.266 207.798 266.426V260.002H209.226ZM215.305 270H213.394V265.781L209.988 260.002H212.17L214.543 264.126L216.814 260.002H218.542L215.305 265.781V270ZM225.94 270H219.443V260.002H225.874V261.489H221.245V264.199H224.966V265.649H221.245V268.447H225.94V270ZM235.293 270H233.389L231.836 265.891H229.302V270H227.5V260.002H231.836C233.042 260.002 233.928 260.276 234.495 260.823C235.061 261.365 235.344 262.068 235.344 262.932C235.344 264.216 234.744 265.1 233.542 265.583L235.293 270ZM229.302 264.448H231.543C232.192 264.448 232.676 264.312 232.993 264.038C233.311 263.765 233.469 263.389 233.469 262.91C233.469 262.471 233.313 262.117 233 261.848C232.688 261.575 232.251 261.438 231.689 261.438H229.302V264.448Z" fill="#0040C5"/>
<path d="M72.9004 370H71.0986V360.002H75.1929C76.3599 360.002 77.2241 360.298 77.7856 360.889C78.3521 361.475 78.6353 362.168 78.6353 362.969C78.6353 363.882 78.3301 364.622 77.7197 365.188C77.1094 365.754 76.3354 366.038 75.3979 366.038H72.9004V370ZM72.9004 364.492H75.0317C75.5884 364.492 76.0132 364.355 76.3062 364.082C76.5991 363.809 76.7456 363.445 76.7456 362.991C76.7456 362.581 76.6089 362.229 76.3354 361.936C76.0669 361.643 75.5786 361.497 74.8706 361.497H72.9004V364.492ZM81.8945 370H80.0928V360.002H81.8945V370ZM87.5854 370H85.6519V361.548H82.9932V360.002H90.2441V361.548H87.5854V370ZM96.9312 366.528L98.6011 366.711C98.4937 367.712 98.1055 368.538 97.4365 369.187C96.7725 369.832 95.8984 370.154 94.8145 370.154C93.9014 370.154 93.1592 369.924 92.5879 369.465C92.0215 369.006 91.5845 368.384 91.2769 367.598C90.9692 366.812 90.8154 365.945 90.8154 364.998C90.8154 363.474 91.1768 362.236 91.8994 361.284C92.6221 360.327 93.6157 359.849 94.8804 359.849C95.8716 359.849 96.6968 360.154 97.356 360.764C98.0151 361.375 98.4302 362.249 98.6011 363.386L96.9312 363.562C96.6235 362.053 95.9448 361.299 94.895 361.299C94.2212 361.299 93.6963 361.614 93.3203 362.244C92.9492 362.869 92.7637 363.777 92.7637 364.968C92.7637 366.179 92.9639 367.095 93.3643 367.715C93.7646 368.33 94.2944 368.638 94.9536 368.638C95.481 368.638 95.9302 368.43 96.3013 368.015C96.6724 367.6 96.8823 367.104 96.9312 366.528ZM107.449 370H105.647V365.657H101.831V370H100.029V360.002H101.831V364.111H105.647V360.002H107.449V370ZM111.455 370H109.653V360.002H111.455V370ZM121.204 370H119.453L115.659 363.613C115.601 363.516 115.505 363.357 115.374 363.137C115.315 363.04 115.225 362.886 115.103 362.676V370H113.652V360.002H115.645L119.146 365.891C119.175 365.94 119.387 366.299 119.783 366.968V360.002H121.204V370ZM130.996 364.888V370H130.198L129.648 368.652C129.067 369.653 128.167 370.154 126.946 370.154C125.583 370.154 124.565 369.636 123.892 368.601C123.223 367.566 122.888 366.367 122.888 365.005C122.888 363.564 123.262 362.346 124.009 361.35C124.761 360.349 125.811 359.849 127.158 359.849C128.164 359.849 128.992 360.142 129.641 360.728C130.291 361.309 130.701 362.034 130.872 362.903L129.304 363.181C129.011 361.96 128.311 361.35 127.202 361.35C126.494 361.35 125.916 361.638 125.466 362.214C125.022 362.791 124.8 363.677 124.8 364.873C124.8 367.397 125.591 368.66 127.173 368.66C127.788 368.66 128.296 368.447 128.696 368.022C129.102 367.598 129.304 367.036 129.304 366.338H127.239V364.888H130.996ZM144.641 370H142.715L141.917 367.62H138.071L137.288 370H135.75L139.067 360.002H141.287L144.641 370ZM141.433 366.177L139.976 361.716L138.518 366.177H141.433ZM151.401 370H149.6V360.002H153.694C154.861 360.002 155.725 360.298 156.287 360.889C156.853 361.475 157.136 362.168 157.136 362.969C157.136 363.882 156.831 364.622 156.221 365.188C155.61 365.754 154.836 366.038 153.899 366.038H151.401V370ZM151.401 364.492H153.533C154.089 364.492 154.514 364.355 154.807 364.082C155.1 363.809 155.247 363.445 155.247 362.991C155.247 362.581 155.11 362.229 154.836 361.936C154.568 361.643 154.08 361.497 153.372 361.497H151.401V364.492ZM166.387 370H164.482L162.93 365.891H160.396V370H158.594V360.002H162.93C164.136 360.002 165.022 360.276 165.588 360.823C166.155 361.365 166.438 362.068 166.438 362.932C166.438 364.216 165.837 365.1 164.636 365.583L166.387 370ZM160.396 364.448H162.637C163.286 364.448 163.77 364.312 164.087 364.038C164.404 363.765 164.563 363.389 164.563 362.91C164.563 362.471 164.407 362.117 164.094 361.848C163.782 361.575 163.345 361.438 162.783 361.438H160.396V364.448ZM171.917 370.154C170.588 370.154 169.553 369.656 168.811 368.66C168.074 367.664 167.705 366.433 167.705 364.968C167.705 363.513 168.098 362.297 168.884 361.321C169.67 360.339 170.708 359.849 171.997 359.849C173.296 359.849 174.321 360.339 175.073 361.321C175.83 362.297 176.208 363.521 176.208 364.99C176.208 366.533 175.815 367.781 175.029 368.733C174.248 369.68 173.21 370.154 171.917 370.154ZM171.931 368.704C172.581 368.704 173.13 368.435 173.579 367.898C174.028 367.361 174.253 366.387 174.253 364.976C174.253 363.828 174.067 362.93 173.696 362.28C173.325 361.626 172.749 361.299 171.968 361.299C170.425 361.299 169.653 362.542 169.653 365.027C169.653 366.233 169.849 367.148 170.239 367.773C170.635 368.394 171.199 368.704 171.931 368.704ZM177.834 370V360.002H181.519C182.881 360.002 183.975 360.486 184.8 361.453C185.625 362.415 186.038 363.604 186.038 365.02C186.038 366.436 185.613 367.62 184.763 368.572C183.914 369.524 182.698 370 181.116 370H177.834ZM179.688 368.528H181.189C181.995 368.528 182.678 368.225 183.24 367.62C183.801 367.014 184.082 366.113 184.082 364.917C184.082 363.94 183.835 363.115 183.342 362.441C182.854 361.763 182.207 361.423 181.401 361.423H179.688V368.528ZM194.578 360.002V366.426C194.578 367.295 194.48 367.964 194.285 368.433C194.089 368.901 193.711 369.307 193.149 369.648C192.593 369.985 191.912 370.154 191.106 370.154C190.291 370.154 189.619 370.007 189.092 369.714C188.569 369.421 188.193 369.021 187.964 368.513C187.734 368 187.62 367.349 187.62 366.558V360.002H189.458V366.426C189.458 367.305 189.641 367.883 190.007 368.162C190.378 368.435 190.808 368.572 191.296 368.572C191.858 368.572 192.307 368.425 192.644 368.132C192.981 367.834 193.149 367.266 193.149 366.426V360.002H194.578ZM202.224 366.528L203.894 366.711C203.787 367.712 203.398 368.538 202.729 369.187C202.065 369.832 201.191 370.154 200.107 370.154C199.194 370.154 198.452 369.924 197.881 369.465C197.314 369.006 196.877 368.384 196.57 367.598C196.262 366.812 196.108 365.945 196.108 364.998C196.108 363.474 196.47 362.236 197.192 361.284C197.915 360.327 198.909 359.849 200.173 359.849C201.165 359.849 201.99 360.154 202.649 360.764C203.308 361.375 203.723 362.249 203.894 363.386L202.224 363.562C201.917 362.053 201.238 361.299 200.188 361.299C199.514 361.299 198.989 361.614 198.613 362.244C198.242 362.869 198.057 363.777 198.057 364.968C198.057 366.179 198.257 367.095 198.657 367.715C199.058 368.33 199.587 368.638 200.247 368.638C200.774 368.638 201.223 368.43 201.594 368.015C201.965 367.6 202.175 367.104 202.224 366.528ZM208.816 370H206.882V361.548H204.224V360.002H211.475V361.548H208.816V370ZM220.007 370.154C218.679 370.154 217.644 369.656 216.902 368.66C216.165 367.664 215.796 366.433 215.796 364.968C215.796 363.513 216.189 362.297 216.975 361.321C217.761 360.339 218.799 359.849 220.088 359.849C221.387 359.849 222.412 360.339 223.164 361.321C223.921 362.297 224.299 363.521 224.299 364.99C224.299 366.533 223.906 367.781 223.12 368.733C222.339 369.68 221.301 370.154 220.007 370.154ZM220.022 368.704C220.671 368.704 221.221 368.435 221.67 367.898C222.119 367.361 222.344 366.387 222.344 364.976C222.344 363.828 222.158 362.93 221.787 362.28C221.416 361.626 220.84 361.299 220.059 361.299C218.516 361.299 217.744 362.542 217.744 365.027C217.744 366.233 217.939 367.148 218.33 367.773C218.726 368.394 219.29 368.704 220.022 368.704ZM233.77 370H231.865L230.312 365.891H227.778V370H225.977V360.002H230.312C231.519 360.002 232.405 360.276 232.971 360.823C233.538 361.365 233.821 362.068 233.821 362.932C233.821 364.216 233.22 365.1 232.019 365.583L233.77 370ZM227.778 364.448H230.02C230.669 364.448 231.152 364.312 231.47 364.038C231.787 363.765 231.946 363.389 231.946 362.91C231.946 362.471 231.79 362.117 231.477 361.848C231.165 361.575 230.728 361.438 230.166 361.438H227.778V364.448ZM238.318 367.59L240.068 367.217C240.278 368.208 241.084 368.704 242.485 368.704C243.125 368.704 243.616 368.577 243.958 368.323C244.304 368.069 244.478 367.754 244.478 367.378C244.478 367.104 244.399 366.853 244.243 366.624C244.087 366.389 243.752 366.206 243.24 366.074L241.328 365.576C240.674 365.405 240.19 365.212 239.878 364.998C239.565 364.778 239.314 364.47 239.124 364.075C238.938 363.679 238.845 363.257 238.845 362.808C238.845 361.914 239.177 361.199 239.841 360.662C240.505 360.12 241.355 359.849 242.39 359.849C243.25 359.849 244.016 360.037 244.69 360.413C245.369 360.789 245.801 361.321 245.986 362.009L244.272 362.434C244.009 361.677 243.394 361.299 242.427 361.299C241.865 361.299 241.436 361.416 241.138 361.65C240.845 361.885 240.698 362.183 240.698 362.544C240.698 363.115 241.162 363.516 242.09 363.745L243.789 364.17C244.819 364.429 245.51 364.812 245.862 365.32C246.213 365.823 246.389 366.379 246.389 366.99C246.389 367.971 246.018 368.745 245.276 369.312C244.539 369.873 243.582 370.154 242.405 370.154C241.414 370.154 240.544 369.946 239.797 369.531C239.055 369.116 238.562 368.469 238.318 367.59ZM254.431 370H247.935V360.002H254.365V361.489H249.736V364.199H253.457V365.649H249.736V368.447H254.431V370ZM263.784 370H261.88L260.327 365.891H257.793V370H255.991V360.002H260.327C261.533 360.002 262.419 360.276 262.986 360.823C263.552 361.365 263.835 362.068 263.835 362.932C263.835 364.216 263.235 365.1 262.034 365.583L263.784 370ZM257.793 364.448H260.034C260.684 364.448 261.167 364.312 261.484 364.038C261.802 363.765 261.96 363.389 261.96 362.91C261.96 362.471 261.804 362.117 261.492 361.848C261.179 361.575 260.742 361.438 260.181 361.438H257.793V364.448ZM269.475 370H267.644L264.561 360.002H266.465L268.757 367.664L271.101 360.002H272.603L269.475 370ZM275.547 370H273.745V360.002H275.547V370ZM283.333 366.528L285.002 366.711C284.895 367.712 284.507 368.538 283.838 369.187C283.174 369.832 282.3 370.154 281.216 370.154C280.303 370.154 279.561 369.924 278.989 369.465C278.423 369.006 277.986 368.384 277.678 367.598C277.371 366.812 277.217 365.945 277.217 364.998C277.217 363.474 277.578 362.236 278.301 361.284C279.023 360.327 280.017 359.849 281.282 359.849C282.273 359.849 283.098 360.154 283.757 360.764C284.417 361.375 284.832 362.249 285.002 363.386L283.333 363.562C283.025 362.053 282.346 361.299 281.296 361.299C280.623 361.299 280.098 361.614 279.722 362.244C279.351 362.869 279.165 363.777 279.165 364.968C279.165 366.179 279.365 367.095 279.766 367.715C280.166 368.33 280.696 368.638 281.355 368.638C281.882 368.638 282.332 368.43 282.703 368.015C283.074 367.6 283.284 367.104 283.333 366.528ZM292.927 370H286.431V360.002H292.861V361.489H288.232V364.199H291.953V365.649H288.232V368.447H292.927V370ZM293.44 367.59L295.19 367.217C295.4 368.208 296.206 368.704 297.607 368.704C298.247 368.704 298.738 368.577 299.08 368.323C299.426 368.069 299.6 367.754 299.6 367.378C299.6 367.104 299.521 366.853 299.365 366.624C299.209 366.389 298.875 366.206 298.362 366.074L296.45 365.576C295.796 365.405 295.312 365.212 295 364.998C294.688 364.778 294.436 364.47 294.246 364.075C294.06 363.679 293.967 363.257 293.967 362.808C293.967 361.914 294.299 361.199 294.963 360.662C295.627 360.12 296.477 359.849 297.512 359.849C298.372 359.849 299.138 360.037 299.812 360.413C300.491 360.789 300.923 361.321 301.108 362.009L299.395 362.434C299.131 361.677 298.516 361.299 297.549 361.299C296.987 361.299 296.558 361.416 296.26 361.65C295.967 361.885 295.82 362.183 295.82 362.544C295.82 363.115 296.284 363.516 297.212 363.745L298.911 364.17C299.941 364.429 300.632 364.812 300.984 365.32C301.335 365.823 301.511 366.379 301.511 366.99C301.511 367.971 301.14 368.745 300.398 369.312C299.661 369.873 298.704 370.154 297.527 370.154C296.536 370.154 295.667 369.946 294.919 369.531C294.177 369.116 293.684 368.469 293.44 367.59Z" fill="#0040C5"/>
<path d="M78.5181 470H76.7163V465.657H72.9004V470H71.0986V460.002H72.9004V464.111H76.7163V460.002H78.5181V470ZM88.5669 470H86.6406L85.8423 467.62H81.9971L81.2134 470H79.6753L82.9932 460.002H85.2124L88.5669 470ZM85.3589 466.177L83.9014 461.716L82.4438 466.177H85.3589ZM97.3267 470H95.5762L91.7822 463.613C91.7236 463.516 91.6284 463.357 91.4966 463.137C91.438 463.04 91.3477 462.886 91.2256 462.676V470H89.7754V460.002H91.7676L95.2686 465.891C95.2979 465.94 95.5103 466.299 95.9058 466.968V460.002H97.3267V470ZM99.48 470V460.002H103.164C104.526 460.002 105.62 460.486 106.445 461.453C107.271 462.415 107.683 463.604 107.683 465.02C107.683 466.436 107.258 467.62 106.409 468.572C105.559 469.524 104.343 470 102.761 470H99.48ZM101.333 468.528H102.834C103.64 468.528 104.324 468.225 104.885 467.62C105.447 467.014 105.728 466.113 105.728 464.917C105.728 463.94 105.481 463.115 104.988 462.441C104.5 461.763 103.853 461.423 103.047 461.423H101.333V468.528ZM115.513 470H109.36V460.002H111.257V468.367H115.513V470ZM118.647 470H116.846V460.002H118.647V470ZM128.396 470H126.646L122.852 463.613C122.793 463.516 122.698 463.357 122.566 463.137C122.507 463.04 122.417 462.886 122.295 462.676V470H120.845V460.002H122.837L126.338 465.891C126.367 465.94 126.58 466.299 126.975 466.968V460.002H128.396V470ZM138.188 464.888V470H137.39L136.841 468.652C136.26 469.653 135.359 470.154 134.138 470.154C132.776 470.154 131.758 469.636 131.084 468.601C130.415 467.566 130.081 466.367 130.081 465.005C130.081 463.564 130.454 462.346 131.201 461.35C131.953 460.349 133.003 459.849 134.351 459.849C135.356 459.849 136.184 460.142 136.833 460.728C137.483 461.309 137.893 462.034 138.064 462.903L136.497 463.181C136.204 461.96 135.503 461.35 134.395 461.35C133.687 461.35 133.108 461.638 132.659 462.214C132.214 462.791 131.992 463.677 131.992 464.873C131.992 467.397 132.783 468.66 134.365 468.66C134.98 468.66 135.488 468.447 135.889 468.022C136.294 467.598 136.497 467.036 136.497 466.338H134.431V464.888H138.188ZM147.673 470.154C146.345 470.154 145.31 469.656 144.568 468.66C143.831 467.664 143.462 466.433 143.462 464.968C143.462 463.513 143.855 462.297 144.641 461.321C145.427 460.339 146.465 459.849 147.754 459.849C149.053 459.849 150.078 460.339 150.83 461.321C151.587 462.297 151.965 463.521 151.965 464.99C151.965 466.533 151.572 467.781 150.786 468.733C150.005 469.68 148.967 470.154 147.673 470.154ZM147.688 468.704C148.337 468.704 148.887 468.435 149.336 467.898C149.785 467.361 150.01 466.387 150.01 464.976C150.01 463.828 149.824 462.93 149.453 462.28C149.082 461.626 148.506 461.299 147.725 461.299C146.182 461.299 145.41 462.542 145.41 465.027C145.41 466.233 145.605 467.148 145.996 467.773C146.392 468.394 146.956 468.704 147.688 468.704ZM153.643 470V460.002H157.539C158.198 460.002 158.745 460.071 159.18 460.208C159.614 460.344 159.99 460.63 160.308 461.064C160.625 461.499 160.784 462.009 160.784 462.595C160.784 463.147 160.623 463.628 160.3 464.038C159.978 464.443 159.534 464.702 158.967 464.814C159.67 464.937 160.203 465.222 160.564 465.671C160.925 466.121 161.106 466.653 161.106 467.268C161.106 468.04 160.852 468.689 160.344 469.216C159.841 469.739 159.065 470 158.015 470H153.643ZM155.349 464.199H157.546C157.996 464.199 158.35 464.065 158.608 463.796C158.872 463.528 159.004 463.186 159.004 462.771C159.004 462.312 158.855 461.975 158.557 461.76C158.259 461.541 157.91 461.431 157.51 461.431H155.349V464.199ZM155.349 468.499H157.678C158.171 468.499 158.56 468.369 158.843 468.11C159.131 467.852 159.275 467.502 159.275 467.063C159.275 466.643 159.128 466.299 158.835 466.03C158.547 465.762 158.164 465.627 157.686 465.627H155.349V468.499ZM166.226 460.002V466.902C166.226 468.049 165.977 468.879 165.479 469.392C164.985 469.9 164.197 470.154 163.113 470.154C162.488 470.154 162.002 470.103 161.655 470V468.55C162.202 468.589 162.588 468.608 162.812 468.608C163.413 468.608 163.823 468.496 164.043 468.271C164.263 468.047 164.373 467.59 164.373 466.902V460.002H166.226ZM174.832 470H168.335V460.002H174.766V461.489H170.137V464.199H173.857V465.649H170.137V468.447H174.832V470ZM181.98 466.528L183.65 466.711C183.542 467.712 183.154 468.538 182.485 469.187C181.821 469.832 180.947 470.154 179.863 470.154C178.95 470.154 178.208 469.924 177.637 469.465C177.07 469.006 176.633 468.384 176.326 467.598C176.018 466.812 175.864 465.945 175.864 464.998C175.864 463.474 176.226 462.236 176.948 461.284C177.671 460.327 178.665 459.849 179.929 459.849C180.92 459.849 181.746 460.154 182.405 460.764C183.064 461.375 183.479 462.249 183.65 463.386L181.98 463.562C181.672 462.053 180.994 461.299 179.944 461.299C179.27 461.299 178.745 461.614 178.369 462.244C177.998 462.869 177.812 463.777 177.812 464.968C177.812 466.179 178.013 467.095 178.413 467.715C178.813 468.33 179.343 468.638 180.002 468.638C180.53 468.638 180.979 468.43 181.35 468.015C181.721 467.6 181.931 467.104 181.98 466.528ZM188.572 470H186.638V461.548H183.979V460.002H191.23V461.548H188.572V470ZM194.131 470H192.329V460.002H194.131V470ZM200.012 470.154C198.684 470.154 197.649 469.656 196.907 468.66C196.169 467.664 195.801 466.433 195.801 464.968C195.801 463.513 196.194 462.297 196.98 461.321C197.766 460.339 198.804 459.849 200.093 459.849C201.392 459.849 202.417 460.339 203.169 461.321C203.926 462.297 204.304 463.521 204.304 464.99C204.304 466.533 203.911 467.781 203.125 468.733C202.344 469.68 201.306 470.154 200.012 470.154ZM200.027 468.704C200.676 468.704 201.226 468.435 201.675 467.898C202.124 467.361 202.349 466.387 202.349 464.976C202.349 463.828 202.163 462.93 201.792 462.28C201.421 461.626 200.845 461.299 200.063 461.299C198.521 461.299 197.749 462.542 197.749 465.027C197.749 466.233 197.944 467.148 198.335 467.773C198.73 468.394 199.294 468.704 200.027 468.704ZM213.533 470H211.782L207.988 463.613C207.93 463.516 207.834 463.357 207.703 463.137C207.644 463.04 207.554 462.886 207.432 462.676V470H205.981V460.002H207.974L211.475 465.891C211.504 465.94 211.716 466.299 212.112 466.968V460.002H213.533V470ZM214.69 467.59L216.44 467.217C216.65 468.208 217.456 468.704 218.857 468.704C219.497 468.704 219.988 468.577 220.33 468.323C220.676 468.069 220.85 467.754 220.85 467.378C220.85 467.104 220.771 466.853 220.615 466.624C220.459 466.389 220.125 466.206 219.612 466.074L217.7 465.576C217.046 465.405 216.562 465.212 216.25 464.998C215.938 464.778 215.686 464.47 215.496 464.075C215.31 463.679 215.217 463.257 215.217 462.808C215.217 461.914 215.549 461.199 216.213 460.662C216.877 460.12 217.727 459.849 218.762 459.849C219.622 459.849 220.388 460.037 221.062 460.413C221.741 460.789 222.173 461.321 222.358 462.009L220.645 462.434C220.381 461.677 219.766 461.299 218.799 461.299C218.237 461.299 217.808 461.416 217.51 461.65C217.217 461.885 217.07 462.183 217.07 462.544C217.07 463.115 217.534 463.516 218.462 463.745L220.161 464.17C221.191 464.429 221.882 464.812 222.234 465.32C222.585 465.823 222.761 466.379 222.761 466.99C222.761 467.971 222.39 468.745 221.648 469.312C220.911 469.873 219.954 470.154 218.777 470.154C217.786 470.154 216.917 469.946 216.169 469.531C215.427 469.116 214.934 468.469 214.69 467.59Z" fill="#0040C5"/>
<path d="M78.6499 570H76.8994L73.1055 563.613C73.0469 563.516 72.9517 563.357 72.8198 563.137C72.7612 563.04 72.6709 562.886 72.5488 562.676V570H71.0986V560.002H73.0908L76.5918 565.891C76.6211 565.94 76.8335 566.299 77.229 566.968V560.002H78.6499V570ZM87.3511 570H80.8545V560.002H87.2852V561.489H82.6562V564.199H86.377V565.649H82.6562V568.447H87.3511V570ZM96.499 564.888V570H95.7007L95.1514 568.652C94.5703 569.653 93.6694 570.154 92.4487 570.154C91.0864 570.154 90.0684 569.636 89.3945 568.601C88.7256 567.566 88.3911 566.367 88.3911 565.005C88.3911 563.564 88.7646 562.346 89.5117 561.35C90.2637 560.349 91.3135 559.849 92.6611 559.849C93.667 559.849 94.4946 560.142 95.144 560.728C95.7935 561.309 96.2036 562.034 96.3745 562.903L94.8071 563.181C94.5142 561.96 93.8135 561.35 92.7051 561.35C91.9971 561.35 91.4185 561.638 90.9692 562.214C90.5249 562.791 90.3027 563.677 90.3027 564.873C90.3027 567.397 91.0938 568.66 92.6758 568.66C93.291 568.66 93.7988 568.447 94.1992 568.022C94.6045 567.598 94.8071 567.036 94.8071 566.338H92.7417V564.888H96.499ZM102.234 570.154C100.906 570.154 99.8706 569.656 99.1284 568.66C98.3911 567.664 98.0225 566.433 98.0225 564.968C98.0225 563.513 98.4155 562.297 99.2017 561.321C99.9878 560.339 101.025 559.849 102.314 559.849C103.613 559.849 104.639 560.339 105.391 561.321C106.147 562.297 106.526 563.521 106.526 564.99C106.526 566.533 106.133 567.781 105.347 568.733C104.565 569.68 103.528 570.154 102.234 570.154ZM102.249 568.704C102.898 568.704 103.447 568.435 103.896 567.898C104.346 567.361 104.57 566.387 104.57 564.976C104.57 563.828 104.385 562.93 104.014 562.28C103.643 561.626 103.066 561.299 102.285 561.299C100.742 561.299 99.9707 562.542 99.9707 565.027C99.9707 566.233 100.166 567.148 100.557 567.773C100.952 568.394 101.516 568.704 102.249 568.704ZM111.697 570H109.763V561.548H107.104V560.002H114.355V561.548H111.697V570ZM117.256 570H115.454V560.002H117.256V570ZM127.297 570H125.371L124.573 567.62H120.728L119.944 570H118.406L121.724 560.002H123.943L127.297 570ZM124.089 566.177L122.632 561.716L121.174 566.177H124.089ZM132 570H130.066V561.548H127.407V560.002H134.658V561.548H132V570ZM137.559 570H135.757V560.002H137.559V570ZM147.307 570H145.557L141.763 563.613C141.704 563.516 141.609 563.357 141.477 563.137C141.418 563.04 141.328 562.886 141.206 562.676V570H139.756V560.002H141.748L145.249 565.891C145.278 565.94 145.491 566.299 145.886 566.968V560.002H147.307V570ZM157.1 564.888V570H156.301L155.752 568.652C155.171 569.653 154.27 570.154 153.049 570.154C151.687 570.154 150.669 569.636 149.995 568.601C149.326 567.566 148.992 566.367 148.992 565.005C148.992 563.564 149.365 562.346 150.112 561.35C150.864 560.349 151.914 559.849 153.262 559.849C154.268 559.849 155.095 560.142 155.745 560.728C156.394 561.309 156.804 562.034 156.975 562.903L155.408 563.181C155.115 561.96 154.414 561.35 153.306 561.35C152.598 561.35 152.019 561.638 151.57 562.214C151.125 562.791 150.903 563.677 150.903 564.873C150.903 567.397 151.694 568.66 153.276 568.66C153.892 568.66 154.399 568.447 154.8 568.022C155.205 567.598 155.408 567.036 155.408 566.338H153.342V564.888H157.1Z" fill="#0040C5"/>
<path d="M83.103 660.002L80.4297 670H78.54L76.5479 662.646L74.7388 670H72.8857L70.1538 660.002H72.0654L73.999 667.29L75.8008 660.002H77.6245L79.6167 667.29L81.5137 660.002H83.103ZM86.1572 670H84.3555V660.002H86.1572V670ZM95.9058 670H94.1553L90.3613 663.613C90.3027 663.516 90.2075 663.357 90.0757 663.137C90.0171 663.04 89.9268 662.886 89.8047 662.676V670H88.3545V660.002H90.3467L93.8477 665.891C93.877 665.94 94.0894 666.299 94.4849 666.968V660.002H95.9058V670ZM105.662 670H103.911L100.117 663.613C100.059 663.516 99.9634 663.357 99.8315 663.137C99.7729 663.04 99.6826 662.886 99.5605 662.676V670H98.1104V660.002H100.103L103.604 665.891C103.633 665.94 103.845 666.299 104.241 666.968V660.002H105.662V670ZM109.668 670H107.866V660.002H109.668V670ZM119.417 670H117.666L113.872 663.613C113.813 663.516 113.718 663.357 113.586 663.137C113.528 663.04 113.438 662.886 113.315 662.676V670H111.865V660.002H113.857L117.358 665.891C117.388 665.94 117.6 666.299 117.996 666.968V660.002H119.417V670ZM129.209 664.888V670H128.411L127.861 668.652C127.28 669.653 126.379 670.154 125.159 670.154C123.796 670.154 122.778 669.636 122.104 668.601C121.436 667.566 121.101 666.367 121.101 665.005C121.101 663.564 121.475 662.346 122.222 661.35C122.974 660.349 124.023 659.849 125.371 659.849C126.377 659.849 127.205 660.142 127.854 660.728C128.503 661.309 128.914 662.034 129.084 662.903L127.517 663.181C127.224 661.96 126.523 661.35 125.415 661.35C124.707 661.35 124.128 661.638 123.679 662.214C123.235 662.791 123.013 663.677 123.013 664.873C123.013 667.397 123.804 668.66 125.386 668.66C126.001 668.66 126.509 668.447 126.909 668.022C127.314 667.598 127.517 667.036 127.517 666.338H125.452V664.888H129.209ZM142.854 670H140.928L140.129 667.62H136.284L135.5 670H133.962L137.28 660.002H139.5L142.854 670ZM139.646 666.177L138.188 661.716L136.731 666.177H139.646ZM147.761 670V660.002H151.445C152.808 660.002 153.901 660.486 154.727 661.453C155.552 662.415 155.964 663.604 155.964 665.02C155.964 666.436 155.54 667.62 154.69 668.572C153.84 669.524 152.625 670 151.042 670H147.761ZM149.614 668.528H151.116C151.921 668.528 152.605 668.225 153.167 667.62C153.728 667.014 154.009 666.113 154.009 664.917C154.009 663.94 153.762 663.115 153.269 662.441C152.781 661.763 152.134 661.423 151.328 661.423H149.614V668.528ZM164.138 670H157.642V660.002H164.072V661.489H159.443V664.199H163.164V665.649H159.443V668.447H164.138V670ZM173.542 670H171.616L170.818 667.62H166.973L166.189 670H164.651L167.969 660.002H170.188L173.542 670ZM170.334 666.177L168.877 661.716L167.419 666.177H170.334ZM180.903 670H174.751V660.002H176.648V668.367H180.903V670Z" fill="#0040C5"/>
<defs>
<linearGradient id="paint0_linear_275_4852" x1="27" y1="15" x2="27" y2="0.677966" gradientUnits="userSpaceOnUse">
<stop stop-color="#0040C5"/>
<stop offset="1" stop-color="#0040C5" stop-opacity="0"/>
</linearGradient>
<linearGradient id="paint1_linear_275_4852" x1="24" y1="715" x2="24" y2="729.322" gradientUnits="userSpaceOnUse">
<stop stop-color="#0040C5"/>
<stop offset="1" stop-color="#0040C5" stop-opacity="0"/>
</linearGradient>
</defs>
</svg>
