<svg width="964" height="202" viewBox="0 0 964 202" fill="none" xmlns="http://www.w3.org/2000/svg">
<line x1="50" y1="102.5" y2="102.5" stroke="url(#paint0_linear_272_2811)" stroke-width="3"/>
<line x1="914" y1="99.5" x2="964" y2="99.5" stroke="url(#paint1_linear_272_2811)" stroke-width="3"/>
<circle cx="98" cy="101" r="23.5" transform="rotate(-90 98 101)" fill="white" stroke="#0040C5" stroke-width="3"/>
<circle cx="98" cy="101" r="18" transform="rotate(-90 98 101)" fill="white"/>
<path d="M92.4286 90.8887H88.7143C87.7292 90.8887 86.7845 91.193 86.0879 91.7348C85.3913 92.2766 85 93.0114 85 93.7776V111.111C85 111.877 85.3913 112.612 86.0879 113.154C86.7845 113.695 87.7292 114 88.7143 114H107.286C108.271 114 109.216 113.695 109.912 113.154C110.609 112.612 111 111.877 111 111.111V93.7776C111 93.0114 110.609 92.2766 109.912 91.7348C109.216 91.193 108.271 90.8887 107.286 90.8887H103.571" stroke="#0040C5" stroke-width="3" stroke-linecap="round" stroke-linejoin="round"/>
<path d="M92.4297 101H103.573M92.4297 106.778H103.573M92.4297 90.8889C92.4297 90.1227 92.821 89.3879 93.5176 88.8461C94.2141 88.3044 95.1589 88 96.144 88H99.8583C100.843 88 101.788 88.3044 102.485 88.8461C103.181 89.3879 103.573 90.1227 103.573 90.8889C103.573 91.6551 103.181 92.3899 102.485 92.9316C101.788 93.4734 100.843 93.7778 99.8583 93.7778H96.144C95.1589 93.7778 94.2141 93.4734 93.5176 92.9316C92.821 92.3899 92.4297 91.6551 92.4297 90.8889Z" stroke="#0040C5" stroke-width="3" stroke-linecap="round" stroke-linejoin="round"/>
<circle cx="866" cy="101" r="23.5" transform="rotate(-90 866 101)" fill="white" stroke="#0040C5" stroke-width="3"/>
<path d="M859.5 101L866 114L879 88M853 101L859.5 114M866 101L872.5 88" stroke="#0040C5" stroke-width="3" stroke-linecap="round" stroke-linejoin="round"/>
<line x1="187" y1="102.5" x2="137" y2="102.5" stroke="#0040C5" stroke-width="3"/>
<circle cx="226" cy="101" r="23.5" transform="rotate(-90 226 101)" fill="white" stroke="#0040C5" stroke-width="3"/>
<path d="M230.333 91.0588L233.222 94.1176L239 88M215.889 88H221.667L224.556 95.6471L220.944 97.9412C222.491 101.262 225.03 103.95 228.167 105.588L230.333 101.765L237.556 104.824V110.941C237.556 111.752 237.251 112.53 236.709 113.104C236.168 113.678 235.433 114 234.667 114C229.032 113.637 223.718 111.104 219.727 106.878C215.735 102.652 213.342 97.0247 213 91.0588C213 90.2476 213.304 89.4695 213.846 88.8959C214.388 88.3223 215.123 88 215.889 88Z" stroke="#0040C5" stroke-width="3" stroke-linecap="round" stroke-linejoin="round"/>
<line x1="315" y1="102.5" x2="265" y2="102.5" stroke="#0040C5" stroke-width="3"/>
<circle cx="354" cy="101" r="23.5" transform="rotate(-90 354 101)" fill="white" stroke="#0040C5" stroke-width="3"/>
<path d="M344.928 96.72C344.928 99.0326 345.884 101.251 347.585 102.886C349.287 104.521 351.594 105.44 354.001 105.44C356.407 105.44 358.715 104.521 360.416 102.886C362.118 101.251 363.074 99.0326 363.074 96.72C363.074 94.4073 362.118 92.1893 360.416 90.554C358.715 88.9187 356.407 88 354.001 88C351.594 88 349.287 88.9187 347.585 90.554C345.884 92.1893 344.928 94.4073 344.928 96.72Z" stroke="#0040C5" stroke-width="3" stroke-linecap="round" stroke-linejoin="round"/>
<path d="M354.002 105.44L359.143 114L361.559 109.302L367 109.639L361.859 101.08M346.141 101.08L341 109.64L346.441 109.302L348.857 113.999L353.998 105.44" stroke="#0040C5" stroke-width="3" stroke-linecap="round" stroke-linejoin="round"/>
<line x1="443" y1="102.5" x2="393" y2="102.5" stroke="#0040C5" stroke-width="3"/>
<circle cx="482" cy="101" r="23.5" transform="rotate(-90 482 101)" fill="white" stroke="#0040C5" stroke-width="3"/>
<path d="M469 94.5V91.25C469 90.388 469.342 89.5614 469.952 88.9519C470.561 88.3424 471.388 88 472.25 88H475.5M469 107.5V110.75C469 111.612 469.342 112.439 469.952 113.048C470.561 113.658 471.388 114 472.25 114H475.5M488.5 88H491.75C492.612 88 493.439 88.3424 494.048 88.9519C494.658 89.5614 495 90.388 495 91.25V94.5M488.5 114H491.75C492.612 114 493.439 113.658 494.048 113.048C494.658 112.439 495 111.612 495 110.75V107.5M482 101.812L488.5 97.75M482 101.812L475.5 97.75L482 93.6875L488.5 97.75M482 101.812V109.125L488.5 105.062V97.75" stroke="#0040C5" stroke-width="3" stroke-linecap="round" stroke-linejoin="round"/>
<path d="M475.5 97.75V105.062L482 109.125" stroke="#0040C5" stroke-width="3" stroke-linecap="round" stroke-linejoin="round"/>
<line x1="571" y1="102.5" x2="521" y2="102.5" stroke="#0040C5" stroke-width="3"/>
<circle cx="610" cy="101" r="23.5" transform="rotate(-90 610 101)" fill="white" stroke="#0040C5" stroke-width="3"/>
<path d="M604.222 94.1176V91.0588C604.222 90.2476 604.527 89.4695 605.068 88.8959C605.61 88.3223 606.345 88 607.111 88H612.889C613.655 88 614.39 88.3223 614.932 88.8959C615.473 89.4695 615.778 90.2476 615.778 91.0588V94.1176M610 101.765V101.78M597 97.1765C597 96.3652 597.304 95.5872 597.846 95.0136C598.388 94.4399 599.123 94.1176 599.889 94.1176H620.111C620.877 94.1176 621.612 94.4399 622.154 95.0136C622.696 95.5872 623 96.3652 623 97.1765V110.941C623 111.752 622.696 112.53 622.154 113.104C621.612 113.678 620.877 114 620.111 114H599.889C599.123 114 598.388 113.678 597.846 113.104C597.304 112.53 597 111.752 597 110.941V97.1765Z" stroke="#0040C5" stroke-width="3" stroke-linecap="round" stroke-linejoin="round"/>
<path d="M597 103.294C601.032 105.445 605.485 106.566 610 106.566C614.515 106.566 618.968 105.445 623 103.294" stroke="#0040C5" stroke-width="3" stroke-linecap="round" stroke-linejoin="round"/>
<line x1="699" y1="102.5" x2="649" y2="102.5" stroke="#0040C5" stroke-width="3"/>
<circle cx="738" cy="101" r="23.5" transform="rotate(-90 738 101)" fill="white" stroke="#0040C5" stroke-width="3"/>
<path d="M743.849 97.75C747.799 97.75 750.999 101.024 750.999 105.062C750.999 107.333 749.988 109.361 748.399 110.701V114L745.846 112.086C745.192 112.279 744.522 112.376 743.849 112.375C739.9 112.375 736.699 109.101 736.699 105.062C736.699 101.024 739.9 97.75 743.849 97.75Z" stroke="#0040C5" stroke-width="3" stroke-linecap="round" stroke-linejoin="round"/>
<path d="M736.956 107.009C736.059 107.328 735.097 107.5 734.1 107.5C732.945 107.503 731.797 107.266 730.704 106.798L727.6 109.125V104.573C725.992 102.815 725 100.407 725 97.75C725 92.3648 729.074 88 734.1 88C739.017 88 743.022 92.1762 743.2 97.4006V97.7792M735.4 94.5H735.413M731.5 94.5H731.513M741.9 104.25H741.913M745.8 104.25H745.813" stroke="#0040C5" stroke-width="3" stroke-linecap="round" stroke-linejoin="round"/>
<line x1="827" y1="102.5" x2="777" y2="102.5" stroke="#0040C5" stroke-width="3"/>
<path d="M13.6289 167.184V174H12.5645L11.832 172.203C11.0573 173.538 9.85612 174.205 8.22852 174.205C6.41211 174.205 5.05469 173.515 4.15625 172.135C3.26432 170.755 2.81836 169.156 2.81836 167.34C2.81836 165.419 3.31641 163.795 4.3125 162.467C5.3151 161.132 6.71484 160.465 8.51172 160.465C9.85286 160.465 10.9564 160.855 11.8223 161.637C12.6882 162.411 13.235 163.378 13.4629 164.537L11.373 164.908C10.9824 163.281 10.0482 162.467 8.57031 162.467C7.6263 162.467 6.85482 162.851 6.25586 163.619C5.66341 164.387 5.36719 165.569 5.36719 167.164C5.36719 170.53 6.42188 172.213 8.53125 172.213C9.35156 172.213 10.0286 171.93 10.5625 171.363C11.1029 170.797 11.373 170.048 11.373 169.117H8.61914V167.184H13.6289ZM26.8223 174H24.2539L23.1895 170.826H18.0625L17.0176 174H14.9668L19.3906 160.67H22.3496L26.8223 174ZM22.5449 168.902L20.6016 162.955L18.6582 168.902H22.5449ZM33.0918 174H30.5137V162.73H26.9688V160.67H36.6367V162.73H33.0918V174ZM47.9941 174H45.5918V168.209H40.5039V174H38.1016V160.67H40.5039V166.148H45.5918V160.67H47.9941V174ZM59.5957 174H50.9336V160.67H59.5078V162.652H53.3359V166.266H58.2969V168.199H53.3359V171.93H59.5957V174ZM72.0664 174H69.5273L67.457 168.521H64.0781V174H61.6758V160.67H67.457C69.0651 160.67 70.2467 161.035 71.002 161.764C71.7572 162.486 72.1348 163.424 72.1348 164.576C72.1348 166.288 71.334 167.467 69.7324 168.111L72.0664 174ZM64.0781 166.598H67.0664C67.9323 166.598 68.5768 166.415 69 166.051C69.4232 165.686 69.6348 165.185 69.6348 164.547C69.6348 163.961 69.4264 163.489 69.0098 163.131C68.5931 162.766 68.0104 162.584 67.2617 162.584H64.0781V166.598ZM76.9297 174H74.5273V160.67H76.9297V174ZM89.9277 174H87.5938L82.5352 165.484C82.457 165.354 82.3301 165.143 82.1543 164.85C82.0762 164.719 81.9557 164.514 81.793 164.234V174H79.8594V160.67H82.5156L87.1836 168.521C87.2227 168.587 87.5059 169.065 88.0332 169.957V160.67H89.9277V174ZM102.984 167.184V174H101.92L101.188 172.203C100.413 173.538 99.2116 174.205 97.584 174.205C95.7676 174.205 94.4102 173.515 93.5117 172.135C92.6198 170.755 92.1738 169.156 92.1738 167.34C92.1738 165.419 92.6719 163.795 93.668 162.467C94.6706 161.132 96.0703 160.465 97.8672 160.465C99.2083 160.465 100.312 160.855 101.178 161.637C102.044 162.411 102.59 163.378 102.818 164.537L100.729 164.908C100.338 163.281 99.4036 162.467 97.9258 162.467C96.9818 162.467 96.2103 162.851 95.6113 163.619C95.0189 164.387 94.7227 165.569 94.7227 167.164C94.7227 170.53 95.7773 172.213 97.8867 172.213C98.707 172.213 99.3841 171.93 99.918 171.363C100.458 170.797 100.729 170.048 100.729 169.117H97.9746V167.184H102.984ZM113.121 174H110.719V160.67H116.178C117.734 160.67 118.886 161.064 119.635 161.852C120.39 162.633 120.768 163.557 120.768 164.625C120.768 165.842 120.361 166.829 119.547 167.584C118.733 168.339 117.701 168.717 116.451 168.717H113.121V174ZM113.121 166.656H115.963C116.705 166.656 117.271 166.474 117.662 166.109C118.053 165.745 118.248 165.26 118.248 164.654C118.248 164.107 118.066 163.639 117.701 163.248C117.343 162.857 116.692 162.662 115.748 162.662H113.121V166.656ZM127.623 174.205C125.852 174.205 124.472 173.541 123.482 172.213C122.499 170.885 122.008 169.244 122.008 167.291C122.008 165.351 122.532 163.73 123.58 162.428C124.628 161.119 126.012 160.465 127.73 160.465C129.462 160.465 130.829 161.119 131.832 162.428C132.841 163.73 133.346 165.361 133.346 167.32C133.346 169.378 132.822 171.041 131.773 172.311C130.732 173.574 129.348 174.205 127.623 174.205ZM127.643 172.271C128.508 172.271 129.241 171.913 129.84 171.197C130.439 170.481 130.738 169.182 130.738 167.301C130.738 165.771 130.491 164.573 129.996 163.707C129.501 162.835 128.733 162.398 127.691 162.398C125.634 162.398 124.605 164.055 124.605 167.369C124.605 168.977 124.866 170.198 125.387 171.031C125.914 171.858 126.666 172.271 127.643 172.271ZM134.186 170.787L136.52 170.289C136.799 171.611 137.874 172.271 139.742 172.271C140.595 172.271 141.249 172.102 141.705 171.764C142.167 171.425 142.398 171.005 142.398 170.504C142.398 170.139 142.294 169.804 142.086 169.498C141.878 169.186 141.432 168.941 140.748 168.766L138.199 168.102C137.327 167.874 136.682 167.617 136.266 167.33C135.849 167.037 135.514 166.627 135.26 166.1C135.012 165.572 134.889 165.009 134.889 164.41C134.889 163.219 135.331 162.265 136.217 161.549C137.102 160.826 138.235 160.465 139.615 160.465C140.761 160.465 141.783 160.715 142.682 161.217C143.587 161.718 144.163 162.428 144.41 163.346L142.125 163.912C141.773 162.903 140.953 162.398 139.664 162.398C138.915 162.398 138.342 162.555 137.945 162.867C137.555 163.18 137.359 163.577 137.359 164.059C137.359 164.82 137.978 165.354 139.215 165.66L141.48 166.227C142.854 166.572 143.775 167.083 144.244 167.76C144.713 168.43 144.947 169.173 144.947 169.986C144.947 171.295 144.452 172.327 143.463 173.082C142.48 173.831 141.204 174.205 139.635 174.205C138.313 174.205 137.154 173.928 136.158 173.375C135.169 172.822 134.511 171.959 134.186 170.787ZM149.41 174H147.008V160.67H152.467C154.023 160.67 155.175 161.064 155.924 161.852C156.679 162.633 157.057 163.557 157.057 164.625C157.057 165.842 156.65 166.829 155.836 167.584C155.022 168.339 153.99 168.717 152.74 168.717H149.41V174ZM149.41 166.656H152.252C152.994 166.656 153.561 166.474 153.951 166.109C154.342 165.745 154.537 165.26 154.537 164.654C154.537 164.107 154.355 163.639 153.99 163.248C153.632 162.857 152.981 162.662 152.037 162.662H149.41V166.656ZM167.662 174H159V160.67H167.574V162.652H161.402V166.266H166.363V168.199H161.402V171.93H167.662V174ZM177.193 169.371L179.42 169.615C179.277 170.95 178.759 172.05 177.867 172.916C176.982 173.775 175.816 174.205 174.371 174.205C173.154 174.205 172.164 173.899 171.402 173.287C170.647 172.675 170.064 171.845 169.654 170.797C169.244 169.749 169.039 168.593 169.039 167.33C169.039 165.299 169.521 163.648 170.484 162.379C171.448 161.103 172.773 160.465 174.459 160.465C175.781 160.465 176.881 160.872 177.76 161.686C178.639 162.499 179.192 163.665 179.42 165.182L177.193 165.416C176.783 163.404 175.878 162.398 174.479 162.398C173.58 162.398 172.88 162.818 172.379 163.658C171.884 164.492 171.637 165.702 171.637 167.291C171.637 168.906 171.904 170.126 172.438 170.953C172.971 171.773 173.678 172.184 174.557 172.184C175.26 172.184 175.859 171.907 176.354 171.354C176.848 170.8 177.128 170.139 177.193 169.371ZM185.982 174H183.404V162.73H179.859V160.67H189.527V162.73H185.982V174ZM189.596 170.787L191.93 170.289C192.21 171.611 193.284 172.271 195.152 172.271C196.005 172.271 196.66 172.102 197.115 171.764C197.577 171.425 197.809 171.005 197.809 170.504C197.809 170.139 197.704 169.804 197.496 169.498C197.288 169.186 196.842 168.941 196.158 168.766L193.609 168.102C192.737 167.874 192.092 167.617 191.676 167.33C191.259 167.037 190.924 166.627 190.67 166.1C190.423 165.572 190.299 165.009 190.299 164.41C190.299 163.219 190.742 162.265 191.627 161.549C192.512 160.826 193.645 160.465 195.025 160.465C196.171 160.465 197.193 160.715 198.092 161.217C198.997 161.718 199.573 162.428 199.82 163.346L197.535 163.912C197.184 162.903 196.363 162.398 195.074 162.398C194.326 162.398 193.753 162.555 193.355 162.867C192.965 163.18 192.77 163.577 192.77 164.059C192.77 164.82 193.388 165.354 194.625 165.66L196.891 166.227C198.264 166.572 199.186 167.083 199.654 167.76C200.123 168.43 200.357 169.173 200.357 169.986C200.357 171.295 199.863 172.327 198.873 173.082C197.89 173.831 196.614 174.205 195.045 174.205C193.723 174.205 192.564 173.928 191.568 173.375C190.579 172.822 189.921 171.959 189.596 170.787ZM87.252 197H79.0488V183.67H81.5781V194.822H87.252V197ZM91.4316 197H89.0293V183.67H91.4316V197ZM92.9648 193.787L95.2988 193.289C95.5788 194.611 96.653 195.271 98.5215 195.271C99.3743 195.271 100.029 195.102 100.484 194.764C100.947 194.425 101.178 194.005 101.178 193.504C101.178 193.139 101.074 192.804 100.865 192.498C100.657 192.186 100.211 191.941 99.5273 191.766L96.9785 191.102C96.1061 190.874 95.4616 190.617 95.0449 190.33C94.6283 190.037 94.293 189.627 94.0391 189.1C93.7917 188.572 93.668 188.009 93.668 187.41C93.668 186.219 94.1107 185.265 94.9961 184.549C95.8815 183.826 97.0143 183.465 98.3945 183.465C99.5404 183.465 100.562 183.715 101.461 184.217C102.366 184.718 102.942 185.428 103.189 186.346L100.904 186.912C100.553 185.903 99.7324 185.398 98.4434 185.398C97.6947 185.398 97.1217 185.555 96.7246 185.867C96.334 186.18 96.1387 186.577 96.1387 187.059C96.1387 187.82 96.7572 188.354 97.9941 188.66L100.26 189.227C101.633 189.572 102.555 190.083 103.023 190.76C103.492 191.43 103.727 192.173 103.727 192.986C103.727 194.295 103.232 195.327 102.242 196.082C101.259 196.831 99.9831 197.205 98.4141 197.205C97.0924 197.205 95.9336 196.928 94.9375 196.375C93.9479 195.822 93.2904 194.959 92.9648 193.787ZM110.445 197H107.867V185.73H104.322V183.67H113.99V185.73H110.445V197ZM114.059 193.787L116.393 193.289C116.673 194.611 117.747 195.271 119.615 195.271C120.468 195.271 121.122 195.102 121.578 194.764C122.04 194.425 122.271 194.005 122.271 193.504C122.271 193.139 122.167 192.804 121.959 192.498C121.751 192.186 121.305 191.941 120.621 191.766L118.072 191.102C117.2 190.874 116.555 190.617 116.139 190.33C115.722 190.037 115.387 189.627 115.133 189.1C114.885 188.572 114.762 188.009 114.762 187.41C114.762 186.219 115.204 185.265 116.09 184.549C116.975 183.826 118.108 183.465 119.488 183.465C120.634 183.465 121.656 183.715 122.555 184.217C123.46 184.718 124.036 185.428 124.283 186.346L121.998 186.912C121.646 185.903 120.826 185.398 119.537 185.398C118.788 185.398 118.215 185.555 117.818 185.867C117.428 186.18 117.232 186.577 117.232 187.059C117.232 187.82 117.851 188.354 119.088 188.66L121.354 189.227C122.727 189.572 123.648 190.083 124.117 190.76C124.586 191.43 124.82 192.173 124.82 192.986C124.82 194.295 124.326 195.327 123.336 196.082C122.353 196.831 121.077 197.205 119.508 197.205C118.186 197.205 117.027 196.928 116.031 196.375C115.042 195.822 114.384 194.959 114.059 193.787Z" fill="#0040C5"/>
<path d="M124.725 13.3711L126.951 13.6152C126.808 14.9499 126.29 16.0501 125.398 16.916C124.513 17.7754 123.348 18.2051 121.902 18.2051C120.685 18.2051 119.695 17.8991 118.934 17.2871C118.178 16.6751 117.596 15.8451 117.186 14.7969C116.775 13.7487 116.57 12.5931 116.57 11.3301C116.57 9.29883 117.052 7.64844 118.016 6.37891C118.979 5.10286 120.304 4.46484 121.99 4.46484C123.312 4.46484 124.412 4.87174 125.291 5.68555C126.17 6.49935 126.723 7.66471 126.951 9.18164L124.725 9.41602C124.314 7.4043 123.41 6.39844 122.01 6.39844C121.111 6.39844 120.411 6.81836 119.91 7.6582C119.415 8.49154 119.168 9.70247 119.168 11.291C119.168 12.9056 119.435 14.1263 119.969 14.9531C120.503 15.7734 121.209 16.1836 122.088 16.1836C122.791 16.1836 123.39 15.9069 123.885 15.3535C124.38 14.8001 124.66 14.1393 124.725 13.3711ZM133.768 18.2051C131.997 18.2051 130.617 17.541 129.627 16.2129C128.644 14.8848 128.152 13.2441 128.152 11.291C128.152 9.35091 128.676 7.72982 129.725 6.42773C130.773 5.11914 132.156 4.46484 133.875 4.46484C135.607 4.46484 136.974 5.11914 137.977 6.42773C138.986 7.72982 139.49 9.36068 139.49 11.3203C139.49 13.3776 138.966 15.041 137.918 16.3105C136.876 17.5736 135.493 18.2051 133.768 18.2051ZM133.787 16.2715C134.653 16.2715 135.385 15.9134 135.984 15.1973C136.583 14.4811 136.883 13.1823 136.883 11.3008C136.883 9.77083 136.635 8.57292 136.141 7.70703C135.646 6.83464 134.878 6.39844 133.836 6.39844C131.779 6.39844 130.75 8.05534 130.75 11.3691C130.75 12.9772 131.01 14.1979 131.531 15.0312C132.059 15.8581 132.811 16.2715 133.787 16.2715ZM151.795 18H149.461L144.402 9.48438C144.324 9.35417 144.197 9.14258 144.021 8.84961C143.943 8.7194 143.823 8.51432 143.66 8.23438V18H141.727V4.66992H144.383L149.051 12.5215C149.09 12.5866 149.373 13.0651 149.9 13.957V4.66992H151.795V18ZM159.393 18H156.814V6.73047H153.27V4.66992H162.938V6.73047H159.393V18ZM174.861 18H172.293L171.229 14.8262H166.102L165.057 18H163.006L167.43 4.66992H170.389L174.861 18ZM170.584 12.9023L168.641 6.95508L166.697 12.9023H170.584ZM183.924 13.3711L186.15 13.6152C186.007 14.9499 185.49 16.0501 184.598 16.916C183.712 17.7754 182.547 18.2051 181.102 18.2051C179.884 18.2051 178.895 17.8991 178.133 17.2871C177.378 16.6751 176.795 15.8451 176.385 14.7969C175.975 13.7487 175.77 12.5931 175.77 11.3301C175.77 9.29883 176.251 7.64844 177.215 6.37891C178.178 5.10286 179.503 4.46484 181.189 4.46484C182.511 4.46484 183.611 4.87174 184.49 5.68555C185.369 6.49935 185.923 7.66471 186.15 9.18164L183.924 9.41602C183.514 7.4043 182.609 6.39844 181.209 6.39844C180.311 6.39844 179.611 6.81836 179.109 7.6582C178.615 8.49154 178.367 9.70247 178.367 11.291C178.367 12.9056 178.634 14.1263 179.168 14.9531C179.702 15.7734 180.408 16.1836 181.287 16.1836C181.99 16.1836 182.589 15.9069 183.084 15.3535C183.579 14.8001 183.859 14.1393 183.924 13.3711ZM192.713 18H190.135V6.73047H186.59V4.66992H196.258V6.73047H192.713V18ZM200.125 18H197.723V4.66992H200.125V18ZM213.123 18H210.789L205.73 9.48438C205.652 9.35417 205.525 9.14258 205.35 8.84961C205.271 8.7194 205.151 8.51432 204.988 8.23438V18H203.055V4.66992H205.711L210.379 12.5215C210.418 12.5866 210.701 13.0651 211.229 13.957V4.66992H213.123V18ZM226.18 11.1836V18H225.115L224.383 16.2031C223.608 17.5378 222.407 18.2051 220.779 18.2051C218.963 18.2051 217.605 17.515 216.707 16.1348C215.815 14.7546 215.369 13.1562 215.369 11.3398C215.369 9.41927 215.867 7.79492 216.863 6.4668C217.866 5.13216 219.266 4.46484 221.062 4.46484C222.404 4.46484 223.507 4.85547 224.373 5.63672C225.239 6.41146 225.786 7.37826 226.014 8.53711L223.924 8.9082C223.533 7.2806 222.599 6.4668 221.121 6.4668C220.177 6.4668 219.406 6.85091 218.807 7.61914C218.214 8.38737 217.918 9.56901 217.918 11.1641C217.918 14.5299 218.973 16.2129 221.082 16.2129C221.902 16.2129 222.579 15.9297 223.113 15.3633C223.654 14.7969 223.924 14.0482 223.924 13.1172H221.17V11.1836H226.18ZM236.316 18H233.914V4.66992H239.373C240.929 4.66992 242.081 5.0638 242.83 5.85156C243.585 6.63281 243.963 7.55729 243.963 8.625C243.963 9.84245 243.556 10.8288 242.742 11.584C241.928 12.3392 240.896 12.7168 239.646 12.7168H236.316V18ZM236.316 10.6562H239.158C239.9 10.6562 240.467 10.474 240.857 10.1094C241.248 9.74479 241.443 9.25977 241.443 8.6543C241.443 8.10742 241.261 7.63867 240.896 7.24805C240.538 6.85742 239.887 6.66211 238.943 6.66211H236.316V10.6562ZM256.297 18H253.758L251.688 12.5215H248.309V18H245.906V4.66992H251.688C253.296 4.66992 254.477 5.03451 255.232 5.76367C255.988 6.48633 256.365 7.42383 256.365 8.57617C256.365 10.2884 255.564 11.4668 253.963 12.1113L256.297 18ZM248.309 10.5977H251.297C252.163 10.5977 252.807 10.4154 253.23 10.0508C253.654 9.6862 253.865 9.1849 253.865 8.54688C253.865 7.96094 253.657 7.48893 253.24 7.13086C252.824 6.76628 252.241 6.58398 251.492 6.58398H248.309V10.5977ZM263.67 18.2051C261.899 18.2051 260.519 17.541 259.529 16.2129C258.546 14.8848 258.055 13.2441 258.055 11.291C258.055 9.35091 258.579 7.72982 259.627 6.42773C260.675 5.11914 262.059 4.46484 263.777 4.46484C265.509 4.46484 266.876 5.11914 267.879 6.42773C268.888 7.72982 269.393 9.36068 269.393 11.3203C269.393 13.3776 268.868 15.041 267.82 16.3105C266.779 17.5736 265.395 18.2051 263.67 18.2051ZM263.689 16.2715C264.555 16.2715 265.288 15.9134 265.887 15.1973C266.486 14.4811 266.785 13.1823 266.785 11.3008C266.785 9.77083 266.538 8.57292 266.043 7.70703C265.548 6.83464 264.78 6.39844 263.738 6.39844C261.681 6.39844 260.652 8.05534 260.652 11.3691C260.652 12.9772 260.913 14.1979 261.434 15.0312C261.961 15.8581 262.713 16.2715 263.689 16.2715ZM270.232 14.7871L272.566 14.2891C272.846 15.6107 273.921 16.2715 275.789 16.2715C276.642 16.2715 277.296 16.1022 277.752 15.7637C278.214 15.4251 278.445 15.0052 278.445 14.5039C278.445 14.1393 278.341 13.804 278.133 13.498C277.924 13.1855 277.479 12.9414 276.795 12.7656L274.246 12.1016C273.374 11.8737 272.729 11.6165 272.312 11.3301C271.896 11.0371 271.561 10.627 271.307 10.0996C271.059 9.57227 270.936 9.00911 270.936 8.41016C270.936 7.21875 271.378 6.26497 272.264 5.54883C273.149 4.82617 274.282 4.46484 275.662 4.46484C276.808 4.46484 277.83 4.71549 278.729 5.2168C279.633 5.7181 280.21 6.42773 280.457 7.3457L278.172 7.91211C277.82 6.90299 277 6.39844 275.711 6.39844C274.962 6.39844 274.389 6.55469 273.992 6.86719C273.602 7.17969 273.406 7.57682 273.406 8.05859C273.406 8.82031 274.025 9.35417 275.262 9.66016L277.527 10.2266C278.901 10.5716 279.822 11.0827 280.291 11.7598C280.76 12.4303 280.994 13.1725 280.994 13.9863C280.994 15.2949 280.499 16.3268 279.51 17.082C278.527 17.8307 277.251 18.2051 275.682 18.2051C274.36 18.2051 273.201 17.9284 272.205 17.375C271.215 16.8216 270.558 15.959 270.232 14.7871ZM285.457 18H283.055V4.66992H288.514C290.07 4.66992 291.222 5.0638 291.971 5.85156C292.726 6.63281 293.104 7.55729 293.104 8.625C293.104 9.84245 292.697 10.8288 291.883 11.584C291.069 12.3392 290.037 12.7168 288.787 12.7168H285.457V18ZM285.457 10.6562H288.299C289.041 10.6562 289.607 10.474 289.998 10.1094C290.389 9.74479 290.584 9.25977 290.584 8.6543C290.584 8.10742 290.402 7.63867 290.037 7.24805C289.679 6.85742 289.028 6.66211 288.084 6.66211H285.457V10.6562ZM303.709 18H295.047V4.66992H303.621V6.65234H297.449V10.2656H302.41V12.1992H297.449V15.9297H303.709V18ZM313.24 13.3711L315.467 13.6152C315.324 14.9499 314.806 16.0501 313.914 16.916C313.029 17.7754 311.863 18.2051 310.418 18.2051C309.201 18.2051 308.211 17.8991 307.449 17.2871C306.694 16.6751 306.111 15.8451 305.701 14.7969C305.291 13.7487 305.086 12.5931 305.086 11.3301C305.086 9.29883 305.568 7.64844 306.531 6.37891C307.495 5.10286 308.82 4.46484 310.506 4.46484C311.827 4.46484 312.928 4.87174 313.807 5.68555C314.686 6.49935 315.239 7.66471 315.467 9.18164L313.24 9.41602C312.83 7.4043 311.925 6.39844 310.525 6.39844C309.627 6.39844 308.927 6.81836 308.426 7.6582C307.931 8.49154 307.684 9.70247 307.684 11.291C307.684 12.9056 307.951 14.1263 308.484 14.9531C309.018 15.7734 309.725 16.1836 310.604 16.1836C311.307 16.1836 311.906 15.9069 312.4 15.3535C312.895 14.8001 313.175 14.1393 313.24 13.3711ZM322.029 18H319.451V6.73047H315.906V4.66992H325.574V6.73047H322.029V18ZM325.643 14.7871L327.977 14.2891C328.257 15.6107 329.331 16.2715 331.199 16.2715C332.052 16.2715 332.706 16.1022 333.162 15.7637C333.624 15.4251 333.855 15.0052 333.855 14.5039C333.855 14.1393 333.751 13.804 333.543 13.498C333.335 13.1855 332.889 12.9414 332.205 12.7656L329.656 12.1016C328.784 11.8737 328.139 11.6165 327.723 11.3301C327.306 11.0371 326.971 10.627 326.717 10.0996C326.469 9.57227 326.346 9.00911 326.346 8.41016C326.346 7.21875 326.788 6.26497 327.674 5.54883C328.559 4.82617 329.692 4.46484 331.072 4.46484C332.218 4.46484 333.24 4.71549 334.139 5.2168C335.044 5.7181 335.62 6.42773 335.867 7.3457L333.582 7.91211C333.23 6.90299 332.41 6.39844 331.121 6.39844C330.372 6.39844 329.799 6.55469 329.402 6.86719C329.012 7.17969 328.816 7.57682 328.816 8.05859C328.816 8.82031 329.435 9.35417 330.672 9.66016L332.938 10.2266C334.311 10.5716 335.232 11.0827 335.701 11.7598C336.17 12.4303 336.404 13.1725 336.404 13.9863C336.404 15.2949 335.91 16.3268 334.92 17.082C333.937 17.8307 332.661 18.2051 331.092 18.2051C329.77 18.2051 328.611 17.9284 327.615 17.375C326.626 16.8216 325.968 15.959 325.643 14.7871Z" fill="#0040C5"/>
<path d="M253.553 197.713V199.725C252.785 199.783 252.329 199.812 252.186 199.812C250.213 199.812 249.223 198.95 249.217 197.225C248.729 197.251 248.432 197.264 248.328 197.264C246.544 197.264 245.171 196.609 244.207 195.301C243.243 193.986 242.762 192.329 242.762 190.33C242.762 188.37 243.257 186.736 244.246 185.428C245.242 184.119 246.639 183.465 248.436 183.465C249.744 183.465 250.786 183.771 251.561 184.383C252.335 184.995 252.951 185.799 253.406 186.795C253.868 187.791 254.1 188.96 254.1 190.301C254.1 193.159 253.152 195.203 251.258 196.434C250.958 196.629 250.809 196.798 250.809 196.941C250.809 197.169 250.906 197.365 251.102 197.527C251.303 197.69 251.577 197.771 251.922 197.771C252.156 197.771 252.505 197.758 252.967 197.732C253.097 197.726 253.292 197.719 253.553 197.713ZM248.367 195.252C250.451 195.252 251.492 193.611 251.492 190.33C251.492 188.585 251.212 187.329 250.652 186.561C250.099 185.786 249.367 185.398 248.455 185.398C246.391 185.398 245.359 187.085 245.359 190.457C245.359 193.654 246.362 195.252 248.367 195.252ZM265.486 183.67V192.234C265.486 193.393 265.356 194.285 265.096 194.91C264.835 195.535 264.331 196.076 263.582 196.531C262.84 196.98 261.932 197.205 260.857 197.205C259.77 197.205 258.875 197.01 258.172 196.619C257.475 196.229 256.974 195.695 256.668 195.018C256.362 194.334 256.209 193.465 256.209 192.41V183.67H258.66V192.234C258.66 193.406 258.904 194.178 259.393 194.549C259.887 194.913 260.46 195.096 261.111 195.096C261.86 195.096 262.459 194.9 262.908 194.51C263.357 194.113 263.582 193.354 263.582 192.234V183.67H265.486ZM278.689 197H276.121L275.057 193.826H269.93L268.885 197H266.834L271.258 183.67H274.217L278.689 197ZM274.412 191.902L272.469 185.955L270.525 191.902H274.412ZM288.504 197H280.301V183.67H282.83V194.822H288.504V197ZM292.684 197H290.281V183.67H292.684V197ZM298.084 197H295.613V183.67H304.041V185.73H298.084V189.373H302.771V191.375H298.084V197ZM311.131 197H308.582V191.375L304.041 183.67H306.951L310.115 189.168L313.143 183.67H315.447L311.131 191.375V197ZM319.051 197H316.648V183.67H319.051V197ZM332.049 197H329.715L324.656 188.484C324.578 188.354 324.451 188.143 324.275 187.85C324.197 187.719 324.077 187.514 323.914 187.234V197H321.98V183.67H324.637L329.305 191.521C329.344 191.587 329.627 192.065 330.154 192.957V183.67H332.049V197ZM345.105 190.184V197H344.041L343.309 195.203C342.534 196.538 341.333 197.205 339.705 197.205C337.889 197.205 336.531 196.515 335.633 195.135C334.741 193.755 334.295 192.156 334.295 190.34C334.295 188.419 334.793 186.795 335.789 185.467C336.792 184.132 338.191 183.465 339.988 183.465C341.329 183.465 342.433 183.855 343.299 184.637C344.165 185.411 344.712 186.378 344.939 187.537L342.85 187.908C342.459 186.281 341.525 185.467 340.047 185.467C339.103 185.467 338.331 185.851 337.732 186.619C337.14 187.387 336.844 188.569 336.844 190.164C336.844 193.53 337.898 195.213 340.008 195.213C340.828 195.213 341.505 194.93 342.039 194.363C342.579 193.797 342.85 193.048 342.85 192.117H340.096V190.184H345.105ZM358.201 197H355.652V191.375L351.111 183.67H354.021L357.186 189.168L360.213 183.67H362.518L358.201 191.375V197ZM368.631 197.205C366.86 197.205 365.48 196.541 364.49 195.213C363.507 193.885 363.016 192.244 363.016 190.291C363.016 188.351 363.54 186.73 364.588 185.428C365.636 184.119 367.02 183.465 368.738 183.465C370.47 183.465 371.837 184.119 372.84 185.428C373.849 186.73 374.354 188.361 374.354 190.32C374.354 192.378 373.829 194.041 372.781 195.311C371.74 196.574 370.356 197.205 368.631 197.205ZM368.65 195.271C369.516 195.271 370.249 194.913 370.848 194.197C371.447 193.481 371.746 192.182 371.746 190.301C371.746 188.771 371.499 187.573 371.004 186.707C370.509 185.835 369.741 185.398 368.699 185.398C366.642 185.398 365.613 187.055 365.613 190.369C365.613 191.977 365.874 193.198 366.395 194.031C366.922 194.858 367.674 195.271 368.65 195.271ZM385.74 183.67V192.234C385.74 193.393 385.61 194.285 385.35 194.91C385.089 195.535 384.585 196.076 383.836 196.531C383.094 196.98 382.186 197.205 381.111 197.205C380.024 197.205 379.129 197.01 378.426 196.619C377.729 196.229 377.228 195.695 376.922 195.018C376.616 194.334 376.463 193.465 376.463 192.41V183.67H378.914V192.234C378.914 193.406 379.158 194.178 379.646 194.549C380.141 194.913 380.714 195.096 381.365 195.096C382.114 195.096 382.713 194.9 383.162 194.51C383.611 194.113 383.836 193.354 383.836 192.234V183.67H385.74ZM398.875 197H396.336L394.266 191.521H390.887V197H388.484V183.67H394.266C395.874 183.67 397.055 184.035 397.811 184.764C398.566 185.486 398.943 186.424 398.943 187.576C398.943 189.288 398.143 190.467 396.541 191.111L398.875 197ZM390.887 189.598H393.875C394.741 189.598 395.385 189.415 395.809 189.051C396.232 188.686 396.443 188.185 396.443 187.547C396.443 186.961 396.235 186.489 395.818 186.131C395.402 185.766 394.819 185.584 394.07 185.584H390.887V189.598ZM406.336 197V183.67H411.531C412.41 183.67 413.139 183.761 413.719 183.943C414.298 184.126 414.799 184.507 415.223 185.086C415.646 185.665 415.857 186.346 415.857 187.127C415.857 187.863 415.643 188.504 415.213 189.051C414.783 189.591 414.191 189.936 413.436 190.086C414.373 190.249 415.083 190.63 415.564 191.229C416.046 191.827 416.287 192.537 416.287 193.357C416.287 194.386 415.949 195.252 415.271 195.955C414.601 196.652 413.566 197 412.166 197H406.336ZM408.611 189.266H411.541C412.14 189.266 412.612 189.087 412.957 188.729C413.309 188.37 413.484 187.915 413.484 187.361C413.484 186.749 413.286 186.3 412.889 186.014C412.492 185.721 412.026 185.574 411.492 185.574H408.611V189.266ZM408.611 194.998H411.717C412.374 194.998 412.892 194.826 413.27 194.48C413.654 194.135 413.846 193.67 413.846 193.084C413.846 192.524 413.65 192.065 413.26 191.707C412.876 191.349 412.365 191.17 411.727 191.17H408.611V194.998ZM427.635 183.67V192.234C427.635 193.393 427.505 194.285 427.244 194.91C426.984 195.535 426.479 196.076 425.73 196.531C424.988 196.98 424.08 197.205 423.006 197.205C421.919 197.205 421.023 197.01 420.32 196.619C419.624 196.229 419.122 195.695 418.816 195.018C418.51 194.334 418.357 193.465 418.357 192.41V183.67H420.809V192.234C420.809 193.406 421.053 194.178 421.541 194.549C422.036 194.913 422.609 195.096 423.26 195.096C424.008 195.096 424.607 194.9 425.057 194.51C425.506 194.113 425.73 193.354 425.73 192.234V183.67H427.635ZM435.74 197H433.191V191.375L428.65 183.67H431.561L434.725 189.168L437.752 183.67H440.057L435.74 191.375V197ZM449.92 197H441.258V183.67H449.832V185.652H443.66V189.266H448.621V191.199H443.66V194.93H449.92V197ZM462.391 197H459.852L457.781 191.521H454.402V197H452V183.67H457.781C459.389 183.67 460.571 184.035 461.326 184.764C462.081 185.486 462.459 186.424 462.459 187.576C462.459 189.288 461.658 190.467 460.057 191.111L462.391 197ZM454.402 189.598H457.391C458.257 189.598 458.901 189.415 459.324 189.051C459.747 188.686 459.959 188.185 459.959 187.547C459.959 186.961 459.751 186.489 459.334 186.131C458.917 185.766 458.335 185.584 457.586 185.584H454.402V189.598Z" fill="#0040C5"/>
<path d="M391.551 18H389.148V4.66992H394.607C396.163 4.66992 397.316 5.0638 398.064 5.85156C398.82 6.63281 399.197 7.55729 399.197 8.625C399.197 9.84245 398.79 10.8288 397.977 11.584C397.163 12.3392 396.131 12.7168 394.881 12.7168H391.551V18ZM391.551 10.6562H394.393C395.135 10.6562 395.701 10.474 396.092 10.1094C396.482 9.74479 396.678 9.25977 396.678 8.6543C396.678 8.10742 396.495 7.63867 396.131 7.24805C395.773 6.85742 395.122 6.66211 394.178 6.66211H391.551V10.6562ZM403.543 18H401.141V4.66992H403.543V18ZM411.131 18H408.553V6.73047H405.008V4.66992H414.676V6.73047H411.131V18ZM423.592 13.3711L425.818 13.6152C425.675 14.9499 425.158 16.0501 424.266 16.916C423.38 17.7754 422.215 18.2051 420.77 18.2051C419.552 18.2051 418.562 17.8991 417.801 17.2871C417.046 16.6751 416.463 15.8451 416.053 14.7969C415.643 13.7487 415.438 12.5931 415.438 11.3301C415.438 9.29883 415.919 7.64844 416.883 6.37891C417.846 5.10286 419.171 4.46484 420.857 4.46484C422.179 4.46484 423.279 4.87174 424.158 5.68555C425.037 6.49935 425.59 7.66471 425.818 9.18164L423.592 9.41602C423.182 7.4043 422.277 6.39844 420.877 6.39844C419.979 6.39844 419.279 6.81836 418.777 7.6582C418.283 8.49154 418.035 9.70247 418.035 11.291C418.035 12.9056 418.302 14.1263 418.836 14.9531C419.37 15.7734 420.076 16.1836 420.955 16.1836C421.658 16.1836 422.257 15.9069 422.752 15.3535C423.247 14.8001 423.527 14.1393 423.592 13.3711ZM437.615 18H435.213V12.209H430.125V18H427.723V4.66992H430.125V10.1484H435.213V4.66992H437.615V18ZM442.957 18H440.555V4.66992H442.957V18ZM455.955 18H453.621L448.562 9.48438C448.484 9.35417 448.357 9.14258 448.182 8.84961C448.104 8.7194 447.983 8.51432 447.82 8.23438V18H445.887V4.66992H448.543L453.211 12.5215C453.25 12.5866 453.533 13.0651 454.061 13.957V4.66992H455.955V18ZM469.012 11.1836V18H467.947L467.215 16.2031C466.44 17.5378 465.239 18.2051 463.611 18.2051C461.795 18.2051 460.438 17.515 459.539 16.1348C458.647 14.7546 458.201 13.1562 458.201 11.3398C458.201 9.41927 458.699 7.79492 459.695 6.4668C460.698 5.13216 462.098 4.46484 463.895 4.46484C465.236 4.46484 466.339 4.85547 467.205 5.63672C468.071 6.41146 468.618 7.37826 468.846 8.53711L466.756 8.9082C466.365 7.2806 465.431 6.4668 463.953 6.4668C463.009 6.4668 462.238 6.85091 461.639 7.61914C461.046 8.38737 460.75 9.56901 460.75 11.1641C460.75 14.5299 461.805 16.2129 463.914 16.2129C464.734 16.2129 465.411 15.9297 465.945 15.3633C466.486 14.7969 466.756 14.0482 466.756 13.1172H464.002V11.1836H469.012ZM487.205 18H484.637L483.572 14.8262H478.445L477.4 18H475.35L479.773 4.66992H482.732L487.205 18ZM482.928 12.9023L480.984 6.95508L479.041 12.9023H482.928ZM496.219 18H493.816V4.66992H499.275C500.831 4.66992 501.984 5.0638 502.732 5.85156C503.488 6.63281 503.865 7.55729 503.865 8.625C503.865 9.84245 503.458 10.8288 502.645 11.584C501.831 12.3392 500.799 12.7168 499.549 12.7168H496.219V18ZM496.219 10.6562H499.061C499.803 10.6562 500.369 10.474 500.76 10.1094C501.15 9.74479 501.346 9.25977 501.346 8.6543C501.346 8.10742 501.163 7.63867 500.799 7.24805C500.441 6.85742 499.79 6.66211 498.846 6.66211H496.219V10.6562ZM516.199 18H513.66L511.59 12.5215H508.211V18H505.809V4.66992H511.59C513.198 4.66992 514.38 5.03451 515.135 5.76367C515.89 6.48633 516.268 7.42383 516.268 8.57617C516.268 10.2884 515.467 11.4668 513.865 12.1113L516.199 18ZM508.211 10.5977H511.199C512.065 10.5977 512.71 10.4154 513.133 10.0508C513.556 9.6862 513.768 9.1849 513.768 8.54688C513.768 7.96094 513.559 7.48893 513.143 7.13086C512.726 6.76628 512.143 6.58398 511.395 6.58398H508.211V10.5977ZM523.572 18.2051C521.801 18.2051 520.421 17.541 519.432 16.2129C518.449 14.8848 517.957 13.2441 517.957 11.291C517.957 9.35091 518.481 7.72982 519.529 6.42773C520.577 5.11914 521.961 4.46484 523.68 4.46484C525.411 4.46484 526.779 5.11914 527.781 6.42773C528.79 7.72982 529.295 9.36068 529.295 11.3203C529.295 13.3776 528.771 15.041 527.723 16.3105C526.681 17.5736 525.298 18.2051 523.572 18.2051ZM523.592 16.2715C524.458 16.2715 525.19 15.9134 525.789 15.1973C526.388 14.4811 526.688 13.1823 526.688 11.3008C526.688 9.77083 526.44 8.57292 525.945 7.70703C525.451 6.83464 524.682 6.39844 523.641 6.39844C521.583 6.39844 520.555 8.05534 520.555 11.3691C520.555 12.9772 520.815 14.1979 521.336 15.0312C521.863 15.8581 522.615 16.2715 523.592 16.2715ZM531.463 18V4.66992H536.375C538.191 4.66992 539.65 5.31445 540.75 6.60352C541.85 7.88607 542.4 9.47135 542.4 11.3594C542.4 13.2474 541.834 14.8262 540.701 16.0957C539.568 17.3652 537.947 18 535.838 18H531.463ZM533.934 16.0371H535.936C537.01 16.0371 537.921 15.6335 538.67 14.8262C539.419 14.0189 539.793 12.8177 539.793 11.2227C539.793 9.92057 539.464 8.82031 538.807 7.92188C538.156 7.01693 537.293 6.56445 536.219 6.56445H533.934V16.0371ZM553.787 4.66992V13.2344C553.787 14.3932 553.657 15.2852 553.396 15.9102C553.136 16.5352 552.632 17.0755 551.883 17.5312C551.141 17.9805 550.232 18.2051 549.158 18.2051C548.071 18.2051 547.176 18.0098 546.473 17.6191C545.776 17.2285 545.275 16.6947 544.969 16.0176C544.663 15.334 544.51 14.4648 544.51 13.4102V4.66992H546.961V13.2344C546.961 14.4062 547.205 15.1777 547.693 15.5488C548.188 15.9134 548.761 16.0957 549.412 16.0957C550.161 16.0957 550.76 15.9004 551.209 15.5098C551.658 15.1126 551.883 14.3542 551.883 13.2344V4.66992H553.787ZM563.982 13.3711L566.209 13.6152C566.066 14.9499 565.548 16.0501 564.656 16.916C563.771 17.7754 562.605 18.2051 561.16 18.2051C559.943 18.2051 558.953 17.8991 558.191 17.2871C557.436 16.6751 556.854 15.8451 556.443 14.7969C556.033 13.7487 555.828 12.5931 555.828 11.3301C555.828 9.29883 556.31 7.64844 557.273 6.37891C558.237 5.10286 559.562 4.46484 561.248 4.46484C562.57 4.46484 563.67 4.87174 564.549 5.68555C565.428 6.49935 565.981 7.66471 566.209 9.18164L563.982 9.41602C563.572 7.4043 562.667 6.39844 561.268 6.39844C560.369 6.39844 559.669 6.81836 559.168 7.6582C558.673 8.49154 558.426 9.70247 558.426 11.291C558.426 12.9056 558.693 14.1263 559.227 14.9531C559.76 15.7734 560.467 16.1836 561.346 16.1836C562.049 16.1836 562.648 15.9069 563.143 15.3535C563.637 14.8001 563.917 14.1393 563.982 13.3711ZM572.771 18H570.193V6.73047H566.648V4.66992H576.316V6.73047H572.771V18ZM430.555 41.2051C428.784 41.2051 427.404 40.541 426.414 39.2129C425.431 37.8848 424.939 36.2441 424.939 34.291C424.939 32.3509 425.464 30.7298 426.512 29.4277C427.56 28.1191 428.943 27.4648 430.662 27.4648C432.394 27.4648 433.761 28.1191 434.764 29.4277C435.773 30.7298 436.277 32.3607 436.277 34.3203C436.277 36.3776 435.753 38.041 434.705 39.3105C433.663 40.5736 432.28 41.2051 430.555 41.2051ZM430.574 39.2715C431.44 39.2715 432.173 38.9134 432.771 38.1973C433.37 37.4811 433.67 36.1823 433.67 34.3008C433.67 32.7708 433.423 31.5729 432.928 30.707C432.433 29.8346 431.665 29.3984 430.623 29.3984C428.566 29.3984 427.537 31.0553 427.537 34.3691C427.537 35.9772 427.798 37.1979 428.318 38.0312C428.846 38.8581 429.598 39.2715 430.574 39.2715ZM448.904 41H446.365L444.295 35.5215H440.916V41H438.514V27.6699H444.295C445.903 27.6699 447.085 28.0345 447.84 28.7637C448.595 29.4863 448.973 30.4238 448.973 31.5762C448.973 33.2884 448.172 34.4668 446.57 35.1113L448.904 41ZM440.916 33.5977H443.904C444.77 33.5977 445.415 33.4154 445.838 33.0508C446.261 32.6862 446.473 32.1849 446.473 31.5469C446.473 30.9609 446.264 30.4889 445.848 30.1309C445.431 29.7663 444.848 29.584 444.1 29.584H440.916V33.5977ZM454.969 37.7871L457.303 37.2891C457.583 38.6107 458.657 39.2715 460.525 39.2715C461.378 39.2715 462.033 39.1022 462.488 38.7637C462.951 38.4251 463.182 38.0052 463.182 37.5039C463.182 37.1393 463.077 36.804 462.869 36.498C462.661 36.1855 462.215 35.9414 461.531 35.7656L458.982 35.1016C458.11 34.8737 457.465 34.6165 457.049 34.3301C456.632 34.0371 456.297 33.627 456.043 33.0996C455.796 32.5723 455.672 32.0091 455.672 31.4102C455.672 30.2188 456.115 29.265 457 28.5488C457.885 27.8262 459.018 27.4648 460.398 27.4648C461.544 27.4648 462.566 27.7155 463.465 28.2168C464.37 28.7181 464.946 29.4277 465.193 30.3457L462.908 30.9121C462.557 29.903 461.736 29.3984 460.447 29.3984C459.699 29.3984 459.126 29.5547 458.729 29.8672C458.338 30.1797 458.143 30.5768 458.143 31.0586C458.143 31.8203 458.761 32.3542 459.998 32.6602L462.264 33.2266C463.637 33.5716 464.559 34.0827 465.027 34.7598C465.496 35.4303 465.73 36.1725 465.73 36.9863C465.73 38.2949 465.236 39.3268 464.246 40.082C463.263 40.8307 461.987 41.2051 460.418 41.2051C459.096 41.2051 457.938 40.9284 456.941 40.375C455.952 39.8216 455.294 38.959 454.969 37.7871ZM476.453 41H467.791V27.6699H476.365V29.6523H470.193V33.2656H475.154V35.1992H470.193V38.9297H476.453V41ZM488.924 41H486.385L484.314 35.5215H480.936V41H478.533V27.6699H484.314C485.923 27.6699 487.104 28.0345 487.859 28.7637C488.615 29.4863 488.992 30.4238 488.992 31.5762C488.992 33.2884 488.191 34.4668 486.59 35.1113L488.924 41ZM480.936 33.5977H483.924C484.79 33.5977 485.434 33.4154 485.857 33.0508C486.281 32.6862 486.492 32.1849 486.492 31.5469C486.492 30.9609 486.284 30.4889 485.867 30.1309C485.451 29.7663 484.868 29.584 484.119 29.584H480.936V33.5977ZM496.512 41H494.07L489.959 27.6699H492.498L495.555 37.8848L498.68 27.6699H500.682L496.512 41ZM504.607 41H502.205V27.6699H504.607V41ZM514.988 36.3711L517.215 36.6152C517.072 37.9499 516.554 39.0501 515.662 39.916C514.777 40.7754 513.611 41.2051 512.166 41.2051C510.949 41.2051 509.959 40.8991 509.197 40.2871C508.442 39.6751 507.859 38.8451 507.449 37.7969C507.039 36.7487 506.834 35.5931 506.834 34.3301C506.834 32.2988 507.316 30.6484 508.279 29.3789C509.243 28.1029 510.568 27.4648 512.254 27.4648C513.576 27.4648 514.676 27.8717 515.555 28.6855C516.434 29.4993 516.987 30.6647 517.215 32.1816L514.988 32.416C514.578 30.4043 513.673 29.3984 512.273 29.3984C511.375 29.3984 510.675 29.8184 510.174 30.6582C509.679 31.4915 509.432 32.7025 509.432 34.291C509.432 35.9056 509.699 37.1263 510.232 37.9531C510.766 38.7734 511.473 39.1836 512.352 39.1836C513.055 39.1836 513.654 38.9069 514.148 38.3535C514.643 37.8001 514.923 37.1393 514.988 36.3711ZM527.781 41H519.119V27.6699H527.693V29.6523H521.521V33.2656H526.482V35.1992H521.521V38.9297H527.781V41ZM528.465 37.7871L530.799 37.2891C531.079 38.6107 532.153 39.2715 534.021 39.2715C534.874 39.2715 535.529 39.1022 535.984 38.7637C536.447 38.4251 536.678 38.0052 536.678 37.5039C536.678 37.1393 536.574 36.804 536.365 36.498C536.157 36.1855 535.711 35.9414 535.027 35.7656L532.479 35.1016C531.606 34.8737 530.962 34.6165 530.545 34.3301C530.128 34.0371 529.793 33.627 529.539 33.0996C529.292 32.5723 529.168 32.0091 529.168 31.4102C529.168 30.2188 529.611 29.265 530.496 28.5488C531.382 27.8262 532.514 27.4648 533.895 27.4648C535.04 27.4648 536.062 27.7155 536.961 28.2168C537.866 28.7181 538.442 29.4277 538.689 30.3457L536.404 30.9121C536.053 29.903 535.232 29.3984 533.943 29.3984C533.195 29.3984 532.622 29.5547 532.225 29.8672C531.834 30.1797 531.639 30.5768 531.639 31.0586C531.639 31.8203 532.257 32.3542 533.494 32.6602L535.76 33.2266C537.133 33.5716 538.055 34.0827 538.523 34.7598C538.992 35.4303 539.227 36.1725 539.227 36.9863C539.227 38.2949 538.732 39.3268 537.742 40.082C536.759 40.8307 535.483 41.2051 533.914 41.2051C532.592 41.2051 531.434 40.9284 530.438 40.375C529.448 39.8216 528.79 38.959 528.465 37.7871Z" fill="#0040C5"/>
<path d="M519.357 197H516.955V191.209H511.867V197H509.465V183.67H511.867V189.148H516.955V183.67H519.357V197ZM532.756 197H530.188L529.123 193.826H523.996L522.951 197H520.9L525.324 183.67H528.283L532.756 197ZM528.479 191.902L526.535 185.955L524.592 191.902H528.479ZM544.436 197H542.102L537.043 188.484C536.965 188.354 536.838 188.143 536.662 187.85C536.584 187.719 536.464 187.514 536.301 187.234V197H534.367V183.67H537.023L541.691 191.521C541.73 191.587 542.014 192.065 542.541 192.957V183.67H544.436V197ZM547.307 197V183.67H552.219C554.035 183.67 555.493 184.314 556.594 185.604C557.694 186.886 558.244 188.471 558.244 190.359C558.244 192.247 557.678 193.826 556.545 195.096C555.412 196.365 553.791 197 551.682 197H547.307ZM549.777 195.037H551.779C552.854 195.037 553.765 194.633 554.514 193.826C555.262 193.019 555.637 191.818 555.637 190.223C555.637 188.921 555.308 187.82 554.65 186.922C553.999 186.017 553.137 185.564 552.062 185.564H549.777V195.037ZM568.684 197H560.48V183.67H563.01V194.822H568.684V197ZM572.863 197H570.461V183.67H572.863V197ZM585.861 197H583.527L578.469 188.484C578.391 188.354 578.264 188.143 578.088 187.85C578.01 187.719 577.889 187.514 577.727 187.234V197H575.793V183.67H578.449L583.117 191.521C583.156 191.587 583.439 192.065 583.967 192.957V183.67H585.861V197ZM598.918 190.184V197H597.854L597.121 195.203C596.346 196.538 595.145 197.205 593.518 197.205C591.701 197.205 590.344 196.515 589.445 195.135C588.553 193.755 588.107 192.156 588.107 190.34C588.107 188.419 588.605 186.795 589.602 185.467C590.604 184.132 592.004 183.465 593.801 183.465C595.142 183.465 596.245 183.855 597.111 184.637C597.977 185.411 598.524 186.378 598.752 187.537L596.662 187.908C596.271 186.281 595.337 185.467 593.859 185.467C592.915 185.467 592.144 185.851 591.545 186.619C590.952 187.387 590.656 188.569 590.656 190.164C590.656 193.53 591.711 195.213 593.82 195.213C594.641 195.213 595.318 194.93 595.852 194.363C596.392 193.797 596.662 193.048 596.662 192.117H593.908V190.184H598.918ZM611.564 197.205C609.794 197.205 608.413 196.541 607.424 195.213C606.441 193.885 605.949 192.244 605.949 190.291C605.949 188.351 606.473 186.73 607.521 185.428C608.57 184.119 609.953 183.465 611.672 183.465C613.404 183.465 614.771 184.119 615.773 185.428C616.783 186.73 617.287 188.361 617.287 190.32C617.287 192.378 616.763 194.041 615.715 195.311C614.673 196.574 613.29 197.205 611.564 197.205ZM611.584 195.271C612.45 195.271 613.182 194.913 613.781 194.197C614.38 193.481 614.68 192.182 614.68 190.301C614.68 188.771 614.432 187.573 613.938 186.707C613.443 185.835 612.674 185.398 611.633 185.398C609.576 185.398 608.547 187.055 608.547 190.369C608.547 191.977 608.807 193.198 609.328 194.031C609.855 194.858 610.607 195.271 611.584 195.271ZM619.523 197V183.67H624.719C625.598 183.67 626.327 183.761 626.906 183.943C627.486 184.126 627.987 184.507 628.41 185.086C628.833 185.665 629.045 186.346 629.045 187.127C629.045 187.863 628.83 188.504 628.4 189.051C627.971 189.591 627.378 189.936 626.623 190.086C627.561 190.249 628.27 190.63 628.752 191.229C629.234 191.827 629.475 192.537 629.475 193.357C629.475 194.386 629.136 195.252 628.459 195.955C627.788 196.652 626.753 197 625.354 197H619.523ZM621.799 189.266H624.729C625.327 189.266 625.799 189.087 626.145 188.729C626.496 188.37 626.672 187.915 626.672 187.361C626.672 186.749 626.473 186.3 626.076 186.014C625.679 185.721 625.214 185.574 624.68 185.574H621.799V189.266ZM621.799 194.998H624.904C625.562 194.998 626.079 194.826 626.457 194.48C626.841 194.135 627.033 193.67 627.033 193.084C627.033 192.524 626.838 192.065 626.447 191.707C626.063 191.349 625.552 191.17 624.914 191.17H621.799V194.998ZM636.301 183.67V192.869C636.301 194.399 635.969 195.506 635.305 196.189C634.647 196.867 633.596 197.205 632.15 197.205C631.317 197.205 630.669 197.137 630.207 197V195.066C630.936 195.118 631.451 195.145 631.75 195.145C632.551 195.145 633.098 194.995 633.391 194.695C633.684 194.396 633.83 193.787 633.83 192.869V183.67H636.301ZM647.775 197H639.113V183.67H647.688V185.652H641.516V189.266H646.477V191.199H641.516V194.93H647.775V197ZM657.307 192.371L659.533 192.615C659.39 193.95 658.872 195.05 657.98 195.916C657.095 196.775 655.93 197.205 654.484 197.205C653.267 197.205 652.277 196.899 651.516 196.287C650.76 195.675 650.178 194.845 649.768 193.797C649.357 192.749 649.152 191.593 649.152 190.33C649.152 188.299 649.634 186.648 650.598 185.379C651.561 184.103 652.886 183.465 654.572 183.465C655.894 183.465 656.994 183.872 657.873 184.686C658.752 185.499 659.305 186.665 659.533 188.182L657.307 188.416C656.896 186.404 655.992 185.398 654.592 185.398C653.693 185.398 652.993 185.818 652.492 186.658C651.997 187.492 651.75 188.702 651.75 190.291C651.75 191.906 652.017 193.126 652.551 193.953C653.085 194.773 653.791 195.184 654.67 195.184C655.373 195.184 655.972 194.907 656.467 194.354C656.962 193.8 657.242 193.139 657.307 192.371ZM666.096 197H663.518V185.73H659.973V183.67H669.641V185.73H666.096V197ZM673.508 197H671.105V183.67H673.508V197ZM681.35 197.205C679.579 197.205 678.199 196.541 677.209 195.213C676.226 193.885 675.734 192.244 675.734 190.291C675.734 188.351 676.258 186.73 677.307 185.428C678.355 184.119 679.738 183.465 681.457 183.465C683.189 183.465 684.556 184.119 685.559 185.428C686.568 186.73 687.072 188.361 687.072 190.32C687.072 192.378 686.548 194.041 685.5 195.311C684.458 196.574 683.075 197.205 681.35 197.205ZM681.369 195.271C682.235 195.271 682.967 194.913 683.566 194.197C684.165 193.481 684.465 192.182 684.465 190.301C684.465 188.771 684.217 187.573 683.723 186.707C683.228 185.835 682.46 185.398 681.418 185.398C679.361 185.398 678.332 187.055 678.332 190.369C678.332 191.977 678.592 193.198 679.113 194.031C679.641 194.858 680.393 195.271 681.369 195.271ZM699.377 197H697.043L691.984 188.484C691.906 188.354 691.779 188.143 691.604 187.85C691.525 187.719 691.405 187.514 691.242 187.234V197H689.309V183.67H691.965L696.633 191.521C696.672 191.587 696.955 192.065 697.482 192.957V183.67H699.377V197ZM700.92 193.787L703.254 193.289C703.534 194.611 704.608 195.271 706.477 195.271C707.329 195.271 707.984 195.102 708.439 194.764C708.902 194.425 709.133 194.005 709.133 193.504C709.133 193.139 709.029 192.804 708.82 192.498C708.612 192.186 708.166 191.941 707.482 191.766L704.934 191.102C704.061 190.874 703.417 190.617 703 190.33C702.583 190.037 702.248 189.627 701.994 189.1C701.747 188.572 701.623 188.009 701.623 187.41C701.623 186.219 702.066 185.265 702.951 184.549C703.837 183.826 704.969 183.465 706.35 183.465C707.495 183.465 708.518 183.715 709.416 184.217C710.321 184.718 710.897 185.428 711.145 186.346L708.859 186.912C708.508 185.903 707.688 185.398 706.398 185.398C705.65 185.398 705.077 185.555 704.68 185.867C704.289 186.18 704.094 186.577 704.094 187.059C704.094 187.82 704.712 188.354 705.949 188.66L708.215 189.227C709.589 189.572 710.51 190.083 710.979 190.76C711.447 191.43 711.682 192.173 711.682 192.986C711.682 194.295 711.187 195.327 710.197 196.082C709.214 196.831 707.938 197.205 706.369 197.205C705.048 197.205 703.889 196.928 702.893 196.375C701.903 195.822 701.245 194.959 700.92 193.787Z" fill="#0040C5"/>
<path d="M690.533 18H688.199L683.141 9.48438C683.062 9.35417 682.936 9.14258 682.76 8.84961C682.682 8.7194 682.561 8.51432 682.398 8.23438V18H680.465V4.66992H683.121L687.789 12.5215C687.828 12.5866 688.111 13.0651 688.639 13.957V4.66992H690.533V18ZM702.135 18H693.473V4.66992H702.047V6.65234H695.875V10.2656H700.836V12.1992H695.875V15.9297H702.135V18ZM714.332 11.1836V18H713.268L712.535 16.2031C711.76 17.5378 710.559 18.2051 708.932 18.2051C707.115 18.2051 705.758 17.515 704.859 16.1348C703.967 14.7546 703.521 13.1562 703.521 11.3398C703.521 9.41927 704.02 7.79492 705.016 6.4668C706.018 5.13216 707.418 4.46484 709.215 4.46484C710.556 4.46484 711.66 4.85547 712.525 5.63672C713.391 6.41146 713.938 7.37826 714.166 8.53711L712.076 8.9082C711.686 7.2806 710.751 6.4668 709.273 6.4668C708.329 6.4668 707.558 6.85091 706.959 7.61914C706.367 8.38737 706.07 9.56901 706.07 11.1641C706.07 14.5299 707.125 16.2129 709.234 16.2129C710.055 16.2129 710.732 15.9297 711.266 15.3633C711.806 14.7969 712.076 14.0482 712.076 13.1172H709.322V11.1836H714.332ZM721.979 18.2051C720.208 18.2051 718.827 17.541 717.838 16.2129C716.855 14.8848 716.363 13.2441 716.363 11.291C716.363 9.35091 716.887 7.72982 717.936 6.42773C718.984 5.11914 720.367 4.46484 722.086 4.46484C723.818 4.46484 725.185 5.11914 726.188 6.42773C727.197 7.72982 727.701 9.36068 727.701 11.3203C727.701 13.3776 727.177 15.041 726.129 16.3105C725.087 17.5736 723.704 18.2051 721.979 18.2051ZM721.998 16.2715C722.864 16.2715 723.596 15.9134 724.195 15.1973C724.794 14.4811 725.094 13.1823 725.094 11.3008C725.094 9.77083 724.846 8.57292 724.352 7.70703C723.857 6.83464 723.089 6.39844 722.047 6.39844C719.99 6.39844 718.961 8.05534 718.961 11.3691C718.961 12.9772 719.221 14.1979 719.742 15.0312C720.27 15.8581 721.021 16.2715 721.998 16.2715ZM734.596 18H732.018V6.73047H728.473V4.66992H738.141V6.73047H734.596V18ZM742.008 18H739.605V4.66992H742.008V18ZM755.396 18H752.828L751.764 14.8262H746.637L745.592 18H743.541L747.965 4.66992H750.924L755.396 18ZM751.119 12.9023L749.176 6.95508L747.232 12.9023H751.119ZM761.666 18H759.088V6.73047H755.543V4.66992H765.211V6.73047H761.666V18ZM769.078 18H766.676V4.66992H769.078V18ZM782.076 18H779.742L774.684 9.48438C774.605 9.35417 774.479 9.14258 774.303 8.84961C774.225 8.7194 774.104 8.51432 773.941 8.23438V18H772.008V4.66992H774.664L779.332 12.5215C779.371 12.5866 779.654 13.0651 780.182 13.957V4.66992H782.076V18ZM795.133 11.1836V18H794.068L793.336 16.2031C792.561 17.5378 791.36 18.2051 789.732 18.2051C787.916 18.2051 786.559 17.515 785.66 16.1348C784.768 14.7546 784.322 13.1562 784.322 11.3398C784.322 9.41927 784.82 7.79492 785.816 6.4668C786.819 5.13216 788.219 4.46484 790.016 4.46484C791.357 4.46484 792.46 4.85547 793.326 5.63672C794.192 6.41146 794.739 7.37826 794.967 8.53711L792.877 8.9082C792.486 7.2806 791.552 6.4668 790.074 6.4668C789.13 6.4668 788.359 6.85091 787.76 7.61914C787.167 8.38737 786.871 9.56901 786.871 11.1641C786.871 14.5299 787.926 16.2129 790.035 16.2129C790.855 16.2129 791.533 15.9297 792.066 15.3633C792.607 14.7969 792.877 14.0482 792.877 13.1172H790.123V11.1836H795.133Z" fill="#0040C5"/>
<path d="M809.471 183.67L805.906 197H803.387L800.73 187.195L798.318 197H795.848L792.205 183.67H794.754L797.332 193.387L799.734 183.67H802.166L804.822 193.387L807.352 183.67H809.471ZM813.543 197H811.141V183.67H813.543V197ZM826.541 197H824.207L819.148 188.484C819.07 188.354 818.943 188.143 818.768 187.85C818.689 187.719 818.569 187.514 818.406 187.234V197H816.473V183.67H819.129L823.797 191.521C823.836 191.587 824.119 192.065 824.646 192.957V183.67H826.541V197ZM839.549 197H837.215L832.156 188.484C832.078 188.354 831.951 188.143 831.775 187.85C831.697 187.719 831.577 187.514 831.414 187.234V197H829.48V183.67H832.137L836.805 191.521C836.844 191.587 837.127 192.065 837.654 192.957V183.67H839.549V197ZM844.891 197H842.488V183.67H844.891V197ZM857.889 197H855.555L850.496 188.484C850.418 188.354 850.291 188.143 850.115 187.85C850.037 187.719 849.917 187.514 849.754 187.234V197H847.82V183.67H850.477L855.145 191.521C855.184 191.587 855.467 192.065 855.994 192.957V183.67H857.889V197ZM870.945 190.184V197H869.881L869.148 195.203C868.374 196.538 867.173 197.205 865.545 197.205C863.729 197.205 862.371 196.515 861.473 195.135C860.581 193.755 860.135 192.156 860.135 190.34C860.135 188.419 860.633 186.795 861.629 185.467C862.632 184.132 864.031 183.465 865.828 183.465C867.169 183.465 868.273 183.855 869.139 184.637C870.005 185.411 870.551 186.378 870.779 187.537L868.689 187.908C868.299 186.281 867.365 185.467 865.887 185.467C864.943 185.467 864.171 185.851 863.572 186.619C862.98 187.387 862.684 188.569 862.684 190.164C862.684 193.53 863.738 195.213 865.848 195.213C866.668 195.213 867.345 194.93 867.879 194.363C868.419 193.797 868.689 193.048 868.689 192.117H865.936V190.184H870.945ZM889.139 197H886.57L885.506 193.826H880.379L879.334 197H877.283L881.707 183.67H884.666L889.139 197ZM884.861 191.902L882.918 185.955L880.975 191.902H884.861ZM895.682 197V183.67H900.594C902.41 183.67 903.868 184.314 904.969 185.604C906.069 186.886 906.619 188.471 906.619 190.359C906.619 192.247 906.053 193.826 904.92 195.096C903.787 196.365 902.166 197 900.057 197H895.682ZM898.152 195.037H900.154C901.229 195.037 902.14 194.633 902.889 193.826C903.637 193.019 904.012 191.818 904.012 190.223C904.012 188.921 903.683 187.82 903.025 186.922C902.374 186.017 901.512 185.564 900.438 185.564H898.152V195.037ZM917.518 197H908.855V183.67H917.43V185.652H911.258V189.266H916.219V191.199H911.258V194.93H917.518V197ZM930.057 197H927.488L926.424 193.826H921.297L920.252 197H918.201L922.625 183.67H925.584L930.057 197ZM925.779 191.902L923.836 185.955L921.893 191.902H925.779ZM939.871 197H931.668V183.67H934.197V194.822H939.871V197Z" fill="#0040C5"/>
<defs>
<linearGradient id="paint0_linear_272_2811" x1="25" y1="101" x2="1.12994" y2="101" gradientUnits="userSpaceOnUse">
<stop stop-color="#0040C5"/>
<stop offset="1" stop-color="#0040C5" stop-opacity="0"/>
</linearGradient>
<linearGradient id="paint1_linear_272_2811" x1="939" y1="101" x2="962.87" y2="101" gradientUnits="userSpaceOnUse">
<stop stop-color="#0040C5"/>
<stop offset="1" stop-color="#0040C5" stop-opacity="0"/>
</linearGradient>
</defs>
</svg>
