<svg width="620" height="350" viewBox="0 0 620 350" fill="none" xmlns="http://www.w3.org/2000/svg">
<g filter="url(#filter0_d_120_434)">
<path d="M14 56C14 28.3858 36.3858 6 64 6H564C591.614 6 614 28.3858 614 56V249.585C614 274.489 595.672 295.597 571.014 299.09L317.597 334.995C312.89 335.661 308.111 335.654 303.407 334.971L56.8239 299.211C32.2389 295.645 14 274.57 14 249.728V56Z" fill="white"/>
</g>
<rect x="84" y="259" width="460" height="4" rx="2" fill="#EDEDED"/>
<rect x="84" y="259" width="115" height="4" rx="2" fill="#0040C5"/>
<path d="M97.6108 45.9995L94.2905 47.1104C93.8429 45.792 92.8949 45.1328 91.4463 45.1328C89.9001 45.1328 89.127 45.6333 89.127 46.6343C89.127 47.033 89.2694 47.3708 89.5542 47.6475C89.8472 47.9242 90.5023 48.1642 91.5195 48.3677C93.2204 48.7095 94.4655 49.0553 95.2549 49.4053C96.0443 49.7552 96.7075 50.3208 97.2446 51.1021C97.7899 51.8752 98.0625 52.7419 98.0625 53.7021C98.0625 55.2077 97.4806 56.5098 96.3169 57.6084C95.1613 58.707 93.4442 59.2563 91.1655 59.2563C89.4565 59.2563 87.9998 58.8698 86.7954 58.0967C85.5991 57.3154 84.8097 56.1598 84.4272 54.6299L88.0405 53.812C88.4474 55.3664 89.5786 56.1436 91.4341 56.1436C92.3293 56.1436 92.9966 55.9727 93.436 55.6309C93.8755 55.2809 94.0952 54.8659 94.0952 54.3857C94.0952 53.8975 93.8958 53.519 93.4971 53.2505C93.0983 52.9819 92.3293 52.7297 91.1899 52.4937C89.0659 52.0542 87.5522 51.4561 86.6489 50.6992C85.7456 49.9342 85.2939 48.8193 85.2939 47.3545C85.2939 45.8734 85.8311 44.6242 86.9053 43.6069C87.9876 42.5897 89.4525 42.0811 91.2998 42.0811C94.5713 42.0811 96.675 43.3872 97.6108 45.9995ZM104.374 49.5029V54.7153C104.374 55.3664 104.471 55.8018 104.667 56.0215C104.862 56.2412 105.322 56.3511 106.046 56.3511C106.38 56.3511 106.766 56.3348 107.206 56.3022V59C106.148 59.179 105.387 59.2686 104.923 59.2686C103.409 59.2686 102.335 58.9797 101.7 58.4019C101.065 57.8159 100.748 56.762 100.748 55.2402V49.5029H98.7949V46.6709H100.956L101.249 43.0332L104.374 42.7891V46.6709H107.035V49.5029H104.374ZM120.023 53.4458H112.088C112.08 53.6655 112.076 53.8568 112.076 54.0195C112.076 54.8984 112.308 55.5617 112.772 56.0093C113.244 56.4569 113.806 56.6807 114.457 56.6807C115.669 56.6807 116.397 56.0337 116.642 54.7397L119.938 54.9839C119.018 57.8322 117.15 59.2563 114.334 59.2563C113.106 59.2563 112.06 59.0122 111.197 58.5239C110.343 58.0275 109.635 57.3073 109.073 56.3633C108.52 55.4193 108.243 54.2881 108.243 52.9697C108.243 51.0085 108.801 49.4256 109.916 48.2212C111.039 47.0168 112.479 46.4146 114.237 46.4146C115.824 46.4146 117.183 46.9761 118.314 48.0991C119.453 49.214 120.023 50.9963 120.023 53.4458ZM112.076 51.334H116.458C116.345 49.6413 115.649 48.7949 114.371 48.7949C113.004 48.7949 112.239 49.6413 112.076 51.334ZM122.33 63.1626V46.6709H125.675V48.4775C126.293 47.1022 127.376 46.4146 128.922 46.4146C130.257 46.4146 131.347 46.9517 132.193 48.0259C133.048 49.092 133.475 50.6463 133.475 52.689C133.475 54.8618 133.044 56.5016 132.181 57.6084C131.327 58.707 130.212 59.2563 128.836 59.2563C127.445 59.2563 126.452 58.7152 125.858 57.6328V63.1626H122.33ZM125.858 53.6045C125.858 54.4753 125.911 55.0775 126.017 55.4111C126.122 55.7448 126.346 56.0459 126.688 56.3145C127.03 56.5749 127.4 56.7051 127.799 56.7051C128.295 56.7051 128.739 56.4528 129.129 55.9482C129.52 55.4355 129.715 54.3125 129.715 52.5791C129.715 50.1458 129.072 48.9292 127.787 48.9292C127.298 48.9292 126.855 49.1449 126.456 49.5762C126.057 50.0075 125.858 50.7399 125.858 51.7734V53.6045ZM142.093 48.9048V45.4746C144.974 44.6283 146.854 43.4971 147.733 42.0811H150.565V55.9482H155.179V59H141.678V55.9482H146.732V46.4146C144.746 47.619 143.2 48.4491 142.093 48.9048ZM160.355 50.3696H156.583V46.6709H160.355V50.3696ZM160.355 58.9878H156.583V55.228H160.355V58.9878Z" fill="#0040C5"/>
<path d="M169.374 59V43.0039H175.268C177.448 43.0039 179.198 43.7773 180.518 45.3242C181.838 46.8633 182.499 48.7656 182.499 51.0312C182.499 53.2969 181.819 55.1914 180.459 56.7148C179.1 58.2383 177.155 59 174.624 59H169.374ZM172.338 56.6445H174.741C176.03 56.6445 177.124 56.1602 178.022 55.1914C178.92 54.2227 179.37 52.7812 179.37 50.8672C179.37 49.3047 178.975 47.9844 178.186 46.9062C177.405 45.8203 176.37 45.2773 175.081 45.2773H172.338V56.6445ZM187.69 45.7812H185.018V43.0039H187.69V45.7812ZM187.69 59H185.018V47.1641H187.69V59ZM189.471 56.2812L191.979 55.8008C192.362 56.7617 193.206 57.2422 194.51 57.2422C196.167 57.2422 196.995 56.7539 196.995 55.7773C196.995 55.4648 196.866 55.207 196.608 55.0039C196.35 54.8008 196.045 54.6641 195.694 54.5938L193.538 54.1836C191.147 53.7227 189.952 52.5547 189.952 50.6797C189.952 49.6328 190.331 48.7461 191.088 48.0195C191.846 47.2852 192.975 46.918 194.475 46.918C196.975 46.918 198.502 47.8359 199.057 49.6719L196.678 50.1523C196.428 49.2617 195.717 48.8164 194.545 48.8164C193.124 48.8164 192.413 49.2617 192.413 50.1523C192.413 50.7695 192.987 51.1953 194.135 51.4297L196.678 51.957C198.655 52.3633 199.643 53.4961 199.643 55.3555C199.643 56.6602 199.135 57.6367 198.12 58.2852C197.104 58.9258 195.897 59.2461 194.499 59.2461C193.288 59.2461 192.217 59.0039 191.288 58.5195C190.358 58.0273 189.752 57.2812 189.471 56.2812ZM208.643 54.6523L210.94 54.8867C210.643 56.3711 210.069 57.4688 209.217 58.1797C208.366 58.8906 207.338 59.2461 206.135 59.2461C204.502 59.2461 203.245 58.6523 202.362 57.4648C201.487 56.2695 201.049 54.8086 201.049 53.082C201.049 51.3008 201.53 49.8281 202.491 48.6641C203.452 47.5 204.733 46.918 206.334 46.918C208.913 46.918 210.448 48.2773 210.94 50.9961L208.643 51.3125C208.44 49.8438 207.717 49.1094 206.475 49.1094C205.569 49.1094 204.909 49.5078 204.495 50.3047C204.088 51.0938 203.885 52.0508 203.885 53.1758C203.885 54.3711 204.096 55.293 204.518 55.9414C204.948 56.5898 205.545 56.9141 206.311 56.9141C207.483 56.9141 208.26 56.1602 208.643 54.6523ZM217.62 59.2461C215.87 59.2461 214.534 58.6172 213.612 57.3594C212.69 56.1016 212.229 54.6602 212.229 53.0352C212.229 51.2852 212.737 49.8281 213.752 48.6641C214.776 47.5 216.124 46.918 217.795 46.918C219.381 46.918 220.682 47.4844 221.698 48.6172C222.721 49.75 223.233 51.2227 223.233 53.0352C223.233 54.9023 222.702 56.4062 221.639 57.5469C220.584 58.6797 219.245 59.2461 217.62 59.2461ZM217.713 57.043C219.51 57.043 220.409 55.7031 220.409 53.0234C220.409 51.8125 220.194 50.8594 219.764 50.1641C219.334 49.4609 218.674 49.1094 217.784 49.1094C216.862 49.1094 216.178 49.4727 215.733 50.1992C215.288 50.918 215.065 51.875 215.065 53.0703C215.065 54.3594 215.299 55.3438 215.768 56.0234C216.245 56.7031 216.893 57.043 217.713 57.043ZM234.6 47.1641L230.581 59H228.366L224.252 47.1641H227.042L229.807 55.1914L232.502 47.1641H234.6ZM243.881 55.2266L246.295 55.5547C245.983 56.625 245.374 57.5078 244.467 58.2031C243.561 58.8984 242.424 59.2461 241.057 59.2461C239.417 59.2461 238.096 58.6953 237.096 57.5938C236.096 56.4922 235.596 55 235.596 53.1172C235.596 51.3281 236.1 49.8477 237.108 48.6758C238.116 47.5039 239.483 46.918 241.209 46.918C242.897 46.918 244.202 47.4961 245.124 48.6523C246.045 49.8086 246.506 51.293 246.506 53.1055L246.495 53.4102H238.374C238.374 54.2148 238.448 54.8594 238.596 55.3438C238.752 55.8281 239.057 56.25 239.51 56.6094C239.963 56.9688 240.53 57.1484 241.209 57.1484C242.53 57.1484 243.42 56.5078 243.881 55.2266ZM243.717 51.6875C243.709 50.8359 243.452 50.1406 242.944 49.6016C242.444 49.0625 241.823 48.793 241.081 48.793C240.346 48.793 239.733 49.0469 239.241 49.5547C238.749 50.0547 238.459 50.7656 238.374 51.6875H243.717ZM251.616 59H248.944V47.1641H251.358V49.9883C251.702 48.8867 252.174 48.082 252.776 47.5742C253.377 47.0664 253.995 46.8125 254.627 46.8125C254.713 46.8125 254.831 46.8164 254.979 46.8242V49.6953C253.62 49.6953 252.717 50.1289 252.272 50.9961C251.834 51.8633 251.616 52.7031 251.616 53.5156V59ZM265.749 47.1641L261.143 60.6406C260.862 61.4688 260.475 62.1094 259.983 62.5625C259.499 63.0234 258.811 63.2539 257.92 63.2539C257.569 63.2539 257.057 63.2266 256.385 63.1719V61.0508L257.663 61.0742C258.225 61.0742 258.639 60.9805 258.905 60.793C259.178 60.6133 259.393 60.2891 259.549 59.8203C259.706 59.3516 259.784 59.0781 259.784 59C259.784 58.9531 259.702 58.7109 259.538 58.2734L255.471 47.1641H258.272L261.143 54.9688L263.616 47.1641H265.749ZM282.624 53.4453L285.295 53.7383C285.124 55.3398 284.502 56.6602 283.432 57.6992C282.37 58.7305 280.971 59.2461 279.237 59.2461C277.776 59.2461 276.588 58.8789 275.674 58.1445C274.768 57.4102 274.069 56.4141 273.577 55.1562C273.084 53.8984 272.838 52.5117 272.838 50.9961C272.838 48.5586 273.417 46.5781 274.573 45.0547C275.729 43.5234 277.319 42.7578 279.342 42.7578C280.928 42.7578 282.249 43.2461 283.303 44.2227C284.358 45.1992 285.022 46.5977 285.295 48.418L282.624 48.6992C282.131 46.2852 281.045 45.0781 279.366 45.0781C278.288 45.0781 277.448 45.582 276.846 46.5898C276.252 47.5898 275.956 49.043 275.956 50.9492C275.956 52.8867 276.276 54.3516 276.917 55.3438C277.557 56.3281 278.405 56.8203 279.459 56.8203C280.303 56.8203 281.022 56.4883 281.616 55.8242C282.209 55.1602 282.545 54.3672 282.624 53.4453ZM297.553 59H295.01C294.784 58.2812 294.647 57.4844 294.6 56.6094C293.889 58.3672 292.553 59.2461 290.592 59.2461C289.413 59.2461 288.463 58.9023 287.745 58.2148C287.034 57.5195 286.678 56.6484 286.678 55.6016C286.678 52.8828 289.065 51.5234 293.838 51.5234C294.026 51.5234 294.28 51.5273 294.6 51.5352V50.6445C294.6 49.418 293.764 48.8047 292.092 48.8047C290.467 48.8047 289.545 49.418 289.327 50.6445L287.053 50.3047C287.178 49.3203 287.686 48.5117 288.577 47.8789C289.467 47.2383 290.756 46.918 292.444 46.918C293.358 46.918 294.104 46.9961 294.682 47.1523C295.26 47.3008 295.749 47.5586 296.147 47.9258C296.545 48.2852 296.819 48.6797 296.967 49.1094C297.124 49.5312 297.202 50.25 297.202 51.2656V56.6094C297.202 57.3828 297.319 58.1797 297.553 59ZM294.6 52.9766C291.147 52.9766 289.42 53.8008 289.42 55.4492C289.42 55.9414 289.592 56.3633 289.936 56.7148C290.288 57.0586 290.815 57.2305 291.518 57.2305C292.534 57.2305 293.299 56.9102 293.815 56.2695C294.338 55.6211 294.6 54.8867 294.6 54.0664V52.9766ZM303.073 59H300.401V43.0039H303.073V59ZM308.956 59H306.284V43.0039H308.956V59Z" fill="black"/>
<path d="M93.6582 117.518L95.1816 117.859C94.4525 120.796 92.8053 122.264 90.2402 122.264C88.554 122.264 87.2292 121.583 86.2656 120.223C85.3086 118.862 84.8301 117.189 84.8301 115.203C84.8301 113.152 85.3314 111.505 86.334 110.262C87.3366 109.018 88.681 108.396 90.3672 108.396C92.8672 108.396 94.472 109.826 95.1816 112.684L93.6094 112.996C93.0365 110.874 91.9525 109.812 90.3574 109.812C89.179 109.812 88.2643 110.307 87.6133 111.297C86.9688 112.28 86.6465 113.663 86.6465 115.447C86.6465 117.081 86.9785 118.393 87.6426 119.383C88.3066 120.366 89.1855 120.857 90.2793 120.857C91.9785 120.857 93.1048 119.744 93.6582 117.518ZM100.65 122.264C99.2962 122.264 98.2383 121.762 97.4766 120.76C96.7214 119.757 96.3438 118.514 96.3438 117.029C96.3438 115.46 96.7702 114.207 97.623 113.27C98.4759 112.332 99.5371 111.863 100.807 111.863C102.167 111.863 103.238 112.358 104.02 113.348C104.807 114.331 105.201 115.561 105.201 117.039C105.201 118.576 104.778 119.832 103.932 120.809C103.085 121.779 101.992 122.264 100.65 122.264ZM100.768 121.004C101.549 121.004 102.203 120.682 102.73 120.037C103.258 119.393 103.521 118.39 103.521 117.029C103.521 115.662 103.245 114.673 102.691 114.061C102.138 113.442 101.49 113.133 100.748 113.133C99.9863 113.133 99.3418 113.445 98.8145 114.07C98.2871 114.689 98.0234 115.672 98.0234 117.02C98.0234 118.445 98.2871 119.467 98.8145 120.086C99.3418 120.698 99.9928 121.004 100.768 121.004ZM115.279 122H113.844V115.662C113.844 114.751 113.645 114.109 113.248 113.738C112.851 113.367 112.369 113.182 111.803 113.182C111.021 113.182 110.364 113.494 109.83 114.119C109.303 114.744 109.039 115.568 109.039 116.59V122H107.506V112.137H108.932V113.953C109.732 112.56 110.771 111.863 112.047 111.863C112.783 111.863 113.408 112.055 113.922 112.439C114.443 112.817 114.798 113.243 114.986 113.719C115.182 114.194 115.279 115.053 115.279 116.297V122ZM126.119 122H124.684V115.662C124.684 114.751 124.485 114.109 124.088 113.738C123.691 113.367 123.209 113.182 122.643 113.182C121.861 113.182 121.204 113.494 120.67 114.119C120.143 114.744 119.879 115.568 119.879 116.59V122H118.346V112.137H119.771V113.953C120.572 112.56 121.611 111.863 122.887 111.863C123.622 111.863 124.247 112.055 124.762 112.439C125.283 112.817 125.637 113.243 125.826 113.719C126.021 114.194 126.119 115.053 126.119 116.297V122ZM135.699 119.061L137.125 119.354C136.865 120.193 136.357 120.89 135.602 121.443C134.846 121.99 133.958 122.264 132.936 122.264C131.588 122.264 130.497 121.792 129.664 120.848C128.831 119.897 128.414 118.654 128.414 117.117C128.414 115.548 128.847 114.282 129.713 113.318C130.579 112.348 131.666 111.863 132.975 111.863C134.264 111.863 135.299 112.309 136.08 113.201C136.868 114.093 137.271 115.428 137.291 117.205H130.123C130.123 118.696 130.436 119.702 131.061 120.223C131.686 120.743 132.346 121.004 133.043 121.004C134.299 121.004 135.185 120.356 135.699 119.061ZM135.611 116.062C135.598 115.509 135.507 115.018 135.338 114.588C135.169 114.158 134.882 113.794 134.479 113.494C134.075 113.188 133.59 113.035 133.023 113.035C132.262 113.035 131.614 113.309 131.08 113.855C130.553 114.402 130.257 115.138 130.191 116.062H135.611ZM145.426 118.543L146.812 118.787C146.617 119.874 146.184 120.727 145.514 121.346C144.843 121.958 144.007 122.264 143.004 122.264C141.643 122.264 140.605 121.762 139.889 120.76C139.179 119.757 138.824 118.533 138.824 117.088C138.824 115.59 139.199 114.347 139.947 113.357C140.702 112.361 141.728 111.863 143.023 111.863C144.098 111.863 144.957 112.186 145.602 112.83C146.253 113.468 146.656 114.295 146.812 115.311L145.426 115.574C145.165 113.947 144.378 113.133 143.062 113.133C142.216 113.133 141.565 113.494 141.109 114.217C140.654 114.933 140.426 115.864 140.426 117.01C140.426 118.273 140.65 119.256 141.1 119.959C141.555 120.656 142.193 121.004 143.014 121.004C144.283 121.004 145.087 120.184 145.426 118.543ZM153.385 120.945V122.156C152.844 122.228 152.376 122.264 151.979 122.264C150.071 122.264 149.117 121.268 149.117 119.275V113.338H147.369V112.137H149.117L149.186 109.656L150.611 109.52V112.137H152.818V113.338H150.611V119.529C150.611 120.545 151.139 121.053 152.193 121.053C152.545 121.053 152.942 121.017 153.385 120.945ZM171.432 112.137L168.59 122H167.35L165.143 114.676L163.121 122H161.861L158.902 112.137H160.445L162.584 119.49L164.635 112.137H165.758L167.975 119.52L170.191 112.137H171.432ZM174.928 108.67V110.369H173.277V108.67H174.928ZM174.879 112.137V122H173.346V112.137H174.879ZM182.408 120.945V122.156C181.868 122.228 181.399 122.264 181.002 122.264C179.094 122.264 178.141 121.268 178.141 119.275V113.338H176.393V112.137H178.141L178.209 109.656L179.635 109.52V112.137H181.842V113.338H179.635V119.529C179.635 120.545 180.162 121.053 181.217 121.053C181.568 121.053 181.965 121.017 182.408 120.945ZM191.822 122H190.289V116.014C190.289 115.311 190.243 114.783 190.152 114.432C190.068 114.08 189.859 113.777 189.527 113.523C189.202 113.263 188.824 113.133 188.395 113.133C187.607 113.133 186.946 113.455 186.412 114.1C185.885 114.744 185.621 115.607 185.621 116.688V122H184.088V108.67H185.621V113.953C186.318 112.56 187.314 111.863 188.609 111.863C189.189 111.863 189.703 111.977 190.152 112.205C190.608 112.433 190.956 112.732 191.197 113.104C191.438 113.475 191.601 113.842 191.686 114.207C191.777 114.565 191.822 115.167 191.822 116.014V122ZM207.652 122H206.275V120.115C205.572 121.548 204.524 122.264 203.131 122.264C202.122 122.264 201.327 121.932 200.748 121.268C200.175 120.604 199.889 119.66 199.889 118.436V112.137H201.422V118.436C201.422 119.412 201.624 120.086 202.027 120.457C202.438 120.822 202.887 121.004 203.375 121.004C203.87 121.004 204.316 120.864 204.713 120.584C205.117 120.304 205.452 119.907 205.719 119.393C205.986 118.872 206.119 118.305 206.119 117.693V112.137H207.652V122ZM209.4 119.441L210.865 119.139C211.191 120.382 212.219 121.004 213.951 121.004C214.589 121.004 215.13 120.861 215.572 120.574C216.015 120.288 216.236 119.884 216.236 119.363C216.236 118.589 215.673 118.097 214.547 117.889L212.467 117.498C211.653 117.342 211.005 117.036 210.523 116.58C210.042 116.124 209.801 115.522 209.801 114.773C209.801 113.947 210.13 113.257 210.787 112.703C211.445 112.143 212.33 111.863 213.443 111.863C215.585 111.863 216.907 112.7 217.408 114.373L216.002 114.676C215.598 113.647 214.768 113.133 213.512 113.133C212.887 113.133 212.372 113.263 211.969 113.523C211.572 113.777 211.373 114.135 211.373 114.598C211.373 115.327 211.884 115.786 212.906 115.975L214.83 116.316C216.842 116.681 217.848 117.654 217.848 119.236C217.848 120.141 217.473 120.874 216.725 121.434C215.976 121.987 214.98 122.264 213.736 122.264C211.399 122.264 209.954 121.323 209.4 119.441ZM229.098 112.137V113.338H226.754V122H225.221V113.338H223.541V112.137H225.221C225.247 110.555 225.549 109.536 226.129 109.08C226.715 108.624 227.428 108.396 228.268 108.396C228.678 108.396 229.146 108.442 229.674 108.533V109.754C229.342 109.669 229.026 109.627 228.727 109.627C228.056 109.627 227.558 109.777 227.232 110.076C226.913 110.369 226.754 110.923 226.754 111.736V112.137H229.098ZM234.068 122.264C232.714 122.264 231.656 121.762 230.895 120.76C230.139 119.757 229.762 118.514 229.762 117.029C229.762 115.46 230.188 114.207 231.041 113.27C231.894 112.332 232.955 111.863 234.225 111.863C235.585 111.863 236.656 112.358 237.438 113.348C238.225 114.331 238.619 115.561 238.619 117.039C238.619 118.576 238.196 119.832 237.35 120.809C236.503 121.779 235.41 122.264 234.068 122.264ZM234.186 121.004C234.967 121.004 235.621 120.682 236.148 120.037C236.676 119.393 236.939 118.39 236.939 117.029C236.939 115.662 236.663 114.673 236.109 114.061C235.556 113.442 234.908 113.133 234.166 113.133C233.404 113.133 232.76 113.445 232.232 114.07C231.705 114.689 231.441 115.672 231.441 117.02C231.441 118.445 231.705 119.467 232.232 120.086C232.76 120.698 233.411 121.004 234.186 121.004ZM242.457 122H240.924V112.137H242.271V114.441C242.747 113.354 243.222 112.651 243.697 112.332C244.179 112.007 244.671 111.844 245.172 111.844C245.328 111.844 245.53 111.857 245.777 111.883V113.348H245.465C244.618 113.348 243.915 113.663 243.355 114.295C242.796 114.926 242.496 115.757 242.457 116.785V122ZM260.25 122H258.727C258.668 121.688 258.609 121.095 258.551 120.223C257.874 121.583 256.721 122.264 255.094 122.264C253.987 122.264 253.137 121.971 252.545 121.385C251.952 120.799 251.656 120.096 251.656 119.275C251.656 118.279 252.079 117.462 252.926 116.824C253.772 116.18 255.211 115.857 257.242 115.857C257.516 115.857 257.952 115.87 258.551 115.896C258.551 115.115 258.489 114.552 258.365 114.207C258.248 113.855 257.994 113.576 257.604 113.367C257.213 113.159 256.699 113.055 256.061 113.055C254.505 113.055 253.6 113.647 253.346 114.832L251.93 114.588C252.275 112.771 253.727 111.863 256.285 111.863C257.646 111.863 258.609 112.166 259.176 112.771C259.749 113.37 260.035 114.412 260.035 115.896V120.086C260.035 120.783 260.107 121.421 260.25 122ZM258.551 117.068C257.926 117.029 257.451 117.01 257.125 117.01C255.914 117.01 254.973 117.208 254.303 117.605C253.632 118.003 253.297 118.582 253.297 119.344C253.297 119.826 253.476 120.236 253.834 120.574C254.199 120.913 254.723 121.082 255.406 121.082C256.331 121.082 257.089 120.747 257.682 120.076C258.281 119.406 258.58 118.618 258.58 117.713C258.58 117.531 258.57 117.316 258.551 117.068ZM270.885 122H269.449V115.662C269.449 114.751 269.251 114.109 268.854 113.738C268.456 113.367 267.975 113.182 267.408 113.182C266.627 113.182 265.969 113.494 265.436 114.119C264.908 114.744 264.645 115.568 264.645 116.59V122H263.111V112.137H264.537V113.953C265.338 112.56 266.376 111.863 267.652 111.863C268.388 111.863 269.013 112.055 269.527 112.439C270.048 112.817 270.403 113.243 270.592 113.719C270.787 114.194 270.885 115.053 270.885 116.297V122ZM280.533 108.67V110.369H278.883V108.67H280.533ZM280.484 112.137V122H278.951V112.137H280.484ZM291.314 122H289.879V115.662C289.879 114.751 289.68 114.109 289.283 113.738C288.886 113.367 288.404 113.182 287.838 113.182C287.057 113.182 286.399 113.494 285.865 114.119C285.338 114.744 285.074 115.568 285.074 116.59V122H283.541V112.137H284.967V113.953C285.768 112.56 286.806 111.863 288.082 111.863C288.818 111.863 289.443 112.055 289.957 112.439C290.478 112.817 290.833 113.243 291.021 113.719C291.217 114.194 291.314 115.053 291.314 116.297V122ZM293.053 119.441L294.518 119.139C294.843 120.382 295.872 121.004 297.604 121.004C298.242 121.004 298.782 120.861 299.225 120.574C299.667 120.288 299.889 119.884 299.889 119.363C299.889 118.589 299.326 118.097 298.199 117.889L296.119 117.498C295.305 117.342 294.658 117.036 294.176 116.58C293.694 116.124 293.453 115.522 293.453 114.773C293.453 113.947 293.782 113.257 294.439 112.703C295.097 112.143 295.982 111.863 297.096 111.863C299.238 111.863 300.559 112.7 301.061 114.373L299.654 114.676C299.251 113.647 298.421 113.133 297.164 113.133C296.539 113.133 296.025 113.263 295.621 113.523C295.224 113.777 295.025 114.135 295.025 114.598C295.025 115.327 295.536 115.786 296.559 115.975L298.482 116.316C300.494 116.681 301.5 117.654 301.5 119.236C301.5 120.141 301.126 120.874 300.377 121.434C299.628 121.987 298.632 122.264 297.389 122.264C295.051 122.264 293.606 121.323 293.053 119.441ZM305.24 108.67V110.369H303.59V108.67H305.24ZM305.191 112.137V122H303.658V112.137H305.191ZM316.305 110.594V111.814C315.602 111.814 315.13 111.896 314.889 112.059C314.654 112.221 314.498 112.514 314.42 112.938C315.051 113.667 315.367 114.461 315.367 115.32C315.367 116.219 315.022 116.99 314.332 117.635C313.648 118.279 312.727 118.602 311.568 118.602C311.308 118.602 311.083 118.582 310.895 118.543C310.536 118.471 310.312 118.436 310.221 118.436C310.045 118.436 309.833 118.523 309.586 118.699C309.339 118.868 309.215 119.09 309.215 119.363C309.215 119.754 309.394 120.008 309.752 120.125C310.11 120.242 310.953 120.317 312.281 120.35C313.408 120.382 314.238 120.46 314.771 120.584C315.312 120.701 315.768 120.968 316.139 121.385C316.51 121.795 316.695 122.299 316.695 122.898C316.695 124.78 315.042 125.721 311.734 125.721C310.165 125.721 309.02 125.483 308.297 125.008C307.581 124.539 307.223 123.911 307.223 123.123C307.223 122.166 307.724 121.508 308.727 121.15C308.082 120.727 307.76 120.197 307.76 119.559C307.76 118.797 308.215 118.214 309.127 117.811C308.274 117.12 307.848 116.251 307.848 115.203C307.848 114.227 308.212 113.426 308.941 112.801C309.671 112.176 310.559 111.863 311.607 111.863C312.35 111.863 313.023 112.003 313.629 112.283C313.727 111.639 313.951 111.193 314.303 110.945C314.661 110.698 315.201 110.574 315.924 110.574C315.995 110.574 316.122 110.581 316.305 110.594ZM311.617 117.43C312.268 117.43 312.799 117.231 313.209 116.834C313.619 116.43 313.824 115.91 313.824 115.271C313.824 114.62 313.609 114.09 313.18 113.68C312.757 113.263 312.242 113.055 311.637 113.055C311.057 113.055 310.543 113.25 310.094 113.641C309.645 114.025 309.42 114.575 309.42 115.291C309.42 115.929 309.622 116.447 310.025 116.844C310.429 117.234 310.96 117.43 311.617 117.43ZM309.781 121.6C309.065 121.912 308.707 122.365 308.707 122.957C308.707 123.458 309 123.846 309.586 124.119C310.178 124.399 310.93 124.539 311.842 124.539C312.688 124.539 313.463 124.419 314.166 124.178C314.869 123.943 315.221 123.543 315.221 122.977C315.221 122.671 315.117 122.42 314.908 122.225C314.7 122.029 314.413 121.906 314.049 121.854C313.691 121.801 313.062 121.762 312.164 121.736C311.09 121.71 310.296 121.665 309.781 121.6ZM325.807 122H324.273V116.014C324.273 115.311 324.228 114.783 324.137 114.432C324.052 114.08 323.844 113.777 323.512 113.523C323.186 113.263 322.809 113.133 322.379 113.133C321.591 113.133 320.93 113.455 320.396 114.1C319.869 114.744 319.605 115.607 319.605 116.688V122H318.072V108.67H319.605V113.953C320.302 112.56 321.298 111.863 322.594 111.863C323.173 111.863 323.688 111.977 324.137 112.205C324.592 112.433 324.941 112.732 325.182 113.104C325.423 113.475 325.585 113.842 325.67 114.207C325.761 114.565 325.807 115.167 325.807 116.014V122ZM333.346 120.945V122.156C332.805 122.228 332.337 122.264 331.939 122.264C330.032 122.264 329.078 121.268 329.078 119.275V113.338H327.33V112.137H329.078L329.146 109.656L330.572 109.52V112.137H332.779V113.338H330.572V119.529C330.572 120.545 331.1 121.053 332.154 121.053C332.506 121.053 332.903 121.017 333.346 120.945ZM339.117 112.137V113.338H336.773V122H335.24V113.338H333.561V112.137H335.24C335.266 110.555 335.569 109.536 336.148 109.08C336.734 108.624 337.447 108.396 338.287 108.396C338.697 108.396 339.166 108.442 339.693 108.533V109.754C339.361 109.669 339.046 109.627 338.746 109.627C338.076 109.627 337.577 109.777 337.252 110.076C336.933 110.369 336.773 110.923 336.773 111.736V112.137H339.117ZM348.785 122H347.408V120.115C346.705 121.548 345.657 122.264 344.264 122.264C343.255 122.264 342.46 121.932 341.881 121.268C341.308 120.604 341.021 119.66 341.021 118.436V112.137H342.555V118.436C342.555 119.412 342.757 120.086 343.16 120.457C343.57 120.822 344.02 121.004 344.508 121.004C345.003 121.004 345.449 120.864 345.846 120.584C346.249 120.304 346.585 119.907 346.852 119.393C347.118 118.872 347.252 118.305 347.252 117.693V112.137H348.785V122ZM353.395 122H351.861V108.67H353.395V122ZM369.176 108.67V122H367.779V120.311C367.089 121.613 366.051 122.264 364.664 122.264C363.512 122.264 362.564 121.782 361.822 120.818C361.08 119.848 360.709 118.624 360.709 117.146C360.709 115.636 361.077 114.38 361.812 113.377C362.548 112.368 363.525 111.863 364.742 111.863C365.927 111.863 366.894 112.404 367.643 113.484V108.67H369.176ZM367.643 115.945C367.643 115.079 367.379 114.386 366.852 113.865C366.324 113.344 365.709 113.084 365.006 113.084C364.244 113.084 363.616 113.423 363.121 114.1C362.633 114.777 362.389 115.727 362.389 116.951C362.389 118.273 362.613 119.279 363.062 119.969C363.518 120.659 364.14 121.004 364.928 121.004C365.644 121.004 366.275 120.704 366.822 120.105C367.369 119.507 367.643 118.803 367.643 117.996V115.945ZM373.834 108.67V110.369H372.184V108.67H373.834ZM373.785 112.137V122H372.252V112.137H373.785ZM375.514 119.441L376.979 119.139C377.304 120.382 378.333 121.004 380.064 121.004C380.702 121.004 381.243 120.861 381.686 120.574C382.128 120.288 382.35 119.884 382.35 119.363C382.35 118.589 381.786 118.097 380.66 117.889L378.58 117.498C377.766 117.342 377.118 117.036 376.637 116.58C376.155 116.124 375.914 115.522 375.914 114.773C375.914 113.947 376.243 113.257 376.9 112.703C377.558 112.143 378.443 111.863 379.557 111.863C381.699 111.863 383.02 112.7 383.521 114.373L382.115 114.676C381.712 113.647 380.882 113.133 379.625 113.133C379 113.133 378.486 113.263 378.082 113.523C377.685 113.777 377.486 114.135 377.486 114.598C377.486 115.327 377.997 115.786 379.02 115.975L380.943 116.316C382.955 116.681 383.961 117.654 383.961 119.236C383.961 120.141 383.587 120.874 382.838 121.434C382.089 121.987 381.093 122.264 379.85 122.264C377.512 122.264 376.067 121.323 375.514 119.441ZM391.949 118.543L393.336 118.787C393.141 119.874 392.708 120.727 392.037 121.346C391.367 121.958 390.53 122.264 389.527 122.264C388.167 122.264 387.128 121.762 386.412 120.76C385.702 119.757 385.348 118.533 385.348 117.088C385.348 115.59 385.722 114.347 386.471 113.357C387.226 112.361 388.251 111.863 389.547 111.863C390.621 111.863 391.48 112.186 392.125 112.83C392.776 113.468 393.18 114.295 393.336 115.311L391.949 115.574C391.689 113.947 390.901 113.133 389.586 113.133C388.74 113.133 388.089 113.494 387.633 114.217C387.177 114.933 386.949 115.864 386.949 117.01C386.949 118.273 387.174 119.256 387.623 119.959C388.079 120.656 388.717 121.004 389.537 121.004C390.807 121.004 391.611 120.184 391.949 118.543ZM398.971 122.264C397.617 122.264 396.559 121.762 395.797 120.76C395.042 119.757 394.664 118.514 394.664 117.029C394.664 115.46 395.09 114.207 395.943 113.27C396.796 112.332 397.857 111.863 399.127 111.863C400.488 111.863 401.559 112.358 402.34 113.348C403.128 114.331 403.521 115.561 403.521 117.039C403.521 118.576 403.098 119.832 402.252 120.809C401.406 121.779 400.312 122.264 398.971 122.264ZM399.088 121.004C399.869 121.004 400.523 120.682 401.051 120.037C401.578 119.393 401.842 118.39 401.842 117.029C401.842 115.662 401.565 114.673 401.012 114.061C400.458 113.442 399.811 113.133 399.068 113.133C398.307 113.133 397.662 113.445 397.135 114.07C396.607 114.689 396.344 115.672 396.344 117.02C396.344 118.445 396.607 119.467 397.135 120.086C397.662 120.698 398.313 121.004 399.088 121.004ZM412.701 112.137L409.293 122H407.701L404.176 112.137H405.875L408.619 120.154L411.334 112.137H412.701ZM420.68 119.061L422.105 119.354C421.845 120.193 421.337 120.89 420.582 121.443C419.827 121.99 418.938 122.264 417.916 122.264C416.568 122.264 415.478 121.792 414.645 120.848C413.811 119.897 413.395 118.654 413.395 117.117C413.395 115.548 413.827 114.282 414.693 113.318C415.559 112.348 416.646 111.863 417.955 111.863C419.244 111.863 420.279 112.309 421.061 113.201C421.848 114.093 422.252 115.428 422.271 117.205H415.104C415.104 118.696 415.416 119.702 416.041 120.223C416.666 120.743 417.327 121.004 418.023 121.004C419.28 121.004 420.165 120.356 420.68 119.061ZM420.592 116.062C420.579 115.509 420.488 115.018 420.318 114.588C420.149 114.158 419.863 113.794 419.459 113.494C419.055 113.188 418.57 113.035 418.004 113.035C417.242 113.035 416.594 113.309 416.061 113.855C415.533 114.402 415.237 115.138 415.172 116.062H420.592ZM426.109 122H424.576V112.137H425.924V114.441C426.399 113.354 426.874 112.651 427.35 112.332C427.831 112.007 428.323 111.844 428.824 111.844C428.98 111.844 429.182 111.857 429.43 111.883V113.348H429.117C428.271 113.348 427.568 113.663 427.008 114.295C426.448 114.926 426.148 115.757 426.109 116.785V122ZM438.551 112.137L434.596 123.152C434.023 124.741 433.108 125.535 431.852 125.535C431.454 125.535 431.015 125.467 430.533 125.33V124.129C430.93 124.22 431.272 124.266 431.559 124.266C432.047 124.266 432.454 124.126 432.779 123.846C433.111 123.566 433.44 122.889 433.766 121.814L430.357 112.137H431.92L434.557 119.549L437.262 112.137H438.551ZM450.914 118.543L452.301 118.787C452.105 119.874 451.673 120.727 451.002 121.346C450.331 121.958 449.495 122.264 448.492 122.264C447.132 122.264 446.093 121.762 445.377 120.76C444.667 119.757 444.312 118.533 444.312 117.088C444.312 115.59 444.687 114.347 445.436 113.357C446.191 112.361 447.216 111.863 448.512 111.863C449.586 111.863 450.445 112.186 451.09 112.83C451.741 113.468 452.145 114.295 452.301 115.311L450.914 115.574C450.654 113.947 449.866 113.133 448.551 113.133C447.704 113.133 447.053 113.494 446.598 114.217C446.142 114.933 445.914 115.864 445.914 117.01C445.914 118.273 446.139 119.256 446.588 119.959C447.044 120.656 447.682 121.004 448.502 121.004C449.771 121.004 450.576 120.184 450.914 118.543ZM462.125 122H460.602C460.543 121.688 460.484 121.095 460.426 120.223C459.749 121.583 458.596 122.264 456.969 122.264C455.862 122.264 455.012 121.971 454.42 121.385C453.827 120.799 453.531 120.096 453.531 119.275C453.531 118.279 453.954 117.462 454.801 116.824C455.647 116.18 457.086 115.857 459.117 115.857C459.391 115.857 459.827 115.87 460.426 115.896C460.426 115.115 460.364 114.552 460.24 114.207C460.123 113.855 459.869 113.576 459.479 113.367C459.088 113.159 458.574 113.055 457.936 113.055C456.38 113.055 455.475 113.647 455.221 114.832L453.805 114.588C454.15 112.771 455.602 111.863 458.16 111.863C459.521 111.863 460.484 112.166 461.051 112.771C461.624 113.37 461.91 114.412 461.91 115.896V120.086C461.91 120.783 461.982 121.421 462.125 122ZM460.426 117.068C459.801 117.029 459.326 117.01 459 117.01C457.789 117.01 456.848 117.208 456.178 117.605C455.507 118.003 455.172 118.582 455.172 119.344C455.172 119.826 455.351 120.236 455.709 120.574C456.074 120.913 456.598 121.082 457.281 121.082C458.206 121.082 458.964 120.747 459.557 120.076C460.156 119.406 460.455 118.618 460.455 117.713C460.455 117.531 460.445 117.316 460.426 117.068ZM466.52 122H464.986V108.67H466.52V122ZM471.129 122H469.596V108.67H471.129V122ZM476.266 119.812V122H474.088V119.812H476.266ZM488.941 122.264C487.229 122.264 485.895 121.6 484.938 120.271C483.98 118.937 483.502 117.303 483.502 115.369C483.502 113.351 484.003 111.684 485.006 110.369C486.008 109.054 487.337 108.396 488.99 108.396C490.637 108.396 491.959 109.044 492.955 110.34C493.951 111.629 494.449 113.257 494.449 115.223C494.449 117.111 493.964 118.758 492.994 120.164C492.031 121.564 490.68 122.264 488.941 122.264ZM488.98 120.906C490.146 120.906 491.057 120.376 491.715 119.314C492.372 118.253 492.701 116.886 492.701 115.213C492.701 113.494 492.359 112.156 491.676 111.199C490.999 110.242 490.097 109.764 488.971 109.764C487.831 109.764 486.926 110.281 486.256 111.316C485.585 112.352 485.25 113.706 485.25 115.379C485.25 117.013 485.589 118.344 486.266 119.373C486.943 120.395 487.848 120.906 488.98 120.906ZM504.586 122H503.209V120.115C502.506 121.548 501.458 122.264 500.064 122.264C499.055 122.264 498.261 121.932 497.682 121.268C497.109 120.604 496.822 119.66 496.822 118.436V112.137H498.355V118.436C498.355 119.412 498.557 120.086 498.961 120.457C499.371 120.822 499.82 121.004 500.309 121.004C500.803 121.004 501.249 120.864 501.646 120.584C502.05 120.304 502.385 119.907 502.652 119.393C502.919 118.872 503.053 118.305 503.053 117.693V112.137H504.586V122ZM509.195 122H507.662V112.137H509.01V114.441C509.485 113.354 509.96 112.651 510.436 112.332C510.917 112.007 511.409 111.844 511.91 111.844C512.066 111.844 512.268 111.857 512.516 111.883V113.348H512.203C511.357 113.348 510.654 113.663 510.094 114.295C509.534 114.926 509.234 115.757 509.195 116.785V122ZM92.0469 142.061L93.4727 142.354C93.2122 143.193 92.7044 143.89 91.9492 144.443C91.194 144.99 90.3053 145.264 89.2832 145.264C87.9355 145.264 86.8451 144.792 86.0117 143.848C85.1784 142.897 84.7617 141.654 84.7617 140.117C84.7617 138.548 85.1947 137.282 86.0605 136.318C86.9264 135.348 88.0137 134.863 89.3223 134.863C90.6113 134.863 91.6465 135.309 92.4277 136.201C93.2155 137.093 93.6191 138.428 93.6387 140.205H86.4707C86.4707 141.696 86.7832 142.702 87.4082 143.223C88.0332 143.743 88.694 144.004 89.3906 144.004C90.6471 144.004 91.5326 143.356 92.0469 142.061ZM91.959 139.062C91.946 138.509 91.8548 138.018 91.6855 137.588C91.5163 137.158 91.2298 136.794 90.8262 136.494C90.4225 136.188 89.9375 136.035 89.3711 136.035C88.6094 136.035 87.9616 136.309 87.4277 136.855C86.9004 137.402 86.6042 138.138 86.5391 139.062H91.959ZM102.467 145H100.699L98.1895 140.996L95.6211 145H94.127L97.4473 139.883L94.4492 135.137H96.2168L98.3262 138.506L100.475 135.137H101.949L99.0781 139.551L102.467 145ZM105.602 148.33H104.068V135.137H105.445V137.051C106.142 135.592 107.18 134.863 108.561 134.863C109.726 134.863 110.667 135.352 111.383 136.328C112.099 137.298 112.457 138.529 112.457 140.02C112.457 141.628 112.089 142.904 111.354 143.848C110.618 144.792 109.674 145.264 108.521 145.264C107.285 145.264 106.311 144.674 105.602 143.496V148.33ZM105.602 138.643V141.416C105.699 142.165 106.015 142.783 106.549 143.271C107.083 143.76 107.639 144.004 108.219 144.004C108.889 144.004 109.482 143.711 109.996 143.125C110.517 142.539 110.777 141.527 110.777 140.088C110.777 138.844 110.543 137.887 110.074 137.217C109.605 136.54 108.984 136.201 108.209 136.201C107.597 136.201 107.047 136.439 106.559 136.914C106.077 137.389 105.758 137.965 105.602 138.643ZM121.266 142.061L122.691 142.354C122.431 143.193 121.923 143.89 121.168 144.443C120.413 144.99 119.524 145.264 118.502 145.264C117.154 145.264 116.064 144.792 115.23 143.848C114.397 142.897 113.98 141.654 113.98 140.117C113.98 138.548 114.413 137.282 115.279 136.318C116.145 135.348 117.232 134.863 118.541 134.863C119.83 134.863 120.865 135.309 121.646 136.201C122.434 137.093 122.838 138.428 122.857 140.205H115.689C115.689 141.696 116.002 142.702 116.627 143.223C117.252 143.743 117.913 144.004 118.609 144.004C119.866 144.004 120.751 143.356 121.266 142.061ZM121.178 139.062C121.165 138.509 121.074 138.018 120.904 137.588C120.735 137.158 120.449 136.794 120.045 136.494C119.641 136.188 119.156 136.035 118.59 136.035C117.828 136.035 117.18 136.309 116.646 136.855C116.119 137.402 115.823 138.138 115.758 139.062H121.178ZM126.695 145H125.162V135.137H126.51V137.441C126.985 136.354 127.46 135.651 127.936 135.332C128.417 135.007 128.909 134.844 129.41 134.844C129.566 134.844 129.768 134.857 130.016 134.883V136.348H129.703C128.857 136.348 128.154 136.663 127.594 137.295C127.034 137.926 126.734 138.757 126.695 139.785V145ZM133.346 131.67V133.369H131.695V131.67H133.346ZM133.297 135.137V145H131.764V135.137H133.297ZM142.867 142.061L144.293 142.354C144.033 143.193 143.525 143.89 142.77 144.443C142.014 144.99 141.126 145.264 140.104 145.264C138.756 145.264 137.665 144.792 136.832 143.848C135.999 142.897 135.582 141.654 135.582 140.117C135.582 138.548 136.015 137.282 136.881 136.318C137.747 135.348 138.834 134.863 140.143 134.863C141.432 134.863 142.467 135.309 143.248 136.201C144.036 137.093 144.439 138.428 144.459 140.205H137.291C137.291 141.696 137.604 142.702 138.229 143.223C138.854 143.743 139.514 144.004 140.211 144.004C141.467 144.004 142.353 143.356 142.867 142.061ZM142.779 139.062C142.766 138.509 142.675 138.018 142.506 137.588C142.337 137.158 142.05 136.794 141.646 136.494C141.243 136.188 140.758 136.035 140.191 136.035C139.43 136.035 138.782 136.309 138.248 136.855C137.721 137.402 137.424 138.138 137.359 139.062H142.779ZM154.537 145H153.102V138.662C153.102 137.751 152.903 137.109 152.506 136.738C152.109 136.367 151.627 136.182 151.061 136.182C150.279 136.182 149.622 136.494 149.088 137.119C148.561 137.744 148.297 138.568 148.297 139.59V145H146.764V135.137H148.189V136.953C148.99 135.56 150.029 134.863 151.305 134.863C152.04 134.863 152.665 135.055 153.18 135.439C153.701 135.817 154.055 136.243 154.244 136.719C154.439 137.194 154.537 138.053 154.537 139.297V145ZM163.434 141.543L164.82 141.787C164.625 142.874 164.192 143.727 163.521 144.346C162.851 144.958 162.014 145.264 161.012 145.264C159.651 145.264 158.613 144.762 157.896 143.76C157.187 142.757 156.832 141.533 156.832 140.088C156.832 138.59 157.206 137.347 157.955 136.357C158.71 135.361 159.736 134.863 161.031 134.863C162.105 134.863 162.965 135.186 163.609 135.83C164.26 136.468 164.664 137.295 164.82 138.311L163.434 138.574C163.173 136.947 162.385 136.133 161.07 136.133C160.224 136.133 159.573 136.494 159.117 137.217C158.661 137.933 158.434 138.864 158.434 140.01C158.434 141.273 158.658 142.256 159.107 142.959C159.563 143.656 160.201 144.004 161.021 144.004C162.291 144.004 163.095 143.184 163.434 141.543ZM173.434 142.061L174.859 142.354C174.599 143.193 174.091 143.89 173.336 144.443C172.581 144.99 171.692 145.264 170.67 145.264C169.322 145.264 168.232 144.792 167.398 143.848C166.565 142.897 166.148 141.654 166.148 140.117C166.148 138.548 166.581 137.282 167.447 136.318C168.313 135.348 169.4 134.863 170.709 134.863C171.998 134.863 173.033 135.309 173.814 136.201C174.602 137.093 175.006 138.428 175.025 140.205H167.857C167.857 141.696 168.17 142.702 168.795 143.223C169.42 143.743 170.081 144.004 170.777 144.004C172.034 144.004 172.919 143.356 173.434 142.061ZM173.346 139.062C173.333 138.509 173.242 138.018 173.072 137.588C172.903 137.158 172.617 136.794 172.213 136.494C171.809 136.188 171.324 136.035 170.758 136.035C169.996 136.035 169.348 136.309 168.814 136.855C168.287 137.402 167.991 138.138 167.926 139.062H173.346ZM185.035 131.67V145H183.639V143.311C182.949 144.613 181.91 145.264 180.523 145.264C179.371 145.264 178.424 144.782 177.682 143.818C176.939 142.848 176.568 141.624 176.568 140.146C176.568 138.636 176.936 137.38 177.672 136.377C178.408 135.368 179.384 134.863 180.602 134.863C181.786 134.863 182.753 135.404 183.502 136.484V131.67H185.035ZM183.502 138.945C183.502 138.079 183.238 137.386 182.711 136.865C182.184 136.344 181.568 136.084 180.865 136.084C180.104 136.084 179.475 136.423 178.98 137.1C178.492 137.777 178.248 138.727 178.248 139.951C178.248 141.273 178.473 142.279 178.922 142.969C179.378 143.659 179.999 144.004 180.787 144.004C181.503 144.004 182.135 143.704 182.682 143.105C183.229 142.507 183.502 141.803 183.502 140.996V138.945ZM197.584 143.945V145.156C197.044 145.228 196.575 145.264 196.178 145.264C194.27 145.264 193.316 144.268 193.316 142.275V136.338H191.568V135.137H193.316L193.385 132.656L194.811 132.52V135.137H197.018V136.338H194.811V142.529C194.811 143.545 195.338 144.053 196.393 144.053C196.744 144.053 197.141 144.017 197.584 143.945ZM205.426 142.061L206.852 142.354C206.591 143.193 206.083 143.89 205.328 144.443C204.573 144.99 203.684 145.264 202.662 145.264C201.314 145.264 200.224 144.792 199.391 143.848C198.557 142.897 198.141 141.654 198.141 140.117C198.141 138.548 198.574 137.282 199.439 136.318C200.305 135.348 201.393 134.863 202.701 134.863C203.99 134.863 205.025 135.309 205.807 136.201C206.594 137.093 206.998 138.428 207.018 140.205H199.85C199.85 141.696 200.162 142.702 200.787 143.223C201.412 143.743 202.073 144.004 202.77 144.004C204.026 144.004 204.911 143.356 205.426 142.061ZM205.338 139.062C205.325 138.509 205.234 138.018 205.064 137.588C204.895 137.158 204.609 136.794 204.205 136.494C203.801 136.188 203.316 136.035 202.75 136.035C201.988 136.035 201.34 136.309 200.807 136.855C200.279 137.402 199.983 138.138 199.918 139.062H205.338ZM217.047 145H215.523C215.465 144.688 215.406 144.095 215.348 143.223C214.671 144.583 213.518 145.264 211.891 145.264C210.784 145.264 209.934 144.971 209.342 144.385C208.749 143.799 208.453 143.096 208.453 142.275C208.453 141.279 208.876 140.462 209.723 139.824C210.569 139.18 212.008 138.857 214.039 138.857C214.312 138.857 214.749 138.87 215.348 138.896C215.348 138.115 215.286 137.552 215.162 137.207C215.045 136.855 214.791 136.576 214.4 136.367C214.01 136.159 213.495 136.055 212.857 136.055C211.301 136.055 210.396 136.647 210.143 137.832L208.727 137.588C209.072 135.771 210.523 134.863 213.082 134.863C214.443 134.863 215.406 135.166 215.973 135.771C216.546 136.37 216.832 137.412 216.832 138.896V143.086C216.832 143.783 216.904 144.421 217.047 145ZM215.348 140.068C214.723 140.029 214.247 140.01 213.922 140.01C212.711 140.01 211.77 140.208 211.1 140.605C210.429 141.003 210.094 141.582 210.094 142.344C210.094 142.826 210.273 143.236 210.631 143.574C210.995 143.913 211.52 144.082 212.203 144.082C213.128 144.082 213.886 143.747 214.479 143.076C215.077 142.406 215.377 141.618 215.377 140.713C215.377 140.531 215.367 140.316 215.348 140.068ZM233.121 145H231.627V138.867C231.627 138.236 231.581 137.764 231.49 137.451C231.406 137.132 231.194 136.842 230.855 136.582C230.517 136.315 230.136 136.182 229.713 136.182C229.127 136.182 228.561 136.452 228.014 136.992C227.473 137.526 227.203 138.343 227.203 139.443V145H225.719V138.506C225.719 137.64 225.51 137.028 225.094 136.67C224.684 136.312 224.251 136.133 223.795 136.133C223.144 136.133 222.577 136.413 222.096 136.973C221.614 137.533 221.373 138.242 221.373 139.102V145H219.908V135.137H221.227V137.031C221.962 135.586 222.975 134.863 224.264 134.863C224.973 134.863 225.576 135.094 226.07 135.557C226.565 136.019 226.884 136.576 227.027 137.227C227.704 135.651 228.743 134.863 230.143 134.863C230.813 134.863 231.399 135.055 231.9 135.439C232.408 135.824 232.737 136.266 232.887 136.768C233.043 137.262 233.121 137.962 233.121 138.867V145ZM252.564 135.137L249.723 145H248.482L246.275 137.676L244.254 145H242.994L240.035 135.137H241.578L243.717 142.49L245.768 135.137H246.891L249.107 142.52L251.324 135.137H252.564ZM256.061 131.67V133.369H254.41V131.67H256.061ZM256.012 135.137V145H254.479V135.137H256.012ZM260.602 145H259.068V131.67H260.602V145ZM265.211 145H263.678V131.67H265.211V145ZM277.76 143.945V145.156C277.219 145.228 276.751 145.264 276.354 145.264C274.446 145.264 273.492 144.268 273.492 142.275V136.338H271.744V135.137H273.492L273.561 132.656L274.986 132.52V135.137H277.193V136.338H274.986V142.529C274.986 143.545 275.514 144.053 276.568 144.053C276.92 144.053 277.317 144.017 277.76 143.945ZM287.164 145H285.641C285.582 144.688 285.523 144.095 285.465 143.223C284.788 144.583 283.635 145.264 282.008 145.264C280.901 145.264 280.051 144.971 279.459 144.385C278.867 143.799 278.57 143.096 278.57 142.275C278.57 141.279 278.993 140.462 279.84 139.824C280.686 139.18 282.125 138.857 284.156 138.857C284.43 138.857 284.866 138.87 285.465 138.896C285.465 138.115 285.403 137.552 285.279 137.207C285.162 136.855 284.908 136.576 284.518 136.367C284.127 136.159 283.613 136.055 282.975 136.055C281.419 136.055 280.514 136.647 280.26 137.832L278.844 137.588C279.189 135.771 280.641 134.863 283.199 134.863C284.56 134.863 285.523 135.166 286.09 135.771C286.663 136.37 286.949 137.412 286.949 138.896V143.086C286.949 143.783 287.021 144.421 287.164 145ZM285.465 140.068C284.84 140.029 284.365 140.01 284.039 140.01C282.828 140.01 281.887 140.208 281.217 140.605C280.546 141.003 280.211 141.582 280.211 142.344C280.211 142.826 280.39 143.236 280.748 143.574C281.113 143.913 281.637 144.082 282.32 144.082C283.245 144.082 284.003 143.747 284.596 143.076C285.195 142.406 285.494 141.618 285.494 140.713C285.494 140.531 285.484 140.316 285.465 140.068ZM298.17 145H296.578L293.697 139.492L291.559 141.953V145H290.025V131.67H291.559V140.205L296.139 135.137H297.779L294.693 138.604L298.17 145ZM306.109 142.061L307.535 142.354C307.275 143.193 306.767 143.89 306.012 144.443C305.257 144.99 304.368 145.264 303.346 145.264C301.998 145.264 300.908 144.792 300.074 143.848C299.241 142.897 298.824 141.654 298.824 140.117C298.824 138.548 299.257 137.282 300.123 136.318C300.989 135.348 302.076 134.863 303.385 134.863C304.674 134.863 305.709 135.309 306.49 136.201C307.278 137.093 307.682 138.428 307.701 140.205H300.533C300.533 141.696 300.846 142.702 301.471 143.223C302.096 143.743 302.757 144.004 303.453 144.004C304.71 144.004 305.595 143.356 306.109 142.061ZM306.021 139.062C306.008 138.509 305.917 138.018 305.748 137.588C305.579 137.158 305.292 136.794 304.889 136.494C304.485 136.188 304 136.035 303.434 136.035C302.672 136.035 302.024 136.309 301.49 136.855C300.963 137.402 300.667 138.138 300.602 139.062H306.021ZM319.479 143.945V145.156C318.938 145.228 318.469 145.264 318.072 145.264C316.165 145.264 315.211 144.268 315.211 142.275V136.338H313.463V135.137H315.211L315.279 132.656L316.705 132.52V135.137H318.912V136.338H316.705V142.529C316.705 143.545 317.232 144.053 318.287 144.053C318.639 144.053 319.036 144.017 319.479 143.945ZM328.893 145H327.359V139.014C327.359 138.311 327.314 137.783 327.223 137.432C327.138 137.08 326.93 136.777 326.598 136.523C326.272 136.263 325.895 136.133 325.465 136.133C324.677 136.133 324.016 136.455 323.482 137.1C322.955 137.744 322.691 138.607 322.691 139.688V145H321.158V131.67H322.691V136.953C323.388 135.56 324.384 134.863 325.68 134.863C326.259 134.863 326.773 134.977 327.223 135.205C327.678 135.433 328.027 135.732 328.268 136.104C328.508 136.475 328.671 136.842 328.756 137.207C328.847 137.565 328.893 138.167 328.893 139.014V145ZM338.473 142.061L339.898 142.354C339.638 143.193 339.13 143.89 338.375 144.443C337.62 144.99 336.731 145.264 335.709 145.264C334.361 145.264 333.271 144.792 332.438 143.848C331.604 142.897 331.188 141.654 331.188 140.117C331.188 138.548 331.62 137.282 332.486 136.318C333.352 135.348 334.439 134.863 335.748 134.863C337.037 134.863 338.072 135.309 338.854 136.201C339.641 137.093 340.045 138.428 340.064 140.205H332.896C332.896 141.696 333.209 142.702 333.834 143.223C334.459 143.743 335.12 144.004 335.816 144.004C337.073 144.004 337.958 143.356 338.473 142.061ZM338.385 139.062C338.372 138.509 338.281 138.018 338.111 137.588C337.942 137.158 337.656 136.794 337.252 136.494C336.848 136.188 336.363 136.035 335.797 136.035C335.035 136.035 334.387 136.309 333.854 136.855C333.326 137.402 333.03 138.138 332.965 139.062H338.385ZM351.842 143.945V145.156C351.301 145.228 350.833 145.264 350.436 145.264C348.528 145.264 347.574 144.268 347.574 142.275V136.338H345.826V135.137H347.574L347.643 132.656L349.068 132.52V135.137H351.275V136.338H349.068V142.529C349.068 143.545 349.596 144.053 350.65 144.053C351.002 144.053 351.399 144.017 351.842 143.945ZM355.104 131.67V133.369H353.453V131.67H355.104ZM355.055 135.137V145H353.521V135.137H355.055ZM371.324 145H369.83V138.867C369.83 138.236 369.785 137.764 369.693 137.451C369.609 137.132 369.397 136.842 369.059 136.582C368.72 136.315 368.339 136.182 367.916 136.182C367.33 136.182 366.764 136.452 366.217 136.992C365.676 137.526 365.406 138.343 365.406 139.443V145H363.922V138.506C363.922 137.64 363.714 137.028 363.297 136.67C362.887 136.312 362.454 136.133 361.998 136.133C361.347 136.133 360.781 136.413 360.299 136.973C359.817 137.533 359.576 138.242 359.576 139.102V145H358.111V135.137H359.43V137.031C360.165 135.586 361.178 134.863 362.467 134.863C363.176 134.863 363.779 135.094 364.273 135.557C364.768 136.019 365.087 136.576 365.23 137.227C365.908 135.651 366.946 134.863 368.346 134.863C369.016 134.863 369.602 135.055 370.104 135.439C370.611 135.824 370.94 136.266 371.09 136.768C371.246 137.262 371.324 137.962 371.324 138.867V145ZM380.914 142.061L382.34 142.354C382.079 143.193 381.572 143.89 380.816 144.443C380.061 144.99 379.173 145.264 378.15 145.264C376.803 145.264 375.712 144.792 374.879 143.848C374.046 142.897 373.629 141.654 373.629 140.117C373.629 138.548 374.062 137.282 374.928 136.318C375.794 135.348 376.881 134.863 378.189 134.863C379.479 134.863 380.514 135.309 381.295 136.201C382.083 137.093 382.486 138.428 382.506 140.205H375.338C375.338 141.696 375.65 142.702 376.275 143.223C376.9 143.743 377.561 144.004 378.258 144.004C379.514 144.004 380.4 143.356 380.914 142.061ZM380.826 139.062C380.813 138.509 380.722 138.018 380.553 137.588C380.383 137.158 380.097 136.794 379.693 136.494C379.29 136.188 378.805 136.035 378.238 136.035C377.477 136.035 376.829 136.309 376.295 136.855C375.768 137.402 375.471 138.138 375.406 139.062H380.826ZM394.283 143.945V145.156C393.743 145.228 393.274 145.264 392.877 145.264C390.969 145.264 390.016 144.268 390.016 142.275V136.338H388.268V135.137H390.016L390.084 132.656L391.51 132.52V135.137H393.717V136.338H391.51V142.529C391.51 143.545 392.037 144.053 393.092 144.053C393.443 144.053 393.84 144.017 394.283 143.945ZM399.186 145.264C397.831 145.264 396.773 144.762 396.012 143.76C395.257 142.757 394.879 141.514 394.879 140.029C394.879 138.46 395.305 137.207 396.158 136.27C397.011 135.332 398.072 134.863 399.342 134.863C400.702 134.863 401.773 135.358 402.555 136.348C403.342 137.331 403.736 138.561 403.736 140.039C403.736 141.576 403.313 142.832 402.467 143.809C401.62 144.779 400.527 145.264 399.186 145.264ZM399.303 144.004C400.084 144.004 400.738 143.682 401.266 143.037C401.793 142.393 402.057 141.39 402.057 140.029C402.057 138.662 401.78 137.673 401.227 137.061C400.673 136.442 400.025 136.133 399.283 136.133C398.521 136.133 397.877 136.445 397.35 137.07C396.822 137.689 396.559 138.672 396.559 140.02C396.559 141.445 396.822 142.467 397.35 143.086C397.877 143.698 398.528 144.004 399.303 144.004ZM418.805 145H417.428V143.115C416.725 144.548 415.676 145.264 414.283 145.264C413.274 145.264 412.48 144.932 411.9 144.268C411.327 143.604 411.041 142.66 411.041 141.436V135.137H412.574V141.436C412.574 142.412 412.776 143.086 413.18 143.457C413.59 143.822 414.039 144.004 414.527 144.004C415.022 144.004 415.468 143.864 415.865 143.584C416.269 143.304 416.604 142.907 416.871 142.393C417.138 141.872 417.271 141.305 417.271 140.693V135.137H418.805V145ZM429.654 145H428.219V138.662C428.219 137.751 428.02 137.109 427.623 136.738C427.226 136.367 426.744 136.182 426.178 136.182C425.396 136.182 424.739 136.494 424.205 137.119C423.678 137.744 423.414 138.568 423.414 139.59V145H421.881V135.137H423.307V136.953C424.107 135.56 425.146 134.863 426.422 134.863C427.158 134.863 427.783 135.055 428.297 135.439C428.818 135.817 429.173 136.243 429.361 136.719C429.557 137.194 429.654 138.053 429.654 139.297V145ZM440.426 131.67V145H439.029V143.311C438.339 144.613 437.301 145.264 435.914 145.264C434.762 145.264 433.814 144.782 433.072 143.818C432.33 142.848 431.959 141.624 431.959 140.146C431.959 138.636 432.327 137.38 433.062 136.377C433.798 135.368 434.775 134.863 435.992 134.863C437.177 134.863 438.144 135.404 438.893 136.484V131.67H440.426ZM438.893 138.945C438.893 138.079 438.629 137.386 438.102 136.865C437.574 136.344 436.959 136.084 436.256 136.084C435.494 136.084 434.866 136.423 434.371 137.1C433.883 137.777 433.639 138.727 433.639 139.951C433.639 141.273 433.863 142.279 434.312 142.969C434.768 143.659 435.39 144.004 436.178 144.004C436.894 144.004 437.525 143.704 438.072 143.105C438.619 142.507 438.893 141.803 438.893 140.996V138.945ZM450.016 142.061L451.441 142.354C451.181 143.193 450.673 143.89 449.918 144.443C449.163 144.99 448.274 145.264 447.252 145.264C445.904 145.264 444.814 144.792 443.98 143.848C443.147 142.897 442.73 141.654 442.73 140.117C442.73 138.548 443.163 137.282 444.029 136.318C444.895 135.348 445.982 134.863 447.291 134.863C448.58 134.863 449.615 135.309 450.396 136.201C451.184 137.093 451.588 138.428 451.607 140.205H444.439C444.439 141.696 444.752 142.702 445.377 143.223C446.002 143.743 446.663 144.004 447.359 144.004C448.616 144.004 449.501 143.356 450.016 142.061ZM449.928 139.062C449.915 138.509 449.824 138.018 449.654 137.588C449.485 137.158 449.199 136.794 448.795 136.494C448.391 136.188 447.906 136.035 447.34 136.035C446.578 136.035 445.93 136.309 445.396 136.855C444.869 137.402 444.573 138.138 444.508 139.062H449.928ZM455.445 145H453.912V135.137H455.26V137.441C455.735 136.354 456.21 135.651 456.686 135.332C457.167 135.007 457.659 134.844 458.16 134.844C458.316 134.844 458.518 134.857 458.766 134.883V136.348H458.453C457.607 136.348 456.904 136.663 456.344 137.295C455.784 137.926 455.484 138.757 455.445 139.785V145ZM459.303 142.441L460.768 142.139C461.093 143.382 462.122 144.004 463.854 144.004C464.492 144.004 465.032 143.861 465.475 143.574C465.917 143.288 466.139 142.884 466.139 142.363C466.139 141.589 465.576 141.097 464.449 140.889L462.369 140.498C461.555 140.342 460.908 140.036 460.426 139.58C459.944 139.124 459.703 138.522 459.703 137.773C459.703 136.947 460.032 136.257 460.689 135.703C461.347 135.143 462.232 134.863 463.346 134.863C465.488 134.863 466.809 135.7 467.311 137.373L465.904 137.676C465.501 136.647 464.671 136.133 463.414 136.133C462.789 136.133 462.275 136.263 461.871 136.523C461.474 136.777 461.275 137.135 461.275 137.598C461.275 138.327 461.786 138.786 462.809 138.975L464.732 139.316C466.744 139.681 467.75 140.654 467.75 142.236C467.75 143.141 467.376 143.874 466.627 144.434C465.878 144.987 464.882 145.264 463.639 145.264C461.301 145.264 459.856 144.323 459.303 142.441ZM474.381 143.945V145.156C473.84 145.228 473.372 145.264 472.975 145.264C471.067 145.264 470.113 144.268 470.113 142.275V136.338H468.365V135.137H470.113L470.182 132.656L471.607 132.52V135.137H473.814V136.338H471.607V142.529C471.607 143.545 472.135 144.053 473.189 144.053C473.541 144.053 473.938 144.017 474.381 143.945ZM483.785 145H482.262C482.203 144.688 482.145 144.095 482.086 143.223C481.409 144.583 480.257 145.264 478.629 145.264C477.522 145.264 476.673 144.971 476.08 144.385C475.488 143.799 475.191 143.096 475.191 142.275C475.191 141.279 475.615 140.462 476.461 139.824C477.307 139.18 478.746 138.857 480.777 138.857C481.051 138.857 481.487 138.87 482.086 138.896C482.086 138.115 482.024 137.552 481.9 137.207C481.783 136.855 481.529 136.576 481.139 136.367C480.748 136.159 480.234 136.055 479.596 136.055C478.04 136.055 477.135 136.647 476.881 137.832L475.465 137.588C475.81 135.771 477.262 134.863 479.82 134.863C481.181 134.863 482.145 135.166 482.711 135.771C483.284 136.37 483.57 137.412 483.57 138.896V143.086C483.57 143.783 483.642 144.421 483.785 145ZM482.086 140.068C481.461 140.029 480.986 140.01 480.66 140.01C479.449 140.01 478.508 140.208 477.838 140.605C477.167 141.003 476.832 141.582 476.832 142.344C476.832 142.826 477.011 143.236 477.369 143.574C477.734 143.913 478.258 144.082 478.941 144.082C479.866 144.082 480.624 143.747 481.217 143.076C481.816 142.406 482.115 141.618 482.115 140.713C482.115 140.531 482.105 140.316 482.086 140.068ZM494.42 145H492.984V138.662C492.984 137.751 492.786 137.109 492.389 136.738C491.992 136.367 491.51 136.182 490.943 136.182C490.162 136.182 489.505 136.494 488.971 137.119C488.443 137.744 488.18 138.568 488.18 139.59V145H486.646V135.137H488.072V136.953C488.873 135.56 489.911 134.863 491.188 134.863C491.923 134.863 492.548 135.055 493.062 135.439C493.583 135.817 493.938 136.243 494.127 136.719C494.322 137.194 494.42 138.053 494.42 139.297V145ZM505.191 131.67V145H503.795V143.311C503.105 144.613 502.066 145.264 500.68 145.264C499.527 145.264 498.58 144.782 497.838 143.818C497.096 142.848 496.725 141.624 496.725 140.146C496.725 138.636 497.092 137.38 497.828 136.377C498.564 135.368 499.54 134.863 500.758 134.863C501.943 134.863 502.91 135.404 503.658 136.484V131.67H505.191ZM503.658 138.945C503.658 138.079 503.395 137.386 502.867 136.865C502.34 136.344 501.725 136.084 501.021 136.084C500.26 136.084 499.632 136.423 499.137 137.1C498.648 137.777 498.404 138.727 498.404 139.951C498.404 141.273 498.629 142.279 499.078 142.969C499.534 143.659 500.156 144.004 500.943 144.004C501.66 144.004 502.291 143.704 502.838 143.105C503.385 142.507 503.658 141.803 503.658 140.996V138.945ZM92.3008 158.137L88.3457 169.152C87.7728 170.741 86.8581 171.535 85.6016 171.535C85.2044 171.535 84.765 171.467 84.2832 171.33V170.129C84.6803 170.22 85.0221 170.266 85.3086 170.266C85.7969 170.266 86.2038 170.126 86.5293 169.846C86.8613 169.566 87.1901 168.889 87.5156 167.814L84.1074 158.137H85.6699L88.3066 165.549L91.0117 158.137H92.3008ZM97.0957 168.264C95.7415 168.264 94.6836 167.762 93.9219 166.76C93.1667 165.757 92.7891 164.514 92.7891 163.029C92.7891 161.46 93.2155 160.207 94.0684 159.27C94.9212 158.332 95.9824 157.863 97.252 157.863C98.6126 157.863 99.6836 158.358 100.465 159.348C101.253 160.331 101.646 161.561 101.646 163.039C101.646 164.576 101.223 165.832 100.377 166.809C99.5306 167.779 98.4368 168.264 97.0957 168.264ZM97.2129 167.004C97.9941 167.004 98.6484 166.682 99.1758 166.037C99.7031 165.393 99.9668 164.39 99.9668 163.029C99.9668 161.662 99.6901 160.673 99.1367 160.061C98.5833 159.442 97.9355 159.133 97.1934 159.133C96.4316 159.133 95.7871 159.445 95.2598 160.07C94.7324 160.689 94.4688 161.672 94.4688 163.02C94.4688 164.445 94.7324 165.467 95.2598 166.086C95.7871 166.698 96.4382 167.004 97.2129 167.004ZM111.715 168H110.338V166.115C109.635 167.548 108.587 168.264 107.193 168.264C106.184 168.264 105.39 167.932 104.811 167.268C104.238 166.604 103.951 165.66 103.951 164.436V158.137H105.484V164.436C105.484 165.412 105.686 166.086 106.09 166.457C106.5 166.822 106.949 167.004 107.438 167.004C107.932 167.004 108.378 166.864 108.775 166.584C109.179 166.304 109.514 165.907 109.781 165.393C110.048 164.872 110.182 164.305 110.182 163.693V158.137H111.715V168ZM116.324 168H114.791V158.137H116.139V160.441C116.614 159.354 117.089 158.651 117.564 158.332C118.046 158.007 118.538 157.844 119.039 157.844C119.195 157.844 119.397 157.857 119.645 157.883V159.348H119.332C118.486 159.348 117.783 159.663 117.223 160.295C116.663 160.926 116.363 161.757 116.324 162.785V168ZM134.156 168H132.779V166.115C132.076 167.548 131.028 168.264 129.635 168.264C128.626 168.264 127.831 167.932 127.252 167.268C126.679 166.604 126.393 165.66 126.393 164.436V158.137H127.926V164.436C127.926 165.412 128.128 166.086 128.531 166.457C128.941 166.822 129.391 167.004 129.879 167.004C130.374 167.004 130.82 166.864 131.217 166.584C131.62 166.304 131.956 165.907 132.223 165.393C132.49 164.872 132.623 164.305 132.623 163.693V158.137H134.156V168ZM145.006 168H143.57V161.662C143.57 160.751 143.372 160.109 142.975 159.738C142.577 159.367 142.096 159.182 141.529 159.182C140.748 159.182 140.09 159.494 139.557 160.119C139.029 160.744 138.766 161.568 138.766 162.59V168H137.232V158.137H138.658V159.953C139.459 158.56 140.497 157.863 141.773 157.863C142.509 157.863 143.134 158.055 143.648 158.439C144.169 158.817 144.524 159.243 144.713 159.719C144.908 160.194 145.006 161.053 145.006 162.297V168ZM149.654 154.67V156.369H148.004V154.67H149.654ZM149.605 158.137V168H148.072V158.137H149.605ZM160.309 158V171.33H158.775V166.203C158.131 167.577 157.138 168.264 155.797 168.264C154.677 168.264 153.746 167.814 153.004 166.916C152.262 166.011 151.891 164.755 151.891 163.146C151.891 161.617 152.262 160.354 153.004 159.357C153.746 158.361 154.723 157.863 155.934 157.863C156.507 157.863 157.027 157.977 157.496 158.205C157.971 158.433 158.45 158.947 158.932 159.748L159.537 158H160.309ZM158.775 162.297C158.691 161.138 158.378 160.321 157.838 159.846C157.304 159.37 156.738 159.133 156.139 159.133C155.377 159.133 154.758 159.494 154.283 160.217C153.808 160.939 153.57 161.893 153.57 163.078C153.57 164.237 153.795 165.174 154.244 165.891C154.7 166.6 155.322 166.955 156.109 166.955C156.904 166.955 157.545 166.617 158.033 165.939C158.528 165.256 158.775 164.478 158.775 163.605V162.297ZM170.953 168H169.576V166.115C168.873 167.548 167.825 168.264 166.432 168.264C165.423 168.264 164.628 167.932 164.049 167.268C163.476 166.604 163.189 165.66 163.189 164.436V158.137H164.723V164.436C164.723 165.412 164.924 166.086 165.328 166.457C165.738 166.822 166.188 167.004 166.676 167.004C167.171 167.004 167.617 166.864 168.014 166.584C168.417 166.304 168.753 165.907 169.02 165.393C169.286 164.872 169.42 164.305 169.42 163.693V158.137H170.953V168ZM180.543 165.061L181.969 165.354C181.708 166.193 181.201 166.89 180.445 167.443C179.69 167.99 178.801 168.264 177.779 168.264C176.432 168.264 175.341 167.792 174.508 166.848C173.674 165.897 173.258 164.654 173.258 163.117C173.258 161.548 173.691 160.282 174.557 159.318C175.423 158.348 176.51 157.863 177.818 157.863C179.107 157.863 180.143 158.309 180.924 159.201C181.712 160.093 182.115 161.428 182.135 163.205H174.967C174.967 164.696 175.279 165.702 175.904 166.223C176.529 166.743 177.19 167.004 177.887 167.004C179.143 167.004 180.029 166.356 180.543 165.061ZM180.455 162.062C180.442 161.509 180.351 161.018 180.182 160.588C180.012 160.158 179.726 159.794 179.322 159.494C178.919 159.188 178.434 159.035 177.867 159.035C177.105 159.035 176.458 159.309 175.924 159.855C175.396 160.402 175.1 161.138 175.035 162.062H180.455ZM190.182 168H189.439V154.67H190.973V159.777C191.676 158.501 192.646 157.863 193.883 157.863C195.016 157.863 195.963 158.309 196.725 159.201C197.493 160.093 197.877 161.389 197.877 163.088C197.877 164.553 197.499 165.783 196.744 166.779C195.995 167.769 195.019 168.264 193.814 168.264C192.473 168.264 191.445 167.632 190.729 166.369L190.182 168ZM190.973 164.133C191.044 165.142 191.354 165.874 191.9 166.33C192.454 166.786 193.036 167.014 193.648 167.014C194.43 167.014 195.058 166.675 195.533 165.998C196.015 165.321 196.256 164.393 196.256 163.215C196.256 161.945 196.025 160.949 195.562 160.227C195.1 159.497 194.459 159.133 193.639 159.133C192.994 159.133 192.411 159.393 191.891 159.914C191.376 160.428 191.07 161.096 190.973 161.916V164.133ZM207.945 168H206.568V166.115C205.865 167.548 204.817 168.264 203.424 168.264C202.415 168.264 201.62 167.932 201.041 167.268C200.468 166.604 200.182 165.66 200.182 164.436V158.137H201.715V164.436C201.715 165.412 201.917 166.086 202.32 166.457C202.73 166.822 203.18 167.004 203.668 167.004C204.163 167.004 204.609 166.864 205.006 166.584C205.41 166.304 205.745 165.907 206.012 165.393C206.279 164.872 206.412 164.305 206.412 163.693V158.137H207.945V168ZM209.693 165.441L211.158 165.139C211.484 166.382 212.512 167.004 214.244 167.004C214.882 167.004 215.423 166.861 215.865 166.574C216.308 166.288 216.529 165.884 216.529 165.363C216.529 164.589 215.966 164.097 214.84 163.889L212.76 163.498C211.946 163.342 211.298 163.036 210.816 162.58C210.335 162.124 210.094 161.522 210.094 160.773C210.094 159.947 210.423 159.257 211.08 158.703C211.738 158.143 212.623 157.863 213.736 157.863C215.878 157.863 217.2 158.7 217.701 160.373L216.295 160.676C215.891 159.647 215.061 159.133 213.805 159.133C213.18 159.133 212.665 159.263 212.262 159.523C211.865 159.777 211.666 160.135 211.666 160.598C211.666 161.327 212.177 161.786 213.199 161.975L215.123 162.316C217.135 162.681 218.141 163.654 218.141 165.236C218.141 166.141 217.766 166.874 217.018 167.434C216.269 167.987 215.273 168.264 214.029 168.264C211.692 168.264 210.247 167.323 209.693 165.441ZM221.881 154.67V156.369H220.23V154.67H221.881ZM221.832 158.137V168H220.299V158.137H221.832ZM232.662 168H231.227V161.662C231.227 160.751 231.028 160.109 230.631 159.738C230.234 159.367 229.752 159.182 229.186 159.182C228.404 159.182 227.747 159.494 227.213 160.119C226.686 160.744 226.422 161.568 226.422 162.59V168H224.889V158.137H226.314V159.953C227.115 158.56 228.154 157.863 229.43 157.863C230.165 157.863 230.79 158.055 231.305 158.439C231.826 158.817 232.18 159.243 232.369 159.719C232.564 160.194 232.662 161.053 232.662 162.297V168ZM242.242 165.061L243.668 165.354C243.408 166.193 242.9 166.89 242.145 167.443C241.389 167.99 240.501 168.264 239.479 168.264C238.131 168.264 237.04 167.792 236.207 166.848C235.374 165.897 234.957 164.654 234.957 163.117C234.957 161.548 235.39 160.282 236.256 159.318C237.122 158.348 238.209 157.863 239.518 157.863C240.807 157.863 241.842 158.309 242.623 159.201C243.411 160.093 243.814 161.428 243.834 163.205H236.666C236.666 164.696 236.979 165.702 237.604 166.223C238.229 166.743 238.889 167.004 239.586 167.004C240.842 167.004 241.728 166.356 242.242 165.061ZM242.154 162.062C242.141 161.509 242.05 161.018 241.881 160.588C241.712 160.158 241.425 159.794 241.021 159.494C240.618 159.188 240.133 159.035 239.566 159.035C238.805 159.035 238.157 159.309 237.623 159.855C237.096 160.402 236.799 161.138 236.734 162.062H242.154ZM244.811 165.441L246.275 165.139C246.601 166.382 247.63 167.004 249.361 167.004C249.999 167.004 250.54 166.861 250.982 166.574C251.425 166.288 251.646 165.884 251.646 165.363C251.646 164.589 251.083 164.097 249.957 163.889L247.877 163.498C247.063 163.342 246.415 163.036 245.934 162.58C245.452 162.124 245.211 161.522 245.211 160.773C245.211 159.947 245.54 159.257 246.197 158.703C246.855 158.143 247.74 157.863 248.854 157.863C250.995 157.863 252.317 158.7 252.818 160.373L251.412 160.676C251.008 159.647 250.178 159.133 248.922 159.133C248.297 159.133 247.783 159.263 247.379 159.523C246.982 159.777 246.783 160.135 246.783 160.598C246.783 161.327 247.294 161.786 248.316 161.975L250.24 162.316C252.252 162.681 253.258 163.654 253.258 165.236C253.258 166.141 252.883 166.874 252.135 167.434C251.386 167.987 250.39 168.264 249.146 168.264C246.809 168.264 245.364 167.323 244.811 165.441ZM254.088 165.441L255.553 165.139C255.878 166.382 256.907 167.004 258.639 167.004C259.277 167.004 259.817 166.861 260.26 166.574C260.702 166.288 260.924 165.884 260.924 165.363C260.924 164.589 260.361 164.097 259.234 163.889L257.154 163.498C256.34 163.342 255.693 163.036 255.211 162.58C254.729 162.124 254.488 161.522 254.488 160.773C254.488 159.947 254.817 159.257 255.475 158.703C256.132 158.143 257.018 157.863 258.131 157.863C260.273 157.863 261.594 158.7 262.096 160.373L260.689 160.676C260.286 159.647 259.456 159.133 258.199 159.133C257.574 159.133 257.06 159.263 256.656 159.523C256.259 159.777 256.061 160.135 256.061 160.598C256.061 161.327 256.572 161.786 257.594 161.975L259.518 162.316C261.529 162.681 262.535 163.654 262.535 165.236C262.535 166.141 262.161 166.874 261.412 167.434C260.663 167.987 259.667 168.264 258.424 168.264C256.087 168.264 254.641 167.323 254.088 165.441ZM277.467 168H276.031V161.662C276.031 160.751 275.833 160.109 275.436 159.738C275.038 159.367 274.557 159.182 273.99 159.182C273.209 159.182 272.551 159.494 272.018 160.119C271.49 160.744 271.227 161.568 271.227 162.59V168H269.693V158.137H271.119V159.953C271.92 158.56 272.958 157.863 274.234 157.863C274.97 157.863 275.595 158.055 276.109 158.439C276.63 158.817 276.985 159.243 277.174 159.719C277.369 160.194 277.467 161.053 277.467 162.297V168ZM287.047 165.061L288.473 165.354C288.212 166.193 287.704 166.89 286.949 167.443C286.194 167.99 285.305 168.264 284.283 168.264C282.936 168.264 281.845 167.792 281.012 166.848C280.178 165.897 279.762 164.654 279.762 163.117C279.762 161.548 280.195 160.282 281.061 159.318C281.926 158.348 283.014 157.863 284.322 157.863C285.611 157.863 286.646 158.309 287.428 159.201C288.215 160.093 288.619 161.428 288.639 163.205H281.471C281.471 164.696 281.783 165.702 282.408 166.223C283.033 166.743 283.694 167.004 284.391 167.004C285.647 167.004 286.533 166.356 287.047 165.061ZM286.959 162.062C286.946 161.509 286.855 161.018 286.686 160.588C286.516 160.158 286.23 159.794 285.826 159.494C285.423 159.188 284.938 159.035 284.371 159.035C283.609 159.035 282.962 159.309 282.428 159.855C281.9 160.402 281.604 161.138 281.539 162.062H286.959ZM297.457 165.061L298.883 165.354C298.622 166.193 298.115 166.89 297.359 167.443C296.604 167.99 295.715 168.264 294.693 168.264C293.346 168.264 292.255 167.792 291.422 166.848C290.589 165.897 290.172 164.654 290.172 163.117C290.172 161.548 290.605 160.282 291.471 159.318C292.337 158.348 293.424 157.863 294.732 157.863C296.021 157.863 297.057 158.309 297.838 159.201C298.626 160.093 299.029 161.428 299.049 163.205H291.881C291.881 164.696 292.193 165.702 292.818 166.223C293.443 166.743 294.104 167.004 294.801 167.004C296.057 167.004 296.943 166.356 297.457 165.061ZM297.369 162.062C297.356 161.509 297.265 161.018 297.096 160.588C296.926 160.158 296.64 159.794 296.236 159.494C295.833 159.188 295.348 159.035 294.781 159.035C294.02 159.035 293.372 159.309 292.838 159.855C292.311 160.402 292.014 161.138 291.949 162.062H297.369ZM309.059 154.67V168H307.662V166.311C306.972 167.613 305.934 168.264 304.547 168.264C303.395 168.264 302.447 167.782 301.705 166.818C300.963 165.848 300.592 164.624 300.592 163.146C300.592 161.636 300.96 160.38 301.695 159.377C302.431 158.368 303.408 157.863 304.625 157.863C305.81 157.863 306.777 158.404 307.525 159.484V154.67H309.059ZM307.525 161.945C307.525 161.079 307.262 160.386 306.734 159.865C306.207 159.344 305.592 159.084 304.889 159.084C304.127 159.084 303.499 159.423 303.004 160.1C302.516 160.777 302.271 161.727 302.271 162.951C302.271 164.273 302.496 165.279 302.945 165.969C303.401 166.659 304.023 167.004 304.811 167.004C305.527 167.004 306.158 166.704 306.705 166.105C307.252 165.507 307.525 164.803 307.525 163.996V161.945ZM310.807 165.441L312.271 165.139C312.597 166.382 313.626 167.004 315.357 167.004C315.995 167.004 316.536 166.861 316.979 166.574C317.421 166.288 317.643 165.884 317.643 165.363C317.643 164.589 317.079 164.097 315.953 163.889L313.873 163.498C313.059 163.342 312.411 163.036 311.93 162.58C311.448 162.124 311.207 161.522 311.207 160.773C311.207 159.947 311.536 159.257 312.193 158.703C312.851 158.143 313.736 157.863 314.85 157.863C316.992 157.863 318.313 158.7 318.814 160.373L317.408 160.676C317.005 159.647 316.174 159.133 314.918 159.133C314.293 159.133 313.779 159.263 313.375 159.523C312.978 159.777 312.779 160.135 312.779 160.598C312.779 161.327 313.29 161.786 314.312 161.975L316.236 162.316C318.248 162.681 319.254 163.654 319.254 165.236C319.254 166.141 318.88 166.874 318.131 167.434C317.382 167.987 316.386 168.264 315.143 168.264C312.805 168.264 311.36 167.323 310.807 165.441ZM323.443 165.773V167.775L321.988 170.51H321.158L322.311 168H321.314V165.773H323.443ZM337.242 164.543L338.629 164.787C338.434 165.874 338.001 166.727 337.33 167.346C336.66 167.958 335.823 168.264 334.82 168.264C333.46 168.264 332.421 167.762 331.705 166.76C330.995 165.757 330.641 164.533 330.641 163.088C330.641 161.59 331.015 160.347 331.764 159.357C332.519 158.361 333.544 157.863 334.84 157.863C335.914 157.863 336.773 158.186 337.418 158.83C338.069 159.468 338.473 160.295 338.629 161.311L337.242 161.574C336.982 159.947 336.194 159.133 334.879 159.133C334.033 159.133 333.382 159.494 332.926 160.217C332.47 160.933 332.242 161.864 332.242 163.01C332.242 164.273 332.467 165.256 332.916 165.959C333.372 166.656 334.01 167.004 334.83 167.004C336.1 167.004 336.904 166.184 337.242 164.543ZM348.463 168H346.93V162.014C346.93 161.311 346.884 160.783 346.793 160.432C346.708 160.08 346.5 159.777 346.168 159.523C345.842 159.263 345.465 159.133 345.035 159.133C344.247 159.133 343.587 159.455 343.053 160.1C342.525 160.744 342.262 161.607 342.262 162.688V168H340.729V154.67H342.262V159.953C342.958 158.56 343.954 157.863 345.25 157.863C345.829 157.863 346.344 157.977 346.793 158.205C347.249 158.433 347.597 158.732 347.838 159.104C348.079 159.475 348.242 159.842 348.326 160.207C348.417 160.565 348.463 161.167 348.463 162.014V168ZM359.254 168H357.73C357.672 167.688 357.613 167.095 357.555 166.223C356.878 167.583 355.725 168.264 354.098 168.264C352.991 168.264 352.141 167.971 351.549 167.385C350.956 166.799 350.66 166.096 350.66 165.275C350.66 164.279 351.083 163.462 351.93 162.824C352.776 162.18 354.215 161.857 356.246 161.857C356.52 161.857 356.956 161.87 357.555 161.896C357.555 161.115 357.493 160.552 357.369 160.207C357.252 159.855 356.998 159.576 356.607 159.367C356.217 159.159 355.702 159.055 355.064 159.055C353.508 159.055 352.604 159.647 352.35 160.832L350.934 160.588C351.279 158.771 352.73 157.863 355.289 157.863C356.65 157.863 357.613 158.166 358.18 158.771C358.753 159.37 359.039 160.412 359.039 161.896V166.086C359.039 166.783 359.111 167.421 359.254 168ZM357.555 163.068C356.93 163.029 356.454 163.01 356.129 163.01C354.918 163.01 353.977 163.208 353.307 163.605C352.636 164.003 352.301 164.582 352.301 165.344C352.301 165.826 352.48 166.236 352.838 166.574C353.202 166.913 353.727 167.082 354.41 167.082C355.335 167.082 356.093 166.747 356.686 166.076C357.285 165.406 357.584 164.618 357.584 163.713C357.584 163.531 357.574 163.316 357.555 163.068ZM363.648 168H362.115V154.67H363.648V168ZM368.258 168H366.725V154.67H368.258V168ZM377.848 165.061L379.273 165.354C379.013 166.193 378.505 166.89 377.75 167.443C376.995 167.99 376.106 168.264 375.084 168.264C373.736 168.264 372.646 167.792 371.812 166.848C370.979 165.897 370.562 164.654 370.562 163.117C370.562 161.548 370.995 160.282 371.861 159.318C372.727 158.348 373.814 157.863 375.123 157.863C376.412 157.863 377.447 158.309 378.229 159.201C379.016 160.093 379.42 161.428 379.439 163.205H372.271C372.271 164.696 372.584 165.702 373.209 166.223C373.834 166.743 374.495 167.004 375.191 167.004C376.448 167.004 377.333 166.356 377.848 165.061ZM377.76 162.062C377.747 161.509 377.656 161.018 377.486 160.588C377.317 160.158 377.031 159.794 376.627 159.494C376.223 159.188 375.738 159.035 375.172 159.035C374.41 159.035 373.762 159.309 373.229 159.855C372.701 160.402 372.405 161.138 372.34 162.062H377.76ZM389.518 168H388.082V161.662C388.082 160.751 387.883 160.109 387.486 159.738C387.089 159.367 386.607 159.182 386.041 159.182C385.26 159.182 384.602 159.494 384.068 160.119C383.541 160.744 383.277 161.568 383.277 162.59V168H381.744V158.137H383.17V159.953C383.971 158.56 385.009 157.863 386.285 157.863C387.021 157.863 387.646 158.055 388.16 158.439C388.681 158.817 389.036 159.243 389.225 159.719C389.42 160.194 389.518 161.053 389.518 162.297V168ZM400.641 156.594V157.814C399.938 157.814 399.465 157.896 399.225 158.059C398.99 158.221 398.834 158.514 398.756 158.938C399.387 159.667 399.703 160.461 399.703 161.32C399.703 162.219 399.358 162.99 398.668 163.635C397.984 164.279 397.063 164.602 395.904 164.602C395.644 164.602 395.419 164.582 395.23 164.543C394.872 164.471 394.648 164.436 394.557 164.436C394.381 164.436 394.169 164.523 393.922 164.699C393.674 164.868 393.551 165.09 393.551 165.363C393.551 165.754 393.73 166.008 394.088 166.125C394.446 166.242 395.289 166.317 396.617 166.35C397.743 166.382 398.574 166.46 399.107 166.584C399.648 166.701 400.104 166.968 400.475 167.385C400.846 167.795 401.031 168.299 401.031 168.898C401.031 170.78 399.378 171.721 396.07 171.721C394.501 171.721 393.355 171.483 392.633 171.008C391.917 170.539 391.559 169.911 391.559 169.123C391.559 168.166 392.06 167.508 393.062 167.15C392.418 166.727 392.096 166.197 392.096 165.559C392.096 164.797 392.551 164.214 393.463 163.811C392.61 163.12 392.184 162.251 392.184 161.203C392.184 160.227 392.548 159.426 393.277 158.801C394.007 158.176 394.895 157.863 395.943 157.863C396.686 157.863 397.359 158.003 397.965 158.283C398.062 157.639 398.287 157.193 398.639 156.945C398.997 156.698 399.537 156.574 400.26 156.574C400.331 156.574 400.458 156.581 400.641 156.594ZM395.953 163.43C396.604 163.43 397.135 163.231 397.545 162.834C397.955 162.43 398.16 161.91 398.16 161.271C398.16 160.62 397.945 160.09 397.516 159.68C397.092 159.263 396.578 159.055 395.973 159.055C395.393 159.055 394.879 159.25 394.43 159.641C393.98 160.025 393.756 160.575 393.756 161.291C393.756 161.929 393.958 162.447 394.361 162.844C394.765 163.234 395.296 163.43 395.953 163.43ZM394.117 167.6C393.401 167.912 393.043 168.365 393.043 168.957C393.043 169.458 393.336 169.846 393.922 170.119C394.514 170.399 395.266 170.539 396.178 170.539C397.024 170.539 397.799 170.419 398.502 170.178C399.205 169.943 399.557 169.543 399.557 168.977C399.557 168.671 399.452 168.42 399.244 168.225C399.036 168.029 398.749 167.906 398.385 167.854C398.027 167.801 397.398 167.762 396.5 167.736C395.426 167.71 394.632 167.665 394.117 167.6ZM408.922 165.061L410.348 165.354C410.087 166.193 409.579 166.89 408.824 167.443C408.069 167.99 407.18 168.264 406.158 168.264C404.811 168.264 403.72 167.792 402.887 166.848C402.053 165.897 401.637 164.654 401.637 163.117C401.637 161.548 402.07 160.282 402.936 159.318C403.801 158.348 404.889 157.863 406.197 157.863C407.486 157.863 408.521 158.309 409.303 159.201C410.09 160.093 410.494 161.428 410.514 163.205H403.346C403.346 164.696 403.658 165.702 404.283 166.223C404.908 166.743 405.569 167.004 406.266 167.004C407.522 167.004 408.408 166.356 408.922 165.061ZM408.834 162.062C408.821 161.509 408.73 161.018 408.561 160.588C408.391 160.158 408.105 159.794 407.701 159.494C407.298 159.188 406.812 159.035 406.246 159.035C405.484 159.035 404.837 159.309 404.303 159.855C403.775 160.402 403.479 161.138 403.414 162.062H408.834ZM411.49 165.441L412.955 165.139C413.281 166.382 414.309 167.004 416.041 167.004C416.679 167.004 417.219 166.861 417.662 166.574C418.105 166.288 418.326 165.884 418.326 165.363C418.326 164.589 417.763 164.097 416.637 163.889L414.557 163.498C413.743 163.342 413.095 163.036 412.613 162.58C412.132 162.124 411.891 161.522 411.891 160.773C411.891 159.947 412.219 159.257 412.877 158.703C413.535 158.143 414.42 157.863 415.533 157.863C417.675 157.863 418.997 158.7 419.498 160.373L418.092 160.676C417.688 159.647 416.858 159.133 415.602 159.133C414.977 159.133 414.462 159.263 414.059 159.523C413.661 159.777 413.463 160.135 413.463 160.598C413.463 161.327 413.974 161.786 414.996 161.975L416.92 162.316C418.932 162.681 419.938 163.654 419.938 165.236C419.938 166.141 419.563 166.874 418.814 167.434C418.066 167.987 417.07 168.264 415.826 168.264C413.489 168.264 412.044 167.323 411.49 165.441ZM424.127 165.773V167.775L422.672 170.51H421.842L422.994 168H421.998V165.773H424.127ZM439.82 168H438.297C438.238 167.688 438.18 167.095 438.121 166.223C437.444 167.583 436.292 168.264 434.664 168.264C433.557 168.264 432.708 167.971 432.115 167.385C431.523 166.799 431.227 166.096 431.227 165.275C431.227 164.279 431.65 163.462 432.496 162.824C433.342 162.18 434.781 161.857 436.812 161.857C437.086 161.857 437.522 161.87 438.121 161.896C438.121 161.115 438.059 160.552 437.936 160.207C437.818 159.855 437.564 159.576 437.174 159.367C436.783 159.159 436.269 159.055 435.631 159.055C434.075 159.055 433.17 159.647 432.916 160.832L431.5 160.588C431.845 158.771 433.297 157.863 435.855 157.863C437.216 157.863 438.18 158.166 438.746 158.771C439.319 159.37 439.605 160.412 439.605 161.896V166.086C439.605 166.783 439.677 167.421 439.82 168ZM438.121 163.068C437.496 163.029 437.021 163.01 436.695 163.01C435.484 163.01 434.544 163.208 433.873 163.605C433.202 164.003 432.867 164.582 432.867 165.344C432.867 165.826 433.046 166.236 433.404 166.574C433.769 166.913 434.293 167.082 434.977 167.082C435.901 167.082 436.66 166.747 437.252 166.076C437.851 165.406 438.15 164.618 438.15 163.713C438.15 163.531 438.141 163.316 438.121 163.068ZM450.455 168H449.02V161.662C449.02 160.751 448.821 160.109 448.424 159.738C448.027 159.367 447.545 159.182 446.979 159.182C446.197 159.182 445.54 159.494 445.006 160.119C444.479 160.744 444.215 161.568 444.215 162.59V168H442.682V158.137H444.107V159.953C444.908 158.56 445.947 157.863 447.223 157.863C447.958 157.863 448.583 158.055 449.098 158.439C449.618 158.817 449.973 159.243 450.162 159.719C450.357 160.194 450.455 161.053 450.455 162.297V168ZM461.227 154.67V168H459.83V166.311C459.14 167.613 458.102 168.264 456.715 168.264C455.562 168.264 454.615 167.782 453.873 166.818C453.131 165.848 452.76 164.624 452.76 163.146C452.76 161.636 453.128 160.38 453.863 159.377C454.599 158.368 455.576 157.863 456.793 157.863C457.978 157.863 458.945 158.404 459.693 159.484V154.67H461.227ZM459.693 161.945C459.693 161.079 459.43 160.386 458.902 159.865C458.375 159.344 457.76 159.084 457.057 159.084C456.295 159.084 455.667 159.423 455.172 160.1C454.684 160.777 454.439 161.727 454.439 162.951C454.439 164.273 454.664 165.279 455.113 165.969C455.569 166.659 456.191 167.004 456.979 167.004C457.695 167.004 458.326 166.704 458.873 166.105C459.42 165.507 459.693 164.803 459.693 163.996V161.945ZM477.359 156.594V157.814C476.656 157.814 476.184 157.896 475.943 158.059C475.709 158.221 475.553 158.514 475.475 158.938C476.106 159.667 476.422 160.461 476.422 161.32C476.422 162.219 476.077 162.99 475.387 163.635C474.703 164.279 473.782 164.602 472.623 164.602C472.363 164.602 472.138 164.582 471.949 164.543C471.591 164.471 471.367 164.436 471.275 164.436C471.1 164.436 470.888 164.523 470.641 164.699C470.393 164.868 470.27 165.09 470.27 165.363C470.27 165.754 470.449 166.008 470.807 166.125C471.165 166.242 472.008 166.317 473.336 166.35C474.462 166.382 475.292 166.46 475.826 166.584C476.367 166.701 476.822 166.968 477.193 167.385C477.564 167.795 477.75 168.299 477.75 168.898C477.75 170.78 476.096 171.721 472.789 171.721C471.22 171.721 470.074 171.483 469.352 171.008C468.635 170.539 468.277 169.911 468.277 169.123C468.277 168.166 468.779 167.508 469.781 167.15C469.137 166.727 468.814 166.197 468.814 165.559C468.814 164.797 469.27 164.214 470.182 163.811C469.329 163.12 468.902 162.251 468.902 161.203C468.902 160.227 469.267 159.426 469.996 158.801C470.725 158.176 471.614 157.863 472.662 157.863C473.404 157.863 474.078 158.003 474.684 158.283C474.781 157.639 475.006 157.193 475.357 156.945C475.715 156.698 476.256 156.574 476.979 156.574C477.05 156.574 477.177 156.581 477.359 156.594ZM472.672 163.43C473.323 163.43 473.854 163.231 474.264 162.834C474.674 162.43 474.879 161.91 474.879 161.271C474.879 160.62 474.664 160.09 474.234 159.68C473.811 159.263 473.297 159.055 472.691 159.055C472.112 159.055 471.598 159.25 471.148 159.641C470.699 160.025 470.475 160.575 470.475 161.291C470.475 161.929 470.676 162.447 471.08 162.844C471.484 163.234 472.014 163.43 472.672 163.43ZM470.836 167.6C470.12 167.912 469.762 168.365 469.762 168.957C469.762 169.458 470.055 169.846 470.641 170.119C471.233 170.399 471.985 170.539 472.896 170.539C473.743 170.539 474.518 170.419 475.221 170.178C475.924 169.943 476.275 169.543 476.275 168.977C476.275 168.671 476.171 168.42 475.963 168.225C475.755 168.029 475.468 167.906 475.104 167.854C474.745 167.801 474.117 167.762 473.219 167.736C472.145 167.71 471.35 167.665 470.836 167.6ZM482.662 168.264C481.308 168.264 480.25 167.762 479.488 166.76C478.733 165.757 478.355 164.514 478.355 163.029C478.355 161.46 478.782 160.207 479.635 159.27C480.488 158.332 481.549 157.863 482.818 157.863C484.179 157.863 485.25 158.358 486.031 159.348C486.819 160.331 487.213 161.561 487.213 163.039C487.213 164.576 486.79 165.832 485.943 166.809C485.097 167.779 484.003 168.264 482.662 168.264ZM482.779 167.004C483.561 167.004 484.215 166.682 484.742 166.037C485.27 165.393 485.533 164.39 485.533 163.029C485.533 161.662 485.257 160.673 484.703 160.061C484.15 159.442 483.502 159.133 482.76 159.133C481.998 159.133 481.354 159.445 480.826 160.07C480.299 160.689 480.035 161.672 480.035 163.02C480.035 164.445 480.299 165.467 480.826 166.086C481.354 166.698 482.005 167.004 482.779 167.004ZM497.242 168H495.719C495.66 167.688 495.602 167.095 495.543 166.223C494.866 167.583 493.714 168.264 492.086 168.264C490.979 168.264 490.13 167.971 489.537 167.385C488.945 166.799 488.648 166.096 488.648 165.275C488.648 164.279 489.072 163.462 489.918 162.824C490.764 162.18 492.203 161.857 494.234 161.857C494.508 161.857 494.944 161.87 495.543 161.896C495.543 161.115 495.481 160.552 495.357 160.207C495.24 159.855 494.986 159.576 494.596 159.367C494.205 159.159 493.691 159.055 493.053 159.055C491.497 159.055 490.592 159.647 490.338 160.832L488.922 160.588C489.267 158.771 490.719 157.863 493.277 157.863C494.638 157.863 495.602 158.166 496.168 158.771C496.741 159.37 497.027 160.412 497.027 161.896V166.086C497.027 166.783 497.099 167.421 497.242 168ZM495.543 163.068C494.918 163.029 494.443 163.01 494.117 163.01C492.906 163.01 491.965 163.208 491.295 163.605C490.624 164.003 490.289 164.582 490.289 165.344C490.289 165.826 490.468 166.236 490.826 166.574C491.191 166.913 491.715 167.082 492.398 167.082C493.323 167.082 494.081 166.747 494.674 166.076C495.273 165.406 495.572 164.618 495.572 163.713C495.572 163.531 495.562 163.316 495.543 163.068ZM501.637 168H500.104V154.67H501.637V168ZM503.385 165.441L504.85 165.139C505.175 166.382 506.204 167.004 507.936 167.004C508.574 167.004 509.114 166.861 509.557 166.574C509.999 166.288 510.221 165.884 510.221 165.363C510.221 164.589 509.658 164.097 508.531 163.889L506.451 163.498C505.637 163.342 504.99 163.036 504.508 162.58C504.026 162.124 503.785 161.522 503.785 160.773C503.785 159.947 504.114 159.257 504.771 158.703C505.429 158.143 506.314 157.863 507.428 157.863C509.57 157.863 510.891 158.7 511.393 160.373L509.986 160.676C509.583 159.647 508.753 159.133 507.496 159.133C506.871 159.133 506.357 159.263 505.953 159.523C505.556 159.777 505.357 160.135 505.357 160.598C505.357 161.327 505.868 161.786 506.891 161.975L508.814 162.316C510.826 162.681 511.832 163.654 511.832 165.236C511.832 166.141 511.458 166.874 510.709 167.434C509.96 167.987 508.964 168.264 507.721 168.264C505.383 168.264 503.938 167.323 503.385 165.441ZM516.051 165.812V168H513.873V165.812H516.051Z" fill="black"/>
<defs>
<filter id="filter0_d_120_434" x="0" y="0" width="620" height="349.489" filterUnits="userSpaceOnUse" color-interpolation-filters="sRGB">
<feFlood flood-opacity="0" result="BackgroundImageFix"/>
<feColorMatrix in="SourceAlpha" type="matrix" values="0 0 0 0 0 0 0 0 0 0 0 0 0 0 0 0 0 0 127 0" result="hardAlpha"/>
<feOffset dx="-4" dy="4"/>
<feGaussianBlur stdDeviation="5"/>
<feComposite in2="hardAlpha" operator="out"/>
<feColorMatrix type="matrix" values="0 0 0 0 0 0 0 0 0 0 0 0 0 0 0 0 0 0 0.25 0"/>
<feBlend mode="normal" in2="BackgroundImageFix" result="effect1_dropShadow_120_434"/>
<feBlend mode="normal" in="SourceGraphic" in2="effect1_dropShadow_120_434" result="shape"/>
</filter>
</defs>
</svg>
